<?xml version="1.0" encoding="UTF-8" standalone="no"?>
<!-- Created with Inkscape (http://www.inkscape.org/) -->

<svg
   xmlns:dc="http://purl.org/dc/elements/1.1/"
   xmlns:cc="http://creativecommons.org/ns#"
   xmlns:rdf="http://www.w3.org/1999/02/22-rdf-syntax-ns#"
   xmlns:svg="http://www.w3.org/2000/svg"
   xmlns="http://www.w3.org/2000/svg"
   xmlns:sodipodi="http://sodipodi.sourceforge.net/DTD/sodipodi-0.dtd"
   xmlns:inkscape="http://www.inkscape.org/namespaces/inkscape"
   width="71.580124mm"
   height="105.52007mm"
   viewBox="0 0 71.580124 105.52007"
   version="1.1"
   id="svg932"
   inkscape:version="0.92.2 2405546, 2018-03-11"
   sodipodi:docname="Diederichs_Graphik_1207.svg">
  <defs
     id="defs926" />
  <sodipodi:namedview
     id="base"
     pagecolor="#ffffff"
     bordercolor="#666666"
     borderopacity="1.0"
     inkscape:pageopacity="0.0"
     inkscape:pageshadow="2"
     inkscape:zoom="0.7"
     inkscape:cx="-78.59959"
     inkscape:cy="245.26532"
     inkscape:document-units="mm"
     inkscape:current-layer="layer1"
     showgrid="false"
     fit-margin-top="0"
     fit-margin-left="0"
     fit-margin-right="0"
     fit-margin-bottom="0"
     inkscape:window-width="1916"
     inkscape:window-height="1041"
     inkscape:window-x="0"
     inkscape:window-y="18"
     inkscape:window-maximized="0" />
  <metadata
     id="metadata929">
    <rdf:RDF>
      <cc:Work
         rdf:about="">
        <dc:format>image/svg+xml</dc:format>
        <dc:type
           rdf:resource="http://purl.org/dc/dcmitype/StillImage" />
        <dc:title></dc:title>
      </cc:Work>
    </rdf:RDF>
  </metadata>
  <g
     inkscape:label="Layer 1"
     inkscape:groupmode="layer"
     id="layer1"
     transform="translate(-151.45735,-44.990208)">
    <path
       style="fill:#000000;stroke-width:0.26458332"
       d="m 186.78337,150.08825 c -1.15468,-0.54717 -1.52607,-0.56467 -12.30312,-0.5798 -9.26235,-0.013 -11.35478,-0.0847 -12.56771,-0.43043 -2.3199,-0.66132 -6.49609,-0.13156 -7.17657,0.91035 -0.16225,0.24845 -3.04224,0.38528 -3.27205,0.15546 -0.0646,-0.0646 0.35482,-0.88534 0.93209,-1.82384 1.16903,-1.90057 1.30238,-2.87955 0.6315,-4.63622 -0.37969,-0.99421 -0.38031,-1.22361 -0.007,-2.48164 0.39692,-1.33657 0.39064,-1.42267 -0.17544,-2.40625 -0.57731,-1.00311 -0.57899,-1.0338 -0.10051,-1.84379 0.59307,-1.00398 0.61084,-1.76515 0.22849,-9.78533 -0.31971,-6.70625 -0.098,-15.64073 0.39225,-15.80414 0.45355,-0.15118 0.13238,-7.97372 -0.46458,-11.31565 -0.42824,-2.397422 -0.49887,-3.72132 -0.40072,-7.511045 0.0655,-2.530348 0.23142,-4.712903 0.36864,-4.850127 0.31663,-0.316619 1.09747,3.826089 1.13303,6.011177 0.0142,0.873125 0.12136,1.885156 0.23811,2.248958 0.11959,0.372642 0.20268,-1.764606 0.1903,-4.894791 -0.0198,-5.003308 -0.0815,-5.743308 -0.62026,-7.435905 -0.53609,-1.684253 -0.92082,-4.375968 -0.99821,-6.983886 -0.0516,-1.738355 0.47843,-1.194689 0.90278,0.926041 0.4866,2.431807 1.13818,3.912759 0.93127,2.116667 -0.0671,-0.582083 -0.1925,-2.295313 -0.27877,-3.807177 -0.13577,-2.379345 -0.24496,-2.864355 -0.81231,-3.608197 -0.62443,-0.818666 -0.65192,-1.007951 -0.58066,-3.99803 0.0774,-3.245961 0.33739,-3.834324 0.89719,-2.030021 0.29399,0.947548 0.31441,0.863352 0.34049,-1.403706 0.0244,-2.124164 -0.0432,-2.502133 -0.56757,-3.170069 -0.56081,-0.714405 -0.59028,-0.960967 -0.50851,-4.254458 0.0477,-1.922857 0.12521,-4.00867 0.17215,-4.635139 0.085,-1.134245 0.0896,-1.138953 1.10382,-1.119343 0.83609,0.01617 1.00292,0.106211 0.93159,0.502834 -0.0478,0.265727 0.11741,1.01809 0.36711,1.671918 0.58484,1.531371 0.41303,6.045062 -0.26976,7.08713 -0.28829,0.439999 -0.40827,1.084863 -0.3552,1.909135 l 0.0802,1.244707 0.45584,-0.670194 c 0.25071,-0.368607 0.57738,-1.527221 0.72594,-2.574699 0.14856,-1.047478 0.30062,-2.047138 0.33792,-2.221465 0.0793,-0.370461 0.6551,-1.145222 1.35728,-1.826123 0.69912,-0.677935 0.40599,-1.554517 -1.02718,-3.07169 -0.65358,-0.691897 -1.18834,-1.51089 -1.18834,-1.819985 0,-0.309096 -0.45334,-1.206452 -1.00742,-1.994126 -0.55409,-0.787674 -1.17146,-1.947254 -1.37194,-2.576845 -0.46251,-1.452428 -0.1625,-1.710902 1.78048,-1.533969 0.82179,0.07484 1.4555,0.01289 1.55756,-0.152249 0.16546,-0.267728 1.44002,-0.216 4.72987,0.191961 1.80935,0.224371 2.54387,0.184198 3.23298,-0.176819 0.49575,-0.25972 0.85612,-0.175186 2.3151,0.543067 0.95038,0.467869 1.72796,0.953767 1.72796,1.079775 0,0.362006 0.81325,1.079828 1.05448,0.930742 0.11994,-0.07413 0.15419,-0.611001 0.0761,-1.193056 -0.15695,-1.170145 -0.0686,-1.241465 0.81792,-0.660568 0.56613,0.370944 0.63005,0.354635 0.94952,-0.242297 0.18839,-0.352007 0.56578,-0.698395 0.83864,-0.769751 0.54871,-0.143491 0.92546,0.217022 0.50097,0.479374 -0.66261,0.409515 -0.18543,0.591609 0.50777,0.193767 1.14562,-0.657499 1.21275,-0.275264 0.15455,0.880023 -1.201,1.311191 -1.18409,1.598069 0.045,0.763955 0.53695,-0.364384 1.13845,-0.600285 1.33666,-0.524224 0.19821,0.07606 0.28764,0.0206 0.19874,-0.123259 -0.0889,-0.143854 -0.0519,-0.261553 0.0822,-0.261553 0.1341,0 0.69328,-0.357188 1.24263,-0.79375 0.96405,-0.766132 1.0919,-0.793346 3.6744,-0.782137 1.547,0.0067 3.09857,0.162505 3.67837,0.369337 0.55153,0.196747 1.25475,0.291829 1.56273,0.211292 0.35953,-0.09402 0.4972,-0.0449 0.38464,0.137232 -0.0964,0.156015 -0.0703,0.323598 0.0581,0.372407 0.1284,0.04881 0.17636,0.467539 0.10657,0.930512 -0.12479,0.827818 -0.15604,0.844538 -1.88546,1.008958 -0.96722,0.09195 -2.37594,0.285547 -3.1305,0.430205 -1.55779,0.298645 -2.98668,0.105202 -4.27261,-0.578428 -1.014,-0.539065 -1.79665,-0.372538 -3.08671,0.656773 l -0.79375,0.633315 1.25677,-0.141643 c 1.74549,-0.196723 1.59439,0.262337 -0.31556,0.95874 -1.41603,0.51631 -1.64663,0.71052 -2.31978,1.953681 l -0.74745,1.380381 0.79843,0.059 c 0.43913,0.03245 1.07406,0.205544 1.41096,0.384657 0.48018,0.255291 0.70887,0.256421 1.05833,0.0052 1.161,-0.834507 1.64363,-0.949453 2.57398,-0.613036 0.50128,0.181264 1.3854,0.336113 1.96472,0.344108 0.59347,0.0082 1.19581,0.186251 1.37974,0.407875 0.17955,0.216337 0.60639,0.499775 0.94855,0.629864 0.34216,0.130088 0.54839,0.35581 0.45828,0.501603 -0.10097,0.163378 0.3373,0.265081 1.14231,0.265081 1.60177,0 1.99985,0.389787 1.75129,1.714778 -0.23278,1.240788 -1.00702,1.735841 -2.99699,1.916286 -1.50103,0.136109 -1.61774,0.199457 -2.41642,1.311597 -0.46157,0.64272 -1.33366,1.474293 -1.93798,1.847941 -0.60432,0.373647 -1.53277,1.094193 -2.06323,1.601214 -0.69075,0.66023 -1.11261,0.874837 -1.48646,0.756183 -0.40719,-0.129239 -0.59605,0.01312 -0.85874,0.647307 -0.60566,1.462193 -1.29478,1.615886 -6.95638,1.551458 -2.79388,-0.03179 -5.29938,-0.167242 -5.56777,-0.300996 -0.36692,-0.182857 -0.65213,-0.08988 -1.14962,0.374791 -0.7974,0.744791 -1.53255,2.07319 -1.14732,2.07319 0.34712,0 0.35319,2.131637 0.009,3.037861 -0.14451,0.380085 -0.61388,1.066784 -1.04306,1.526 -0.67681,0.724189 -0.76052,0.976993 -0.63103,1.905852 0.0821,0.589003 0.25382,1.346552 0.3816,1.683449 0.12777,0.336894 0.2464,1.170331 0.26362,1.852083 0.0654,2.589234 0.375,2.760017 0.41196,0.227243 0.0372,-2.548356 0.15104,-3.111339 0.54892,-2.714363 0.23855,0.237998 0.25037,4.894622 0.0185,7.298541 -0.19563,2.028503 -0.34812,2.49187 -1.19855,3.641889 -0.57156,0.772909 -0.65475,1.218195 -0.79085,4.233334 -0.0837,1.853263 -0.0675,3.291342 0.0359,3.195732 0.15846,-0.146513 0.26541,-1.489707 0.39169,-4.919392 0.012,-0.327422 0.1291,-0.595313 0.26011,-0.595313 0.59673,0 0.83173,3.020399 0.93668,12.038543 0.0876,7.5318 0.0333,9.86772 -0.25996,11.16281 -0.3184,1.40642 -0.31818,1.73923 0.002,2.35557 0.56232,1.08387 0.58265,13.19664 0.0244,14.53273 -0.39284,0.94021 -0.39048,0.94948 0.19057,0.74859 0.32359,-0.11186 2.01709,-0.23333 3.76334,-0.26992 1.74625,-0.0366 3.53219,-0.0825 3.96875,-0.1021 0.43656,-0.0196 1.83277,0.10056 3.10267,0.26693 1.62057,0.21231 2.46335,0.21985 2.82688,0.0253 0.28486,-0.15246 0.64483,-0.2772 0.79992,-0.2772 0.8576,0 -0.3473,1.91969 -1.54266,2.45782 -0.66001,0.29713 -0.69092,0.38146 -0.42708,1.16527 0.22104,0.65667 0.37096,0.78822 0.67276,0.59029 0.33255,-0.2181 0.31802,-0.30844 -0.10118,-0.62893 -0.47035,-0.35959 -0.38043,-1.09869 0.0977,-0.80318 0.1282,0.0792 0.62599,-0.2894 1.10619,-0.81918 1.15683,-1.27626 1.89386,-1.54518 2.8062,-1.0239 1.19316,0.68173 2.41605,1.62872 2.94439,2.28013 l 0.50137,0.61814 5.1e-4,-1.29352 c 7.9e-4,-2.03143 0.5537,-2.41649 3.42742,-2.3869 1.89724,0.0195 2.57323,0.14689 3.81574,0.71884 1.81056,0.83343 2.33764,1.68063 2.52904,4.06502 0.11321,1.41044 0.0313,1.86421 -0.5517,3.05466 -1.09881,2.24384 -2.61918,3.52762 -5.431,4.58583 -1.33481,0.50235 -2.75324,0.92532 -3.15206,0.93994 -0.59892,0.022 -0.54093,0.0713 0.33319,0.28339 0.70471,0.17099 1.65001,0.16211 2.8291,-0.0266 3.5504,-0.56819 6.03444,-0.0874 6.03444,1.16791 0,0.85862 -0.54237,1.27761 -0.94358,0.72892 -0.30372,-0.41535 -0.43721,-0.40166 -1.87452,0.19232 -0.85114,0.35173 -2.2619,1.1024 -3.13502,1.66815 l -1.5875,1.02863 1.98437,-0.18863 c 2.57782,-0.24504 3.84885,-0.17539 4.91298,0.26923 0.77346,0.32317 0.97807,0.30521 1.93913,-0.17029 0.82425,-0.4078 1.584,-0.52843 3.26273,-0.51803 l 2.18829,0.0135 -0.92604,-0.47575 c -0.50933,-0.26166 -1.57051,-0.91638 -2.3582,-1.45493 -1.37053,-0.93705 -2.34664,-1.14867 -2.20587,-0.47824 0.0923,0.43949 -0.33312,0.39346 -0.72475,-0.0784 -0.1812,-0.21834 -0.25521,-0.67759 -0.16628,-1.03189 0.26439,-1.05341 1.40192,-1.26508 5.71968,-1.06429 3.58784,0.16684 4.62752,0.0757 2.77812,-0.24348 -2.02481,-0.34948 -2.74611,-0.56994 -4.10104,-1.25346 -1.60786,-0.81112 -3.23998,-2.286 -3.91218,-3.53528 -0.28431,-0.5284 -0.44003,-1.4602 -0.44532,-2.66462 -0.007,-1.60875 0.0962,-2.01795 0.78563,-3.11452 1.16314,-1.84994 2.25574,-2.28753 5.41631,-2.16926 2.00844,0.0752 2.57306,0.18564 2.84427,0.55654 0.38151,0.52175 0.45981,2.372 0.10954,2.58848 -0.12585,0.0778 -0.89471,-0.19912 -1.70857,-0.61534 l -1.47975,-0.75677 -0.93726,1.36085 c -0.51549,0.74848 -0.93725,1.58663 -0.93725,1.86257 0,0.78344 1.86599,2.36528 3.59208,3.04509 2.03285,0.80062 6.99162,1.11626 7.62268,0.4852 0.35138,-0.35137 0.19703,-0.41516 -1.37457,-0.56806 -5.19167,-0.50511 -6.7011,-0.80776 -7.21835,-1.4473 -0.27784,-0.34355 -0.50517,-0.71427 -0.50517,-0.82382 0,-0.42216 1.4598,-1.63006 2.55604,-2.11497 0.63147,-0.27934 1.14812,-0.63087 1.14812,-0.78119 0,-0.15031 0.60601,-0.75232 1.34668,-1.33779 1.80267,-1.42493 2.97486,-1.46149 4.43932,-0.13844 0.56375,0.50932 1.15941,0.92604 1.32367,0.92604 0.39054,0 0.38607,0.7085 -0.006,0.95081 -0.21082,0.13029 -0.1531,0.29912 0.18736,0.54808 0.43273,0.31641 0.52973,0.28934 0.80481,-0.22466 0.27952,-0.52227 0.21035,-0.6657 -0.65038,-1.34857 -1.3674,-1.08484 -1.82859,-2.45331 -0.60635,-1.79918 0.78977,0.42267 2.74634,0.34729 3.7306,-0.14372 0.47378,-0.23635 1.47434,-0.42532 2.22346,-0.41992 2.60685,0.0188 6.92217,0.48186 7.5136,0.80629 0.76942,0.42208 0.75023,0.26679 -0.13229,-1.07063 l -0.72761,-1.10264 -0.0146,-6.63075 c -0.008,-3.6469 0.0626,-7.05038 0.15691,-7.56327 0.0943,-0.5129 0.074,-1.70352 -0.0451,-2.64584 -0.16737,-1.3239 -0.74837,-10.68586 -0.80418,-12.958083 -0.0421,-1.715836 0.42922,-10.561907 0.58508,-10.980208 0.22188,-0.595524 0.23717,-0.551648 0.73737,2.116667 l 0.24799,1.322916 0.0313,-1.768713 c 0.0339,-1.918367 -0.21473,-2.844273 -0.98624,-3.67239 -0.88426,-0.949148 -1.39063,-3.118376 -1.54004,-6.597438 -0.11833,-2.754948 -0.0727,-3.395668 0.2733,-3.836458 0.3928,-0.500439 0.41589,-0.457348 0.42524,0.79375 0.005,0.727604 0.11779,1.739635 0.24967,2.248958 0.13188,0.509323 0.31469,1.475512 0.40625,2.147086 0.0916,0.671576 0.33427,1.445482 0.53934,1.719791 0.43661,0.584018 0.45217,0.728205 -0.27865,-2.582486 -0.37819,-1.713299 -0.39642,-2.231785 -0.11912,-3.38772 0.18008,-0.750649 0.38881,-1.30342 0.46385,-1.228378 0.075,0.07504 -0.004,0.693189 -0.1751,1.373666 -0.26769,1.063096 -0.23177,1.576559 0.25523,3.648157 0.98676,4.197487 1.01981,4.207322 0.94895,0.282358 -0.0577,-3.195944 -0.14813,-3.883485 -0.64612,-4.912183 -0.31846,-0.657862 -0.57902,-1.387512 -0.57902,-1.621443 0,-0.233931 -0.29431,-0.775097 -0.65402,-1.202587 -0.82951,-0.985821 -1.08147,-1.66901 -1.31396,-3.562823 -0.26469,-2.156087 0.31348,-1.942961 1.17617,0.433569 0.1526,0.420365 0.34955,0.692198 0.43767,0.604074 0.0881,-0.08812 -0.15045,-0.789245 -0.53016,-1.558048 -0.74273,-1.503798 -3.44033,-3.961257 -4.07922,-3.716089 -0.28135,0.107964 -0.26998,0.224202 0.0573,0.585851 0.66344,0.733103 0.52624,1.11335 -0.27072,0.750233 -0.51912,-0.23653 -1.19208,-0.235195 -2.858,0.0057 -2.87248,0.415317 -4.32309,0.3974 -6.13997,-0.07584 -1.33241,-0.34705 -2.19599,-0.940954 -2.22085,-1.527343 -0.005,-0.10914 -0.30001,-0.198437 -0.65641,-0.198437 -0.43208,0 -0.88809,-0.314788 -1.36856,-0.944715 -0.39632,-0.519593 -1.26558,-1.222259 -1.9317,-1.561479 -0.66611,-0.339221 -1.68737,-1.14666 -2.26946,-1.79431 -0.97133,-1.080747 -1.19109,-1.192355 -2.6734,-1.357712 -1.83899,-0.205145 -2.26444,-0.468148 -2.74791,-1.698692 -0.27196,-0.692216 -0.2757,-0.940519 -0.018,-1.190625 0.25489,-0.247342 0.3117,-0.201024 0.26142,0.213158 -0.12821,1.056271 0.47643,1.939765 1.52724,2.231567 0.55263,0.153463 1.22938,0.279687 1.50389,0.280499 0.45136,0.0013 0.4387,-0.05805 -0.1323,-0.620897 -0.34726,-0.342304 -0.80998,-0.698091 -1.02826,-0.790636 -0.21828,-0.09255 0.0159,-0.09499 0.52048,-0.0054 1.09925,0.195104 1.82057,0.612188 1.99442,1.153213 0.0703,0.218641 0.41596,0.731657 0.76824,1.140034 l 0.64049,0.742504 0.19565,-0.610213 c 0.33852,-1.055807 0.12001,-3.472379 -0.36216,-4.00517 -0.89286,-0.986601 -1.37502,-1.069102 -2.13039,-0.364527 -0.58636,0.54693 -0.89452,0.633982 -1.88862,0.533526 -1.503,-0.15188 -1.72788,-0.345916 -0.40091,-0.345916 0.81612,0 1.17164,-0.175156 1.83003,-0.901633 0.64051,-0.706738 1.0745,-0.928141 2.00776,-1.024268 1.52311,-0.156882 2.35381,-0.367781 2.75274,-0.698866 0.42808,-0.355273 1.53261,-0.04375 1.95812,0.552273 0.319,0.446824 0.40503,0.452661 1.13185,0.07681 0.52034,-0.269075 1.0976,-0.348433 1.70529,-0.23443 1.10597,0.207482 1.18681,-0.123518 0.25721,-1.05312 -0.3638,-0.363802 -0.66146,-0.904995 -0.66146,-1.202651 0,-0.327407 -0.1829,-0.55325 -0.46302,-0.571713 -0.76726,-0.05057 -0.93728,-0.09585 -2.38125,-0.634171 -1.75644,-0.654809 -1.788,-1.043904 -0.0661,-0.815491 0.7276,0.09652 1.32291,0.123172 1.32291,0.05923 0,-0.197576 -2.32317,-1.489462 -2.67847,-1.489462 -0.1844,0 -0.65281,0.304214 -1.0409,0.67603 l -0.70563,0.676031 -3.67448,-0.304177 c -2.02096,-0.167298 -3.94091,-0.294372 -4.26656,-0.282387 -0.4526,0.01666 -0.58404,-0.117684 -0.55796,-0.570291 0.0188,-0.325645 -0.0509,-0.902857 -0.15492,-1.282694 -0.17026,-0.621997 -0.11482,-0.693748 0.55796,-0.722169 0.41085,-0.01736 2.17575,-0.148506 3.922,-0.291447 3.83704,-0.314082 4.97534,-0.188323 5.40384,0.597013 0.17346,0.317927 0.93357,0.869396 1.68911,1.225486 0.75555,0.356091 1.47291,0.696733 1.59415,0.756982 0.12123,0.06025 0.0295,-0.259616 -0.2038,-0.710811 -0.23333,-0.451195 -0.39557,-0.910899 -0.36054,-1.021565 0.0882,-0.278558 0.82778,-0.08169 1.08296,0.288257 0.11701,0.169637 0.17555,-0.08815 0.13229,-0.582565 -0.0427,-0.487767 0.0117,-0.87472 0.12085,-0.859896 0.10914,0.01482 0.2993,0.02695 0.42259,0.02695 0.12328,0 0.35335,0.267891 0.51126,0.595312 0.22858,0.473967 0.29076,0.500933 0.30501,0.132292 0.0206,-0.531469 0.50636,-0.625978 0.68002,-0.132292 0.31555,0.897034 0.30475,1.72041 -0.0285,2.176208 -0.483,0.660539 -0.46711,1.10296 0.0467,1.300121 0.30843,0.118358 0.40326,0.0062 0.36759,-0.434713 -0.0794,-0.981087 -0.0108,-1.233292 0.47351,-1.741916 0.25466,-0.267431 0.59643,-0.713915 0.75948,-0.992187 0.21625,-0.369056 0.60999,-0.512133 1.45521,-0.528801 0.63732,-0.01257 1.61,-0.116009 2.16152,-0.229868 0.76785,-0.158521 1.11364,-0.10668 1.47604,0.221288 0.59759,0.540815 0.93511,0.540559 1.3846,-0.001 0.29044,-0.349956 0.67796,-0.399461 2.09557,-0.267708 0.95657,0.0889 2.14295,0.04586 2.63638,-0.09566 0.69299,-0.198746 0.99456,-0.169159 1.32513,0.130008 0.37616,0.340416 0.47705,0.338236 0.83329,-0.01801 0.33499,-0.334986 0.52753,-0.349634 1.10962,-0.08441 0.38737,0.176497 0.71342,0.45062 0.72455,0.609162 0.0111,0.158543 0.0589,0.488219 0.10614,0.732613 0.0472,0.244394 -0.31975,0.899238 -0.81555,1.455208 -0.49579,0.555971 -0.85234,1.140418 -0.79233,1.298772 0.06,0.158355 -0.23694,0.573767 -0.6599,0.923138 -0.57094,0.471601 -0.76902,0.864691 -0.76902,1.526092 0,0.575052 -0.2658,1.232656 -0.74979,1.854988 -1.11892,1.438762 -1.19222,1.832633 -0.46529,2.500382 0.62341,0.572663 1.58592,2.97255 1.34714,3.358911 -0.20121,0.325558 0.63094,2.819713 1.0594,3.175307 0.33983,0.282033 0.39604,0.186217 0.39604,-0.675067 0,-0.552062 -0.17888,-1.201413 -0.39751,-1.443 -0.44302,-0.489528 -0.60186,-5.509046 -0.26006,-8.217945 l 0.18571,-1.471779 1.00851,-0.01863 1.00851,-0.01863 0.14547,2.151868 c 0.48475,7.170435 0.49649,6.62115 -0.15939,7.454873 -0.48193,0.612608 -0.62366,1.174811 -0.69583,2.76023 -0.0498,1.095013 -0.0447,2.348119 0.0115,2.784682 0.0997,0.77474 0.11005,0.766819 0.43156,-0.330729 0.18116,-0.618464 0.43371,-1.124479 0.5612,-1.124479 0.3038,0 0.47021,3.27509 0.23526,4.630208 -0.21366,1.232358 -1.22913,3.712151 -1.43558,3.505705 -0.0776,-0.07759 0.16353,-0.864756 0.53582,-1.749269 0.51005,-1.21182 0.67345,-2.050352 0.66295,-3.40211 l -0.0139,-1.793908 -0.70438,1.322916 c -0.76911,1.444496 -0.72283,0.568946 -0.57331,10.847917 0.0437,3.005238 0.0646,3.118413 0.39095,2.116666 0.18963,-0.582083 0.35392,-1.792737 0.36511,-2.690339 0.0216,-1.732602 0.19347,-2.469036 0.57627,-2.469036 0.12911,0 0.24342,1.63711 0.25402,3.638021 0.0296,5.587256 -7e-5,6.049433 -0.45806,7.128968 -0.50718,1.195509 -0.77312,6.725533 -0.41104,8.547594 0.19835,0.998172 0.27049,0.495655 0.44629,-3.108854 0.11534,-2.364713 0.30624,-4.299479 0.42423,-4.299479 0.69484,0 0.8629,8.466386 0.31513,15.874996 -0.49446,6.68747 -0.57323,8.59116 -0.33985,8.21355 0.16229,-0.26259 0.25026,-0.22595 0.36501,0.15201 0.49411,1.62753 0.6144,4.78569 0.53663,14.0891 -0.074,8.84861 -0.0284,10.4999 0.30294,10.97293 0.50132,0.71574 0.4983,1.60733 -0.007,2.02658 -0.5414,0.44933 -0.49905,0.85706 0.17848,1.71842 0.56665,0.72036 0.56867,0.75655 0.13358,2.38938 -0.50323,1.88858 -0.39732,3.47367 0.37589,5.62556 0.8265,2.30024 0.76543,2.43747 -1.08483,2.43747 -1.40164,0 -1.5875,-0.0609 -1.5875,-0.51986 0,-1.36685 -2.81529,-1.50668 -9.04278,-0.44913 -5.04318,0.85643 -9.10937,0.91558 -13.18222,0.19177 -3.2077,-0.57006 -7.95763,-0.61833 -8.13603,-0.0827 -0.0606,0.18191 -0.2643,0.33073 -0.45271,0.33073 -0.1884,0 -0.5059,0.22413 -0.70555,0.49806 -0.354,0.48571 -0.39251,0.48407 -1.55363,-0.0661 z m 1.69386,-0.72336 c 0.39221,-0.30851 1.55646,-0.71943 2.61537,-0.92308 l 1.90848,-0.36703 -1.8152,0.1012 c -1.3235,0.0738 -2.02194,0.25405 -2.57838,0.66545 -0.7363,0.54436 -0.78807,0.54794 -1.46961,0.10137 -0.72924,-0.47782 -1.53084,-0.52425 -6.53018,-0.37823 -4.29985,0.12559 -3.6707,0.52416 0.75171,0.47621 3.47418,-0.0377 4.39939,0.0333 5.15937,0.39554 1.20074,0.57239 1.137,0.57471 1.95844,-0.0714 z m 31.79622,-2.29097 c -1.83559,-3.10604 -2.24664,-3.5033 -3.62295,-3.50136 l -1.15984,0.002 0.79375,0.40963 c 0.86227,0.44499 2.85924,1.96218 2.99366,2.27442 0.0458,0.10635 0.44108,0.64365 0.87845,1.19402 0.43738,0.55036 0.8709,1.36072 0.96338,1.80081 0.11048,0.5257 0.2017,0.6404 0.26595,0.3344 0.0538,-0.25617 -0.44679,-1.38726 -1.1124,-2.51354 z m -66.39688,1.59024 c 0.41695,-0.54571 0.71882,-1.11125 0.67082,-1.25677 -0.048,-0.14553 -0.004,-0.18096 0.0986,-0.0788 0.2224,0.22241 0.62474,-0.15984 1.82949,-1.73815 l 0.90408,-1.18441 -0.67795,0.12294 c -0.37287,0.0676 -0.79658,0.1476 -0.94157,0.17773 -0.14498,0.0301 -0.31247,-0.0769 -0.37218,-0.23785 -0.10887,-0.29343 1.41563,-1.55705 3.01137,-2.49607 0.57707,-0.33958 1.15485,-1.10234 1.78927,-2.36213 0.51534,-1.02333 0.90572,-1.86922 0.86751,-1.87974 -0.0382,-0.0105 -0.48619,-0.0479 -0.99551,-0.083 -0.50933,-0.0351 -1.27263,-0.16329 -1.69623,-0.28482 -0.76754,-0.2202 -0.76868,-0.21881 -0.33073,0.40645 0.47804,0.68249 0.60238,2.36174 0.17487,2.36174 -0.14552,0 -0.26458,-0.362 -0.26458,-0.80446 0,-0.44245 -0.26052,-1.15683 -0.57893,-1.5875 -0.45459,-0.61487 -0.78132,-0.78217 -1.52135,-0.77899 -0.51834,0.002 -1.07018,0.0915 -1.22631,0.19844 -0.52843,0.36184 -0.62643,1.09837 -0.20255,1.52225 0.57491,0.5749 0.31664,0.7331 -0.38943,0.23855 -0.91544,-0.6412 -0.75625,-1.62291 0.3486,-2.14977 0.84745,-0.40412 1.14011,-0.40903 3.37344,-0.0566 1.44483,0.22798 2.87854,0.30724 3.50382,0.1937 4.20512,-0.7636 4.43907,-0.77271 6.32113,-0.24632 l 1.82321,0.50993 -0.16388,-2.1252 c -0.1961,-2.54291 -0.89077,-3.67091 -2.77368,-4.5038 -1.16276,-0.51435 -1.24708,-0.51674 -2.67453,-0.0757 -1.43917,0.44469 -4.11983,1.80803 -5.17808,2.63348 -0.48092,0.37513 -0.42288,0.37653 0.63658,0.0154 0.64117,-0.21856 1.20959,-0.35355 1.26317,-0.29997 0.2255,0.2255 -0.69439,0.68208 -2.42892,1.20557 -2.26442,0.68341 -2.96456,1.02408 -3.85894,1.87767 -1.55428,1.4834 -1.53315,2.17125 0.12038,3.91709 0.76457,0.80727 0.83038,1.02295 0.85728,2.80966 0.016,1.0644 0.0949,2.04164 0.17522,2.17164 0.19723,0.31912 -0.38081,1.26946 -0.82979,1.36425 -0.27859,0.0588 -0.31991,-0.15228 -0.18125,-0.92604 0.48325,-2.69677 0.46463,-3.91861 -0.0698,-4.57859 l -0.52106,-0.64348 -0.29195,1.05159 c -0.38153,1.37428 -0.37101,2.12395 0.0358,2.55404 0.60558,0.64018 0.33905,3.95157 -0.39456,4.9021 -0.13547,0.17553 -0.17034,0.44206 -0.0775,0.59229 0.0982,0.15884 0.008,0.2115 -0.21504,0.12584 -0.21112,-0.081 -0.46246,-0.0201 -0.55853,0.13532 -0.10095,0.16336 0.042,0.28263 0.33871,0.28263 0.28236,0 0.85452,-0.44648 1.27147,-0.99218 z m 0.7852,0.68672 c 0.11696,-0.18926 0.0726,-0.23364 -0.11668,-0.11668 -0.16801,0.10384 -0.30546,0.0429 -0.30546,-0.13551 0,-0.17836 -0.0714,-0.25284 -0.15879,-0.16551 -0.15135,0.15136 0.0788,0.72316 0.29108,0.72316 0.0556,0 0.18601,-0.13746 0.28985,-0.30546 z m 52.20002,0.0343 c 1.65703,-0.14666 4.21687,-0.51708 5.68854,-0.82316 1.47166,-0.30608 3.41961,-0.57201 4.32877,-0.59097 1.8358,-0.0383 2.15039,-0.27938 0.71572,-0.54852 -1.12344,-0.21076 -2.18792,-0.0726 -7.39582,0.9601 -4.01003,0.79515 -6.50529,0.95347 -10.47094,0.66435 l -1.96448,-0.14322 2.11667,0.34301 c 2.74535,0.4449 3.37732,0.45742 6.98154,0.13841 z m 15.64033,-0.10374 c 0,-0.20622 -0.23342,-0.91949 -0.51871,-1.58504 -0.28529,-0.66556 -0.51175,-1.53863 -0.50325,-1.94017 0.008,-0.40153 -0.01,-1.21922 -0.0411,-1.81708 -0.0311,-0.59786 0.0994,-1.51837 0.29003,-2.04557 0.30181,-0.83464 0.28684,-1.08393 -0.11581,-1.92828 -0.64254,-1.34744 -1.0757,-0.81673 -1.05415,1.29155 0.0539,5.2667 0.10772,5.82787 0.62989,6.56118 0.28566,0.40117 0.51938,0.89954 0.51938,1.10748 0,0.20795 0.0794,0.45746 0.17639,0.55447 0.29845,0.29845 0.61736,0.19589 0.61736,-0.19854 z m -2.08383,-0.48937 c -0.26131,-0.25936 -0.2917,-0.22897 -0.14812,0.14811 0.0994,0.26094 0.24731,0.40778 0.32877,0.32632 0.0815,-0.0815 1.7e-4,-0.29496 -0.18065,-0.47443 z m -61.15158,-0.43758 c 1.23692,-0.001 2.96333,0.17031 3.83646,0.38113 0.92367,0.22303 2.69387,0.36739 4.23333,0.34522 l 2.64583,-0.0381 -2.77812,-0.19922 c -1.52797,-0.10957 -3.73063,-0.38407 -4.89479,-0.60999 -3.08436,-0.59858 -5.28765,-0.55664 -6.38492,0.12151 -1.14825,0.70965 -1.12454,0.79311 0.10106,0.35573 0.54571,-0.19475 2.00422,-0.35507 3.24115,-0.35628 z m 20.05856,-0.4251 c 0.68222,-0.22767 1.89524,-0.81071 2.6956,-1.29565 2.63287,-1.59526 3.72315,-2.05615 4.46239,-1.88636 l 0.69699,0.16009 -0.66146,-0.5503 c -0.60068,-0.49973 -0.86809,-0.53339 -2.91042,-0.36632 -3.68688,0.3016 -4.81381,0.25201 -6.47825,-0.28505 -1.68217,-0.54279 -2.02318,-0.77529 -4.42147,-3.01462 -1.50068,-1.40121 -1.54422,-1.42095 -2.65517,-1.20358 -0.62122,0.12155 -2.32037,0.22682 -3.7759,0.23395 l -2.64643,0.0129 -1.58691,1.07806 c -0.8728,0.59294 -1.95723,1.20603 -2.40985,1.36242 -0.7267,0.2511 -3.01446,1.56472 -3.01294,1.73002 3.2e-4,0.0346 1.33977,0.0678 2.97656,0.0738 3.29165,0.0121 4.19216,0.27807 8.9579,2.64562 4.44911,2.21026 7.09564,2.53095 10.76936,1.30499 z m 17.96978,0.77338 c -0.0879,-0.0879 -0.31613,-0.0973 -0.50712,-0.0209 -0.21107,0.0845 -0.14837,0.14716 0.15985,0.15986 0.27892,0.0115 0.43519,-0.0511 0.34727,-0.13897 z m 12.73791,-0.80187 c 3.86784,-0.82816 5.95991,-1.1106 7.30979,-0.98687 l 1.05833,0.097 -0.79375,-0.46327 c -0.66708,-0.38934 -1.42709,-0.45892 -4.7625,-0.43598 l -3.96875,0.0273 -2.91042,1.38183 -2.91041,1.38184 1.95062,-0.17157 c 1.07285,-0.0944 3.33504,-0.46799 5.02709,-0.83028 z m -14.84598,0.51535 c -0.25297,-0.0662 -0.72922,-0.0686 -1.05833,-0.005 -0.32912,0.0633 -0.12215,0.11747 0.45993,0.1204 0.58208,0.003 0.85136,-0.0488 0.5984,-0.11507 z m 24.40473,-0.21508 c -0.18116,-0.21829 -0.45662,-0.39688 -0.61214,-0.39688 -0.15551,0 -0.0516,0.17481 0.23084,0.38846 0.6637,0.502 0.7933,0.50486 0.3813,0.008 z m -61.72279,-1.23453 c 1.06356,-0.30037 3.12884,-0.57338 5.06972,-0.67016 l 3.27507,-0.16332 -0.89382,-0.47626 c -1.44629,-0.77065 -3.53033,-0.55257 -6.64849,0.69573 -0.25467,0.10195 -0.46303,0.0696 -0.46303,-0.0718 0,-0.27686 3.04509,-1.38693 3.80458,-1.38693 0.25299,0 0.3864,-0.11906 0.29647,-0.26458 -0.39765,-0.6434 -2.35998,-0.0127 -4.62002,1.48496 -0.63411,0.4202 -1.45315,0.94773 -1.82009,1.17229 -0.36694,0.22456 -0.72253,0.58175 -0.7902,0.79375 -0.0872,0.27329 0.0397,0.24108 0.43605,-0.11067 0.3075,-0.27287 1.36669,-0.72421 2.35376,-1.00298 z m 11.31966,0.54851 c -1.53559,-0.75231 -1.70672,-0.77678 -5.23417,-0.74827 -2.00567,0.0162 -3.9702,0.12119 -4.36562,0.2333 l -0.71896,0.20383 0.92604,0.15125 c 0.50933,0.0832 1.93808,0.32434 3.175,0.53588 1.23693,0.21155 3.49912,0.38848 5.02709,0.39319 l 2.77812,0.009 -1.5875,-0.77773 z m 36.32613,-0.22958 c 1.19179,-0.57633 3.0126,-1.59994 4.04625,-2.27469 2.21837,-1.44811 2.85673,-1.65713 5.60514,-1.83525 2.83963,-0.18403 4.36843,0.2228 4.86244,1.29395 0.36912,0.80037 0.37349,0.78766 0.17224,-0.50175 -0.43021,-2.7564 -0.28273,-3.95821 0.6477,-5.27801 0.47294,-0.67086 0.85989,-1.40269 0.85989,-1.62628 0,-0.66393 -0.53312,-1.45887 -0.8479,-1.26432 -0.16071,0.0993 -0.2189,0.062 -0.12932,-0.083 0.36938,-0.59766 -1.61794,-2.00126 -3.67263,-2.59389 -2.04457,-0.58972 -2.43626,-1.09846 -0.5115,-0.66436 l 1.02715,0.23166 -0.77717,-0.62262 c -0.42744,-0.34244 -1.07483,-0.68121 -1.43863,-0.75282 -0.3638,-0.0716 -1.43536,-0.32703 -2.38125,-0.56761 -2.00331,-0.50954 -3.6143,-0.36292 -4.60895,0.41947 -1.0282,0.80879 -2.5348,3.55108 -2.5348,4.61384 0,1.00369 0.27842,1.11208 1.32292,0.51499 0.90351,-0.51649 3.44788,-0.49145 5.10399,0.0502 1.31142,0.42894 1.47805,0.42437 4.10158,-0.11257 2.41007,-0.49324 2.85037,-0.51712 3.70984,-0.20116 0.53637,0.19718 0.87134,0.36689 0.74438,0.37714 -0.12696,0.0103 -0.0889,0.18963 0.0845,0.39861 0.33559,0.40437 0.0513,1.20802 -0.68921,1.94858 -0.47754,0.47754 -0.45301,0.0187 0.0334,-0.62433 0.55532,-0.7342 0.49635,-1.10318 -0.255,-1.59549 -0.47244,-0.30955 -0.9338,-0.38133 -1.62162,-0.25229 l -0.96134,0.18035 0.87379,0.72947 c 0.67863,0.56654 0.82585,0.84314 0.65916,1.23838 -0.19797,0.46942 -0.22795,0.45829 -0.38642,-0.14343 -0.267,-1.01387 -1.55332,-1.64197 -2.70912,-1.32283 l -0.94331,0.26046 0.6138,1.75658 c 0.61442,1.75837 1.63002,3.12492 2.5361,3.4125 0.26542,0.0842 0.48258,0.26228 0.48258,0.39564 0,0.28245 -1.75237,-0.46573 -2.48605,-1.06143 -0.37823,-0.3071 -0.52997,-0.32647 -0.61666,-0.0787 -0.0904,0.25844 -0.23755,0.26049 -0.68894,0.01 -0.31717,-0.17629 -1.58019,-0.32332 -2.82293,-0.32861 -2.05751,-0.009 -2.42339,0.0737 -4.29793,0.96883 -1.12693,0.53812 -2.60093,1.35816 -3.27554,1.82231 -0.82862,0.5701 -1.62318,0.87616 -2.44895,0.9433 l -1.22237,0.0994 1.19062,-0.34777 c 0.65485,-0.19128 1.96453,-0.83635 2.91042,-1.4335 3.61012,-2.27911 6.68489,-3.05765 9.39271,-2.37823 l 0.79375,0.19916 -0.87099,-0.56986 c -1.16112,-0.75968 -0.90935,-0.94241 0.30847,-0.22388 1.2277,0.72436 1.2615,0.47907 0.0382,-0.27698 -0.50667,-0.31314 -1.04769,-0.49118 -1.20226,-0.39565 -0.15458,0.0955 -0.59008,-0.0288 -0.96778,-0.27627 -0.55454,-0.36335 -1.44857,-0.4635 -4.64475,-0.52029 l -3.95803,-0.0703 -0.70142,0.82822 c -1.3299,1.5703 -2.65995,2.70593 -3.9278,3.35363 -1.32462,0.67671 -1.88817,0.71415 -7.63288,0.50716 -1.98918,-0.0717 -3.03137,0.27157 -3.03137,0.9984 0,0.3426 0.0706,0.36993 0.3175,0.12299 0.50144,-0.50144 0.85207,-0.39257 2.67717,0.8313 1.71272,1.14851 3.95682,2.18513 5.55149,2.56443 0.4656,0.11074 2.103,0.21354 3.63867,0.22843 2.73605,0.0265 2.83564,0.006 4.95901,-1.0208 z m 13.83994,-0.23637 c -0.9711,-1.36379 -3.52407,-3.00877 -5.1869,-3.34215 -0.50213,-0.10067 -0.21051,0.12038 0.79375,0.60166 0.87312,0.41844 1.7509,0.95941 1.95062,1.20215 0.19972,0.24274 0.50524,0.44135 0.67893,0.44135 0.17368,0 0.68472,0.41672 1.13564,0.92604 0.98791,1.11585 1.37603,1.22151 0.62796,0.17095 z m -59.95957,-2.39198 c 0.97819,-0.51682 1.00334,-0.5571 0.34795,-0.5571 -1.13109,0 -1.9566,0.4292 -2.62151,1.36297 l -0.61988,0.87055 0.91951,-0.55966 c 0.50573,-0.30782 1.394,-0.81036 1.97393,-1.11676 z m 55.88602,0.33458 c -1.78687,-0.90443 -3.12721,-1.02237 -4.37637,-0.3851 -1.89013,0.96427 -1.63598,1.09077 2.04405,1.01736 l 3.44567,-0.0687 z m 4.31849,-0.34778 c -0.15142,-0.28293 -0.41213,-0.59898 -0.57936,-0.70233 -0.20373,-0.12592 -0.23331,-0.0653 -0.0897,0.1837 0.56747,0.98372 1.16643,1.44803 0.66903,0.51863 z m -40.05127,-2.26219 c 4.65957,-0.9721 7.47908,-3.68535 7.49383,-7.21139 0.003,-0.76399 -0.085,-1.38907 -0.19604,-1.38907 -0.11101,0 -0.31937,-0.25989 -0.46302,-0.57755 -0.27691,-0.61234 -2.09026,-1.77293 -2.80022,-1.79222 -0.28815,-0.008 -0.10667,0.33049 0.5711,1.06465 1.14164,1.23662 1.38494,1.93626 1.05617,3.0372 -0.22584,0.75627 -0.2341,0.74636 -0.25611,-0.30733 -0.0227,-1.08594 -0.58986,-2.08636 -1.74025,-3.06959 -0.61763,-0.52787 -0.67609,-0.53971 -1.15799,-0.23442 -0.29292,0.18557 -0.25796,0.3333 0.18327,0.77454 0.85818,0.85817 1.25203,2.4916 0.84039,3.48538 -0.67923,1.63982 -4.38528,3.43668 -7.10142,3.44309 -0.67826,0.002 -1.68604,0.0777 -2.23952,0.1692 l -1.00633,0.1663 0.68106,0.71087 c 0.67799,0.70766 0.68851,0.70931 2.32924,0.36548 0.9065,-0.18997 2.06818,-0.34788 2.5815,-0.35092 0.51333,-0.003 1.20564,-0.19625 1.53846,-0.42937 0.33284,-0.23313 0.67041,-0.35861 0.75018,-0.27884 0.35012,0.35012 -1.73005,1.21397 -3.33103,1.38329 -0.95865,0.10139 -1.97747,0.26991 -2.26404,0.37449 -0.47669,0.17396 -0.45417,0.22633 0.26458,0.61527 0.99086,0.53619 1.88885,0.54692 4.26619,0.0509 z m 20.63444,-0.59681 c 0.63346,-0.40018 1.15196,-0.81254 1.15222,-0.91634 2.6e-4,-0.1038 -1.33898,-0.11814 -2.97609,-0.0319 -2.42253,0.12767 -3.1688,0.076 -4.00937,-0.27776 -0.56805,-0.23905 -0.95882,-0.50863 -0.86838,-0.59906 0.0904,-0.0904 0.51471,-0.0194 0.94283,0.15799 0.82275,0.34079 7.08823,0.26242 7.66803,-0.0959 0.72713,-0.44939 0.14858,-0.643 -1.96785,-0.65854 -3.45497,-0.0254 -6.19597,-0.98933 -7.61777,-2.67904 -0.96117,-1.14229 -0.89663,-2.10644 0.24076,-3.59651 0.85578,-1.12112 1.07162,-1.75877 0.57806,-1.70771 -0.10551,0.0109 -0.35629,0.0198 -0.5573,0.0198 -0.6432,0 -1.86359,1.90554 -2.03086,3.17102 -0.11553,0.87403 -0.2135,1.06982 -0.36506,0.7296 -0.37014,-0.83085 0.10466,-2.28458 1.0573,-3.23722 l 0.9163,-0.9163 -1.03788,0.0603 c -0.57083,0.0332 -1.01865,0.12972 -0.99516,0.21456 0.0235,0.0849 -0.40378,0.6659 -0.94948,1.29124 -0.90633,1.03859 -0.99219,1.27226 -0.99219,2.70054 0,1.02244 0.17538,1.90332 0.50675,2.54523 0.52859,1.02396 2.06211,2.56419 3.19742,3.21141 1.28325,0.73156 3.59142,1.31382 5.26392,1.32788 1.40505,0.0118 1.88741,-0.10918 2.8438,-0.71337 z m -38.79939,-0.99219 c 0.49311,-0.3638 0.78413,-0.66086 0.64672,-0.66014 -0.26817,0.001 -1.93617,1.29617 -1.69031,1.31209 0.0809,0.005 0.55049,-0.28815 1.04359,-0.65195 z m 1.5875,-1.33468 c 0.95142,-0.33008 2.7837,-0.67901 4.10105,-0.78097 1.30968,-0.10136 2.90805,-0.29705 3.55192,-0.43486 0.64387,-0.13781 2.21797,-0.2958 3.49801,-0.3511 2.54286,-0.10985 3.49114,-0.31054 3.25704,-0.68931 -0.0835,-0.13505 -0.007,-0.24554 0.16894,-0.24554 0.17637,0 0.0665,-0.22044 -0.24416,-0.48988 -0.31066,-0.26943 -0.48449,-0.57023 -0.38629,-0.66843 0.0982,-0.0982 0.20297,-0.65687 0.23282,-1.24147 0.0511,-1.00001 -0.0291,-1.12454 -1.35474,-2.10383 -0.77496,-0.57249 -1.48424,-1.1626 -1.57617,-1.31135 -0.35469,-0.57391 -0.84397,-0.25987 -0.79803,0.51222 0.0256,0.43046 -0.0342,0.73275 -0.13291,0.67175 -0.0987,-0.061 -0.57115,0.2932 -1.04987,0.78712 -0.47873,0.49392 -1.22664,1.04559 -1.66204,1.22594 -0.77747,0.32204 -0.78912,0.35547 -0.65182,1.86969 0.0769,0.84798 0.0465,1.59945 -0.0675,1.66994 -0.11404,0.0705 -0.5987,-0.0671 -1.07703,-0.30571 -1.15041,-0.5739 -2.07763,-0.5105 -4.61863,0.31582 -2.40349,0.78159 -3.15805,1.20551 -3.59327,2.01873 -0.27053,0.5055 -0.24934,0.54568 0.18913,0.3586 0.27159,-0.11588 1.26771,-0.47919 2.21359,-0.80736 z m 51.71615,-0.82194 c -0.44153,-0.32285 -1.83336,-0.80078 -5.20576,-1.78756 -1.46137,-0.4276 -1.54656,-0.42437 -2.56915,0.0973 -0.58171,0.29677 -1.11571,0.53958 -1.18666,0.53958 -0.0709,0 -0.165,-0.62364 -0.20898,-1.38586 l -0.08,-1.38586 -1.85209,-1.11089 c -2.21475,-1.32841 -2.59675,-1.80919 -1.86766,-2.35059 0.28248,-0.20976 0.37953,-0.38138 0.21567,-0.38138 -0.72764,0 -1.78648,0.62082 -3.05927,1.79371 -0.75578,0.69647 -1.73134,1.43587 -2.1679,1.64312 -1.14537,0.54372 -1.71979,1.07775 -1.71979,1.59886 0,0.72677 0.54343,0.99242 2.38125,1.16403 0.94588,0.0883 2.25557,0.28014 2.91041,0.42625 0.65485,0.14611 2.02407,0.30966 3.04271,0.36345 6.35856,0.33578 8.65539,0.66517 10.58333,1.51776 0.97271,0.43016 1.06602,0.43281 1.15325,0.0328 0.0522,-0.23938 -0.11402,-0.588 -0.36939,-0.77474 z m -18.46818,-2.3619 c -0.41305,-0.22972 -0.69114,-0.47754 -0.61798,-0.5507 0.0732,-0.0732 0.38795,0.003 0.69952,0.17015 0.31157,0.16675 0.70872,0.24533 0.88256,0.17462 0.17728,-0.0721 0.1196,-0.13773 -0.13135,-0.14945 -0.24607,-0.0115 -0.53258,-0.15871 -0.63668,-0.32715 -0.19278,-0.31191 0.25984,-0.24742 1.32593,0.18892 0.3858,0.1579 0.45424,0.12283 0.28732,-0.14724 -0.16217,-0.2624 -0.0991,-0.30846 0.24282,-0.17726 0.25406,0.0975 0.57975,0.17726 0.72377,0.17726 0.14401,0 0.0816,0.18019 -0.13858,0.40041 -0.6032,0.60321 -1.79046,0.71144 -2.63733,0.24044 z m -20.53302,2.78591 c 1.92084,-0.16856 3.39737,-0.45297 4.24519,-0.81769 1.43456,-0.61713 2.88361,-2.07008 2.88361,-2.89136 0,-0.8073 -0.68908,-2.27868 -1.20145,-2.56541 -0.5765,-0.32263 -2.06953,0.10619 -2.66652,0.76586 -0.40234,0.44457 -0.38524,0.49663 0.25972,0.79049 0.37973,0.17301 0.87422,0.59509 1.09887,0.93795 0.57313,0.87471 0.15879,1.51779 -1.529,2.37306 -1.15677,0.58618 -1.87558,0.72594 -4.55456,0.88558 -1.74956,0.10425 -2.98539,0.2076 -2.7463,0.22965 0.23909,0.0221 0.50614,0.22625 0.59344,0.45375 0.0873,0.22751 0.27417,0.34231 0.41525,0.25511 0.14109,-0.0872 1.58187,-0.27484 3.20175,-0.41699 z m -6.82433,0.0912 c -0.32542,-0.0628 -0.92073,-0.0644 -1.32292,-0.004 -0.40218,0.0608 -0.13593,0.1122 0.59168,0.11418 0.7276,0.002 1.05666,-0.0478 0.73124,-0.11057 z m 1.44606,-0.23819 c -0.0879,-0.0879 -0.31612,-0.0973 -0.50712,-0.0209 -0.21107,0.0845 -0.14837,0.14716 0.15985,0.15985 0.27892,0.0115 0.43519,-0.051 0.34727,-0.13896 z m 38.63776,-0.28652 c -0.25296,-0.0662 -0.72921,-0.0686 -1.05833,-0.005 -0.32912,0.0633 -0.12215,0.11747 0.45993,0.12041 0.58209,0.003 0.85137,-0.0488 0.5984,-0.11507 z m -44.52294,-1.63201 c -0.61296,-0.11979 -2.43101,0.47398 -2.79533,0.91296 -0.17423,0.20994 0.38508,0.11964 1.49919,-0.24204 0.98244,-0.31893 1.56203,-0.61895 1.29614,-0.67092 z m 49.87767,0.64169 c 0,-0.2183 -3.66143,-1.26748 -4.0121,-1.14965 -0.19444,0.0653 0.30132,0.27259 1.10168,0.46057 0.80037,0.18799 1.6338,0.44191 1.85209,0.56428 0.42437,0.2379 1.05833,0.31265 1.05833,0.1248 z m -34.84043,-0.95429 c 0.90863,-0.71473 0.68304,-1.18344 -0.97363,-2.02294 -0.74371,-0.37687 -1.21981,-0.52017 -1.05802,-0.31846 0.17554,0.21884 0.20816,0.58018 0.0809,0.89592 -0.29851,0.74062 -0.29418,0.98428 0.0141,0.79375 0.14552,-0.0899 0.26458,-0.39462 0.26458,-0.67707 0,-0.28246 0.1318,-0.51355 0.29289,-0.51355 0.16109,0 0.22731,0.1709 0.14716,0.37978 -0.0802,0.20888 -0.005,0.42669 0.16702,0.48403 0.23928,0.0798 0.23712,0.27023 -0.009,0.81084 -0.40653,0.89224 0.0604,0.96514 1.0742,0.1677 z m -24.31466,-3.22766 c 0.0956,-0.59782 0.53087,-1.90046 0.96727,-2.89475 0.77605,-1.76817 0.79368,-1.90495 0.8039,-6.23836 0.006,-2.4368 -0.008,-5.38304 -0.0316,-6.54721 -0.0401,-2.01827 -0.0589,-2.07977 -0.4055,-1.32291 -0.24799,0.54159 -0.36848,1.92843 -0.37929,4.36562 -0.0171,3.85173 -0.36283,5.85222 -1.46331,8.46684 -0.4712,1.11952 -0.71582,2.30339 -0.83341,4.03338 l -0.16646,2.44874 0.6673,-0.6122 c 0.40661,-0.37305 0.73519,-1.03681 0.8411,-1.69915 z m 65.85027,-0.53596 c -0.0788,-0.76231 -0.42683,-2.09116 -0.7734,-2.953 -0.34656,-0.86183 -0.63011,-1.84589 -0.63011,-2.1868 0,-0.34091 -0.17099,-1.30265 -0.37996,-2.1372 -0.20898,-0.83454 -0.49458,-3.36283 -0.63467,-5.6184 -0.38106,-6.1353 -0.78471,-6.49659 -0.88683,-0.79375 -0.15433,8.61776 -0.15284,8.63422 0.95898,10.57627 0.5393,0.942 1.07543,2.22069 1.19142,2.84153 0.22172,1.18685 0.72205,2.01324 1.08359,1.78979 0.11784,-0.0728 0.14978,-0.75612 0.071,-1.51844 z m -63.71289,0.33377 c 1.07301,-0.63649 1.20386,-0.78558 0.69269,-0.78924 -0.69036,-0.005 -2.41248,0.95159 -2.41248,1.33998 0,0.38543 0.30766,0.2869 1.71979,-0.55074 z m 14.66636,-0.50387 c 0.78803,-1.10668 0.67317,-1.30334 -0.24657,-0.42217 -0.80341,0.76972 -0.99685,1.19062 -0.54718,1.19062 0.13561,0 0.4928,-0.3458 0.79375,-0.76845 z m 47.47229,0.0481 c -0.23173,-0.92328 -1.01013,-1.55337 -2.34131,-1.89519 -1.29784,-0.33326 -1.79138,0.0315 -0.6707,0.49572 0.4485,0.18577 1.31833,0.73759 1.93295,1.22625 0.61462,0.48867 1.14953,0.88964 1.18868,0.89105 0.0392,0.001 -0.0102,-0.32161 -0.10962,-0.71783 z m -38.00769,-1.06554 c 0.92043,-0.47294 1.88017,-0.86826 2.13274,-0.87849 0.38833,-0.0157 0.37753,-0.0537 -0.07,-0.24599 -0.74569,-0.32043 -4.03574,-0.31815 -4.63622,0.003 -0.50733,0.27152 -0.97232,1.86532 -0.68149,2.33589 0.17897,0.28958 0.72136,0.0872 3.25492,-1.21462 z m 22.90904,1.05652 c -0.26034,-0.25565 -0.74635,-0.69546 -1.08003,-0.97735 -0.6003,-0.50711 -0.60471,-0.50709 -0.41816,0.002 0.18095,0.49362 0.16722,0.49566 -0.34081,0.0507 -0.29115,-0.25498 -0.60966,-0.3833 -0.7078,-0.28516 -0.23795,0.23795 1.94456,1.67222 2.5468,1.67366 0.45471,0.001 0.45471,-0.0171 0,-0.4637 z m -45.94252,-0.85709 c 1.07094,-0.001 3.57093,-1.12102 3.09446,-1.38639 -0.12275,-0.0684 -0.93756,-0.14562 -1.81069,-0.17166 -1.97946,-0.059 -3.27169,0.54338 -3.75588,1.75094 l -0.34296,0.85534 0.8588,-0.52362 c 0.49012,-0.29884 1.32993,-0.52405 1.95627,-0.52461 z m 38.59743,0.0666 c -0.30852,-1.22924 -0.60758,-1.39275 -2.4872,-1.35985 -0.96445,0.0169 -1.51542,0.0883 -1.22438,0.1587 0.29105,0.0704 0.7673,0.34634 1.05834,0.61319 0.65438,0.59999 1.9944,1.31027 2.47608,1.31245 0.25993,0.001 0.30897,-0.19934 0.17716,-0.72449 z m 10.0667,-0.1062 c 0.40103,-0.77551 0.40002,-0.82065 -0.0148,-0.66146 -0.24489,0.094 -0.82247,0.17463 -1.28351,0.17922 l -0.83826,0.008 0.74236,0.65309 c 0.4083,0.35921 0.79219,0.6531 0.8531,0.6531 0.0609,0 0.30443,-0.37454 0.54115,-0.83232 z m -35.77728,-1.14691 c 0.13308,-0.34678 0.0688,-0.36601 -0.3945,-0.11806 -0.33663,0.18016 -1.0231,0.22579 -1.75215,0.11646 l -1.19867,-0.17975 0.63362,0.7798 0.63362,0.77979 0.95956,-0.48198 c 0.52775,-0.26509 1.03109,-0.66841 1.11852,-0.89626 z m -16.31987,-3.70931 c 0.62121,-1.77758 0.63645,-1.97981 0.37866,-5.02708 -0.14773,-1.74625 -0.46807,-3.88938 -0.71187,-4.7625 -0.2438,-0.87313 -0.58285,-2.36141 -0.75345,-3.3073 -0.3075,-1.70493 -0.31175,-1.68006 -0.49171,2.87916 -0.0998,2.52941 -0.10423,6.73298 -0.01,9.34126 0.19163,5.29033 0.0692,5.22277 1.58812,0.87646 z m 66.16549,-4.96094 c 0.0325,-4.83857 -0.0383,-8.9508 -0.15731,-9.13831 -0.26999,-0.42522 -1.36341,3.89156 -1.36293,5.38078 1.9e-4,0.57505 -0.1338,2.00554 -0.29775,3.17885 -0.25251,1.8071 -0.23233,2.3595 0.13196,3.6126 0.23652,0.81361 0.43004,1.7464 0.43004,2.07287 0,0.46469 1.0166,3.69061 1.16304,3.69061 0.0186,0 0.0604,-3.95883 0.093,-8.7974 z m -1.39743,-8.13594 c 0.21937,-2.11005 0.52782,-6.33214 0.68545,-9.38243 0.15763,-3.05028 0.38085,-6.050481 0.49605,-6.667106 0.18843,-1.008597 0.0941,-8.569033 -0.10941,-8.772575 -0.046,-0.04598 -0.16466,1.204167 -0.26374,2.778112 -0.29762,4.728183 -0.60191,7.280402 -1.05094,8.814839 -0.32966,1.12652 -0.45452,3.12853 -0.55275,8.86354 -0.0698,4.07458 -0.0373,8.06318 0.0721,8.86354 0.18879,1.3802 0.20228,1.40066 0.2617,0.39688 0.0344,-0.58209 0.24213,-2.78474 0.4615,-4.8948 z m -64.39899,-10.05424 c -0.2799,-1.52797 -0.75996,-3.949996 -1.06679,-5.382288 -0.30684,-1.432291 -0.65978,-3.96938 -0.78431,-5.637975 -0.12454,-1.668595 -0.2988,-3.106171 -0.38724,-3.194619 -0.16009,-0.160091 -0.28949,5.187448 -0.17431,7.203427 0.0333,0.582083 0.23518,1.891771 0.4487,2.910417 0.21353,1.018648 0.5116,4.471458 0.66238,7.672918 0.34073,7.23475 0.30126,6.84507 0.9092,8.97584 l 0.50676,1.77616 0.19726,-5.77288 c 0.17455,-5.10828 0.13867,-6.0927 -0.31165,-8.551 z m 1.21409,9.16738 c 0.23413,-0.99705 0.43183,-2.78299 0.43934,-3.96875 0.0381,-6.01215 -0.19211,-17.0531 -0.36765,-17.634043 -0.1458,-0.482523 -0.20836,-0.232016 -0.23126,0.926041 -0.0173,0.873125 -0.1482,2.420938 -0.29096,3.439584 -0.67413,4.810228 -0.72146,5.932218 -0.32661,7.742148 0.29901,1.37062 0.36097,3.06756 0.26796,7.3391 -0.0665,3.05593 -0.075,5.19906 -0.0187,4.7625 0.0562,-0.43657 0.2938,-1.60953 0.52792,-2.60658 z m 62.02975,-8.37363 c 0.0107,-4.06797 -0.10196,-7.60976 -0.26849,-8.43663 -0.15785,-0.783847 -0.29465,-2.034003 -0.30399,-2.778125 -0.009,-0.744122 -0.17277,-2.067325 -0.36318,-2.94045 l -0.34618,-1.5875 -0.0587,3.704167 c -0.13359,8.425468 0.0576,15.050888 0.53065,18.388538 0.32009,2.25847 0.37832,2.41957 0.57382,1.5875 0.11966,-0.50933 0.22591,-4.0812 0.2361,-7.9375 z m 1.91967,7.67291 c 0.11955,-0.65151 0.0928,-0.80838 -0.0902,-0.52916 -0.14309,0.21828 -0.26199,0.68461 -0.26422,1.03628 -0.005,0.84922 0.14506,0.63398 0.35445,-0.50712 z m -1.07574,-19.635214 c -0.0307,-3.534428 -0.0605,-6.575261 -0.0661,-6.757402 -0.006,-0.182145 -0.60567,-0.75886 -1.33327,-1.281592 -0.72761,-0.522732 -1.33232,-1.147611 -1.34381,-1.388623 -0.0115,-0.241009 -0.0771,-0.300963 -0.14575,-0.133228 -0.13773,0.336375 0.91226,2.737736 1.19706,2.737736 0.0981,0 0.39138,0.360534 0.65168,0.801187 0.41675,0.705509 0.46992,1.462067 0.4452,6.335348 -0.027,5.318873 0.14242,7.561428 0.49525,6.556097 0.0856,-0.243809 0.13047,-3.335094 0.0998,-6.869523 z m -64.10972,1.005263 0.004,-5.268504 0.83457,-1.300565 c 0.57776,-0.900364 0.86933,-1.721654 0.94755,-2.668998 l 0.11298,-1.36843 -1.14599,1.852083 -1.14599,1.852084 -0.0614,6.482291 c -0.0402,4.248306 0.0267,6.345518 0.19439,6.085417 0.14246,-0.221028 0.2576,-2.731246 0.25986,-5.665378 z m 0.92653,-11.070417 c 0.22,-1.054532 0.39345,-1.976861 0.38544,-2.049621 -0.0448,-0.407139 -1.01623,2.362363 -1.02856,2.932464 -0.0378,1.749703 -1.05207,0.710811 -1.0647,-1.090584 -0.005,-0.687501 -0.24319,-1.648878 -0.55762,-2.248958 l -0.54922,-1.048131 0.11397,1.190625 c 0.0627,0.654844 0.39527,2.221323 0.73907,3.481065 l 0.62511,2.290439 0.46825,-0.769985 c 0.25755,-0.423492 0.64826,-1.632783 0.86826,-2.687314 z m 64.01652,-1.211916 c -0.11406,-1.261102 -0.25646,-2.054789 -0.31644,-1.763747 -0.06,0.291042 -0.27757,1.039344 -0.48352,1.662893 -0.45921,1.390311 -0.48096,2.973268 -0.0537,3.910917 l 0.32073,0.703916 0.37018,-1.110533 c 0.27778,-0.833337 0.31841,-1.682858 0.16279,-3.403446 z m -2.31084,2.132607 c -0.23519,-0.259884 -0.61767,-0.885692 -0.84995,-1.390684 l -0.42233,-0.91817 0.1313,1.004006 c 0.0803,0.614196 0.36814,1.196025 0.74133,1.498579 0.73403,0.595109 0.99782,0.467238 0.39965,-0.193731 z m -61.80307,-3.455394 c 0.23967,-0.894599 0.23162,-1.461466 -0.0366,-2.579688 -0.60175,-2.508374 -0.81921,-1.846468 -1.18488,3.606528 -0.17446,2.6016 0.082,3.219211 0.57482,1.384099 0.18674,-0.695421 0.47776,-1.780342 0.6467,-2.410939 z m 0.67857,2.022972 c -0.0845,-0.211066 -0.14716,-0.148373 -0.15986,0.159853 -0.0115,0.278914 0.0511,0.435184 0.13897,0.347266 0.0879,-0.08792 0.0973,-0.316124 0.0209,-0.507119 z m 59.53124,-0.264583 c -0.0845,-0.211066 -0.14715,-0.148373 -0.15985,0.159853 -0.0115,0.278913 0.051,0.435184 0.13897,0.347266 0.0879,-0.08792 0.0973,-0.316124 0.0209,-0.507119 z m 0.27097,-2.130118 c -0.0633,-0.329118 -0.11747,-0.122148 -0.1204,0.459936 -0.003,0.582083 0.0488,0.851363 0.11507,0.598397 0.0662,-0.252965 0.0686,-0.729215 0.005,-1.058333 z m 3.70377,-3.442669 c -0.0631,-0.327421 -0.11467,-0.05953 -0.11467,0.595313 0,0.654844 0.0516,0.922734 0.11467,0.595312 0.0631,-0.327421 0.0631,-0.863203 0,-1.190625 z m -65.16569,-1.94701 c -0.11565,-0.798708 -0.0184,-1.360255 0.36657,-2.116667 0.64663,-1.270553 1.14327,-3.013926 0.85858,-3.013926 -0.23495,0 -0.68546,1.036534 -0.97747,2.248958 l -0.19116,0.79375 -0.18845,-0.661459 c -0.10364,-0.363802 -0.20031,-1.230741 -0.21481,-1.926533 -0.0172,-0.824503 -0.15616,-1.314875 -0.39903,-1.408074 -0.36708,-0.140863 -0.81654,-1.053294 -1.0292,-2.089351 -0.0597,-0.291041 -0.0652,0.758861 -0.0121,2.333117 0.0851,2.52407 0.17432,2.976835 0.75523,3.83173 0.53901,0.793219 0.66289,1.306989 0.6815,2.826258 0.019,1.546892 0.0632,1.724327 0.26527,1.063062 0.13339,-0.436563 0.17169,-1.282952 0.0851,-1.880865 z m 63.40483,-1.08676 c -0.0945,-1.486673 -0.27238,-2.79636 -0.39521,-2.910417 -0.12283,-0.114056 -0.14968,0.179578 -0.0597,0.652521 0.11256,0.591349 0.0625,0.859748 -0.16044,0.859422 -0.38889,-5.29e-4 -1.77932,-2.128918 -1.77932,-2.723634 0,-0.230814 -0.10271,-0.483145 -0.22826,-0.560734 -0.27436,-0.169567 0.30366,2.436969 0.70794,3.192373 0.15685,0.293076 0.46758,0.684241 0.69051,0.869254 0.22293,0.185015 0.60321,1.04167 0.84508,1.903679 0.24187,0.862008 0.46484,1.534277 0.4955,1.493933 0.0307,-0.04035 -0.0216,-1.289725 -0.11615,-2.776397 z m -60.99518,-2.21924 c 0.0991,-0.586576 0.10883,-1.137853 0.0216,-1.225061 -0.0872,-0.08721 -0.15856,0.07285 -0.15856,0.355679 0,0.282829 -0.47625,1.148067 -1.05833,1.922746 -1.39121,1.851522 -1.39901,2.682042 -0.0108,1.147278 0.67496,-0.746212 1.08749,-1.49893 1.20604,-2.200642 z m -0.5352,-0.733248 c 0.11852,-0.391252 0.0917,-0.567485 -0.071,-0.466931 -0.14374,0.08883 -0.3203,0.469958 -0.39237,0.846944 -0.15453,0.808392 0.18857,0.526984 0.46333,-0.380013 z m 60.0656,-2.357251 c -0.67911,-1.35206 -2.63386,-3.239634 -3.33834,-3.223596 -0.26133,0.0059 -0.22535,0.117693 0.12284,0.381422 1.67148,1.266053 2.83829,2.649079 3.2693,3.875134 0.29501,0.839201 0.50095,1.151272 0.55005,0.833498 0.0432,-0.279377 -0.22857,-1.119283 -0.60385,-1.866458 z m -60.60679,-0.877956 c 1.02138,-1.5434 2.55297,-2.170376 4.85785,-1.988617 l 1.77015,0.13959 -1.45521,-0.266241 c -2.86134,-0.523503 -4.72103,0.251241 -5.83244,2.429788 -0.28466,0.557981 -0.50537,1.346676 -0.49048,1.752655 0.0263,0.717612 0.0328,0.714119 0.23195,-0.125563 0.11267,-0.475039 0.52586,-1.348764 0.91818,-1.941612 z m 61.67649,0.437061 c -0.67861,-2.334329 -2.96958,-4.081481 -4.55443,-3.473318 -0.24322,0.09333 -0.86919,0.236821 -1.39106,0.318867 -1.69528,0.266527 -1.26289,0.412954 0.66031,0.223615 1.46958,-0.144679 2.04951,-0.09358 2.68862,0.236923 1.09182,0.564603 1.86848,1.600308 2.0801,2.773909 0.21602,1.197981 0.68054,2.147413 0.83051,1.697492 0.0595,-0.178627 -0.0818,-0.978497 -0.31405,-1.777488 z m -59.99111,-0.513305 c 0.24458,-0.275821 0.80189,-0.722126 1.23845,-0.991788 0.43656,-0.269662 0.63661,-0.49074 0.44455,-0.491284 -0.19207,-5.56e-4 -0.86153,0.351499 -1.4877,0.782317 -0.62618,0.430819 -1.18341,0.738638 -1.2383,0.684044 -0.0549,-0.05459 -0.13166,0.396589 -0.17059,1.002631 l -0.0708,1.101894 0.41984,-0.79316 c 0.23091,-0.436238 0.61996,-1.018832 0.86454,-1.294654 z m -3.46325,-2.205764 c -0.0573,-0.548949 -0.1051,-0.164651 -0.10627,0.853995 -10e-4,1.018645 0.0457,1.467785 0.10414,0.998088 0.0585,-0.469696 0.0594,-1.303134 0.002,-1.852083 z m 1.12581,-0.0059 c 0.002,-0.03638 -0.17458,-0.06615 -0.39286,-0.06615 -0.29956,0 -0.39254,0.308164 -0.37918,1.256771 l 0.0177,1.256771 0.37516,-1.190625 c 0.20634,-0.654844 0.37697,-1.220391 0.37918,-1.256771 z m 15.54516,1.30995 c 0.57117,-0.321217 1.08196,-1.509935 0.779,-1.812898 -0.0812,-0.08117 -0.48242,0.03023 -0.89168,0.24756 -0.40925,0.217324 -1.20263,0.639778 -1.76307,0.938785 -0.90991,0.485455 -1.38252,0.533102 -4.41505,0.445108 -2.39175,-0.0694 -3.47245,-0.0063 -3.65434,0.213299 -0.38048,0.459395 9.12577,0.428946 9.94514,-0.03185 z m -14.46318,-1.549526 c 0.46223,-0.968511 1.24222,-2.287318 1.73331,-2.930683 0.49109,-0.643364 0.89289,-1.450539 0.89289,-1.793721 0,-0.343183 0.11612,-0.929376 0.25804,-1.302651 0.17106,-0.449937 0.16826,-0.678682 -0.008,-0.678682 -0.28444,0 -0.28364,-0.0021 -0.74592,1.933726 -0.16906,0.707948 -0.76779,1.8868 -1.34986,2.657742 -0.98705,1.307335 -1.85812,2.995975 -1.85812,3.602116 0,0.579365 0.26776,0.209804 1.07797,-1.487847 z m 4.2137,1.364054 c 0.18374,-0.221387 0.21239,-0.396875 0.0648,-0.396875 -0.14552,0 -0.4128,0.178594 -0.59396,0.396875 -0.18373,0.221387 -0.21238,0.396875 -0.0648,0.396875 0.14552,0 0.4128,-0.178594 0.59396,-0.396875 z m 47.22812,-0.0028 1.85209,-0.357857 -2.398,0.148408 c -2.58025,0.159687 -3.97085,-0.219784 -5.37522,-1.466805 -0.66026,-0.586287 -1.08062,-0.558279 -0.98902,0.0659 0.0996,0.678423 0.69273,1.147768 1.82195,1.441642 2.32926,0.606177 2.75164,0.620182 5.0882,0.168715 z m 8.33438,0.299764 c 0,-0.05494 -0.20836,-0.263302 -0.46302,-0.463021 -0.41965,-0.329108 -0.42901,-0.31975 -0.0999,0.09989 0.34565,0.440729 0.56292,0.580887 0.56292,0.363126 z m 1.09612,-1.413535 c -0.28726,-0.563085 -0.9531,-1.494714 -1.47962,-2.070285 -1.33012,-1.454008 -1.75404,-2.333441 -1.92546,-3.994437 -0.0814,-0.788258 -0.26273,-1.504146 -0.40304,-1.590864 -0.14503,-0.08963 -0.19405,0.05642 -0.11361,0.338487 0.0778,0.272885 0.22006,1.115779 0.31609,1.873099 0.10766,0.849086 0.51331,1.939452 1.05817,2.844271 0.48597,0.807029 0.80184,1.467326 0.70194,1.467326 -0.0999,0 -0.33035,-0.238125 -0.51211,-0.529167 -0.18175,-0.291042 -0.44852,-0.529167 -0.59281,-0.529167 -0.14428,-10e-7 -0.26234,0.238124 -0.26234,0.529166 0,0.360436 0.18982,0.542017 0.59531,0.569466 0.32743,0.02216 0.77391,0.05193 0.99219,0.06615 0.21828,0.01422 0.75406,0.584161 1.19063,1.266546 0.91591,1.431644 1.20589,1.27114 0.43466,-0.240588 z m -53.41244,0.546129 c -0.17913,-0.07247 -0.53632,-0.07689 -0.79375,-0.0098 -0.25743,0.06708 -0.11087,0.126381 0.3257,0.131773 0.43656,0.0054 0.64718,-0.0495 0.46805,-0.12197 z m 46.953,0.0137 c -0.0879,-0.08792 -0.31613,-0.09732 -0.50712,-0.02089 -0.21107,0.08446 -0.14838,0.147156 0.15985,0.159852 0.27891,0.01149 0.43518,-0.05105 0.34727,-0.138964 z m -52.58043,-1.576532 c 0,-0.319031 0.1786,-0.728277 0.39688,-0.909434 0.42519,-0.352879 0.54797,-1.322917 0.16745,-1.322917 -0.24918,0 -1.27654,1.471315 -1.98508,2.84289 l -0.44349,0.858514 0.93212,-0.444497 c 0.64783,-0.308927 0.93212,-0.621415 0.93212,-1.024556 z m 51.19687,1.22769 c 0.58583,-0.176805 -0.0379,-0.247971 -2.38125,-0.271675 -2.21662,-0.02242 -3.37466,-0.146254 -3.83645,-0.410241 -1.0019,-0.572735 -1.31241,-0.469154 -0.35098,0.117078 0.4618,0.281587 1.35477,0.549032 1.98437,0.594324 2.79541,0.201093 3.84263,0.194358 4.58431,-0.02949 z m -39.51837,-0.564563 0.62463,-0.544106 -0.66146,0.339197 c -0.3638,0.186559 -1.37584,0.413251 -2.24896,0.50376 l -1.5875,0.164563 1.62433,0.04035 c 1.29814,0.03224 1.74977,-0.06892 2.24896,-0.50376 z m 48.11733,-0.117353 c 0,-0.487582 -0.1407,-0.661458 -0.53526,-0.661458 -0.51014,0 -0.51492,0.03105 -0.10187,0.661458 0.23838,0.363802 0.47925,0.661458 0.53527,0.661458 0.056,0 0.10186,-0.297656 0.10186,-0.661458 z m -57.15,-1.448405 c 0,-0.08733 -0.23812,-0.176715 -0.52916,-0.198639 -0.29104,-0.02192 -0.52917,-0.01671 -0.52917,0.01159 0,0.0283 -0.11641,0.457352 -0.25869,0.953455 l -0.25869,0.902006 0.78786,-0.754816 c 0.43332,-0.41515 0.78785,-0.826267 0.78785,-0.913596 z m 0.45067,0.894033 c 0.26146,-0.377665 0.68374,-0.913447 0.9384,-1.190625 0.25466,-0.277179 0.36019,-0.503961 0.23451,-0.503961 -0.12567,0 -0.52418,-0.295681 -0.88557,-0.657069 l -0.65707,-0.657068 -0.29507,0.64762 c -0.32311,0.709141 -0.0405,1.085442 0.62368,0.830558 0.21131,-0.08109 0.3842,-0.08745 0.3842,-0.01414 0,0.251921 -0.91909,1.570156 -1.31927,1.892202 -0.35298,0.284057 -0.34702,0.323313 0.0502,0.330729 0.24787,0.0046 0.66459,-0.300584 0.92604,-0.678249 z m 7.86047,0.384527 c 0.52212,-0.237895 0.61052,-0.400424 0.41573,-0.764388 -0.13606,-0.254237 -0.22051,-1.376121 -0.18765,-2.493074 0.0588,-1.999983 0.0466,-2.041615 -0.80254,-2.741342 -0.47425,-0.390785 -0.86121,-0.859346 -0.85989,-1.041247 0.005,-0.659462 -0.41511,-0.28074 -1.45283,1.310466 -0.58208,0.89255 -1.22434,1.677972 -1.42724,1.745381 -0.20291,0.06741 0.16562,-0.637229 0.81894,-1.565861 1.53147,-2.176836 1.58871,-2.285049 1.30234,-2.462036 -0.13235,-0.0818 -0.48574,0.372726 -0.78532,1.010047 -0.29957,0.637322 -1.20526,1.819348 -2.01264,2.626724 -1.35055,1.350555 -1.66789,1.76705 -1.34637,1.76705 0.0669,0 0.42703,-0.327422 0.80036,-0.727604 0.46147,-0.494674 0.74051,-0.629287 0.87162,-0.420492 0.26396,0.42035 2.30132,0.03249 2.95985,-0.563475 0.73318,-0.663517 1.097,-0.31189 0.75038,0.725232 -0.40828,1.22164 -1.21651,2.010574 -2.26037,2.206402 l -0.90528,0.169832 0.74916,0.493934 c 0.41203,0.271664 1.01705,0.494719 1.34447,0.495678 0.32742,9.59e-4 0.59531,0.120806 0.59531,0.266326 0,0.35121 0.61407,0.335106 1.43197,-0.03755 z m 35.86529,0.05807 c -0.51426,-0.100769 -1.07981,-0.272697 -1.25677,-0.382063 -0.17696,-0.109367 -0.32174,-0.08268 -0.32174,0.0593 0,0.36172 0.50785,0.526636 1.5875,0.515515 l 0.92604,-0.0095 -0.93503,-0.183216 z m 3.71316,-0.07822 c 0,-0.253897 -0.23689,-0.238814 -0.92605,0.05896 -0.45662,0.197303 -0.42942,0.223113 0.19844,0.188279 0.40018,-0.0222 0.72761,-0.133462 0.72761,-0.247243 z m -49.67844,-0.595744 c 0.0687,-0.359398 0.023,-0.590497 -0.10145,-0.513552 -0.21922,0.135488 -0.32964,1.167003 -0.12491,1.167003 0.0558,0 0.15765,-0.294053 0.22636,-0.653451 z m 3.69497,0.388868 c 0.16572,0 0.14313,-0.159309 -0.0567,-0.400138 -0.25259,-0.304351 -0.41869,-0.328264 -0.69386,-0.09989 -0.4952,0.410985 -0.45683,0.857711 0.0568,0.660631 0.23018,-0.08833 0.54242,-0.160599 0.69385,-0.160599 z m 2.22299,-0.433622 c -0.71218,-0.370461 -1.59806,-0.728545 -1.96863,-0.795742 l -0.67376,-0.122177 0.6457,0.636684 c 0.79164,0.780576 1.1783,0.935248 2.3655,0.946233 l 0.92604,0.0086 -1.29485,-0.673567 z m 9.45824,-0.224474 c 0.81548,-0.720315 0.91186,-0.892534 0.48135,-0.860105 -0.29606,0.0223 -0.48684,0.123792 -0.42396,0.225533 0.0629,0.101742 -0.10251,0.12828 -0.36754,0.05897 -0.26503,-0.06931 -0.63696,0.06086 -0.82651,0.289258 -0.18956,0.228398 -0.25596,0.415269 -0.14756,0.415269 0.1084,0 0.0489,0.178594 -0.13229,0.396875 -0.64823,0.781066 0.36118,0.406379 1.41651,-0.525804 z m 25.42506,0.459659 c -0.22579,-0.254662 -0.62157,-0.747813 -0.87952,-1.095891 -0.25795,-0.348079 -0.61356,-0.584683 -0.79024,-0.525789 -0.36743,0.122477 1.31291,2.0847 1.78522,2.0847 0.17302,0 0.12526,-0.191503 -0.11546,-0.46302 z m 11.56355,0.198437 c 0.14401,0 0.0832,-0.178594 -0.13503,-0.396875 -0.45025,-0.450246 -1.6427,-0.532246 -1.89127,-0.130054 -0.1937,0.31341 0.89963,0.81101 1.41209,0.642676 0.1938,-0.06366 0.47019,-0.115747 0.61421,-0.115747 z m -39.0379,-0.376213 c 0.0794,-0.206918 0.17096,-0.53434 0.20346,-0.727605 0.0325,-0.193264 0.27901,-0.80627 0.54779,-1.362235 0.33642,-0.695879 0.55354,-0.905916 0.69682,-0.674091 0.11447,0.185215 0.13003,0.461501 0.0346,0.61397 -0.35079,0.560373 -0.27301,0.959392 0.16412,0.841881 0.24267,-0.06523 0.7607,-0.189481 1.15119,-0.276105 0.91409,-0.20278 1.14854,-0.972627 0.61211,-2.009958 -0.3872,-0.74876 -0.38835,-0.947759 -0.013,-2.238911 0.22658,-0.779409 0.33192,-1.625705 0.23409,-1.880657 -0.1214,-0.316354 -0.0796,-0.402801 0.13166,-0.272239 0.41445,0.256142 0.38994,0.924024 -0.0831,2.264783 -0.35112,0.995159 -0.34854,1.198215 0.0243,1.919304 0.22935,0.443522 0.36067,1.101078 0.29183,1.461237 -0.12209,0.638634 -0.113,0.642647 0.36742,0.162226 0.45457,-0.45457 0.47041,-0.686522 0.2051,-3.003893 -0.15813,-1.381207 -0.42716,-2.659287 -0.59783,-2.840177 -0.17068,-0.18089 -1.01887,-0.459874 -1.88487,-0.619963 -0.866,-0.160089 -1.89846,-0.458572 -2.29435,-0.663296 -0.78222,-0.404497 -1.96164,-0.495401 -2.1647,-0.166842 -0.14284,0.231113 0.4113,2.70946 0.8601,3.846738 0.40318,1.021668 0.36835,2.285019 -0.0996,3.611231 -0.2729,0.773476 -0.31437,1.263149 -0.13532,1.597706 0.42487,0.793877 1.50465,1.051384 1.74813,0.416896 z m 36.02864,-0.320249 c 0.76829,-0.34455 1.57899,-0.626455 1.80155,-0.626455 0.22256,0 0.33288,-0.11613 0.24515,-0.258066 -0.31279,-0.506115 -2.57823,0.123182 -3.64204,1.011692 -0.27795,0.232148 -0.46302,0.270573 -0.46302,0.09613 0,-0.159824 0.25294,-0.467758 0.5621,-0.684299 0.54783,-0.383717 0.53732,-0.398359 -0.4142,-0.576864 -0.74798,-0.140322 -1.12693,-0.421778 -1.62043,-1.203535 -0.35428,-0.561209 -0.64414,-1.082278 -0.64414,-1.15793 0,-0.340946 2.09542,-0.07554 3.13775,0.397428 1.60261,0.727203 1.69377,0.665217 0.66825,-0.45439 -0.49257,-0.53776 -0.89558,-1.068688 -0.89558,-1.179841 0,-0.111152 -0.31488,-0.723399 -0.69973,-1.360548 -0.63926,-1.058329 -0.75342,-1.133582 -1.32086,-0.87068 -0.35136,0.16279 -0.62201,0.520736 -0.62318,0.824168 -10e-4,0.295016 -0.37543,0.864014 -0.83176,1.264439 -0.78592,0.689633 -0.82095,0.800929 -0.66376,2.109439 0.0913,0.759767 0.16697,1.687818 0.16824,2.062335 0.002,0.561325 0.17658,0.728785 0.99448,0.953307 1.556,0.427139 2.73027,0.331248 4.24118,-0.346335 z m -6.59856,-0.225148 c 0.29586,-0.280047 0.27717,-0.581299 -0.11283,-1.818511 -0.40392,-1.281374 -0.42514,-1.712403 -0.15616,-3.172188 0.1712,-0.92913 0.31127,-2.010048 0.31127,-2.40204 0,-0.407768 0.11321,-0.642748 0.26458,-0.549192 0.37544,0.23203 0.32951,-0.755281 -0.0529,-1.137709 -0.44204,-0.442032 -1.80205,-0.39691 -2.3259,0.07717 -0.23986,0.217068 -1.07086,0.515047 -1.84667,0.662177 -1.42532,0.270305 -2.12452,0.640429 -2.12452,1.124616 0,0.154101 0.15704,0.134258 0.37606,-0.04752 0.30809,-0.255691 0.3508,-0.215484 0.23627,0.222454 -0.0769,0.294006 0.1035,1.044951 0.40085,1.668767 0.49844,1.045678 0.51217,1.237474 0.17588,2.457128 l -0.36476,1.322916 0.0317,-1.5875 c 0.0181,-0.905372 -0.14909,-2.042251 -0.38907,-2.645833 l -0.42079,-1.058333 -0.18391,0.727012 c -0.10115,0.399857 -0.11518,0.90612 -0.0312,1.125027 0.084,0.218908 0.0515,0.940078 -0.0723,1.602599 -0.20087,1.075221 -0.16448,1.242292 0.33883,1.555711 0.31012,0.19312 1.04568,0.422255 1.63457,0.509189 l 1.07071,0.158061 -0.0986,-0.986716 -0.0986,-0.986717 0.56299,0.888891 c 0.30964,0.488889 0.74972,1.355571 0.97794,1.925959 0.34663,0.866324 0.50773,1.00934 0.97844,0.868651 0.30992,-0.09263 0.72306,-0.319461 0.91809,-0.504069 z m 10.93209,0.328509 c 0.91036,0.910354 0.79017,-0.208958 -0.14888,-1.38665 -0.76706,-0.96198 -1.46978,-0.696032 -0.81229,0.307416 0.23781,0.362953 0.37948,0.712831 0.3148,0.777507 -0.0647,0.06468 -0.31506,-0.183779 -0.55641,-0.552123 -0.49913,-0.761769 -1.0295,-0.905651 -0.76191,-0.206695 0.27738,0.724493 1.22263,1.401159 1.44798,1.036539 0.14004,-0.226583 0.27227,-0.220439 0.51671,0.024 z m -58.08346,-2.87674 c 0.16012,-0.201642 0.35927,-1.472613 0.44255,-2.82438 0.1606,-2.606837 -0.33168,-4.818283 -1.07257,-4.818283 -0.26716,0 -0.28261,0.124258 -0.0658,0.529324 0.322,0.601668 0.25271,7.005094 -0.0706,6.521126 -0.11153,-0.166966 -0.19296,-1.315606 -0.18096,-2.552533 0.0373,-3.846433 0.0164,-4.10415 -0.30641,-3.781305 -0.16926,0.169258 -0.34415,1.703432 -0.41358,3.627969 -0.11076,3.070064 -0.077,3.389761 0.42557,4.028653 0.30023,0.381679 0.56263,1.064859 0.58312,1.518177 0.0239,0.528916 0.0964,0.339403 0.2024,-0.528956 0.0908,-0.744244 0.29615,-1.51815 0.45628,-1.719792 z m 1.9242,0.595611 c 0.60306,-2.184763 1.62317,-3.740357 2.45281,-3.740357 0.42017,0 0.48137,-0.08041 0.26219,-0.344497 -0.40429,-0.487146 -0.0865,-1.494086 0.79186,-2.50898 1.366,-1.578352 0.91401,-4.762078 -0.89179,-6.28156 -0.47827,-0.402434 -0.83981,-0.773871 -0.80343,-0.825414 0.30816,-0.436601 -0.0557,-1.138324 -0.73649,-1.42031 -0.75939,-0.314553 -0.86984,-0.275382 -2.05052,0.727227 -1.37081,1.164074 -1.62587,2.095798 -0.86799,3.17074 0.59855,0.84896 0.69385,0.749474 0.58562,-0.611337 -0.0532,-0.66823 0.0287,-1.340295 0.18188,-1.493478 0.4524,-0.4524 0.64142,0.873039 0.35177,2.466675 -0.29225,1.607896 -0.057,2.3036 1.1553,3.416767 l 0.72037,0.661459 -0.14133,-0.79375 c -0.0777,-0.436563 -0.21883,-1.091407 -0.31356,-1.455209 -0.16301,-0.625993 -0.14918,-0.621467 0.25787,0.08442 0.23656,0.410232 0.40374,1.065076 0.3715,1.455208 -0.0759,0.918038 0.28,2.658062 0.58172,2.844536 0.45837,0.28329 0.2248,0.642921 -0.41756,0.642921 -0.86415,0 -1.17626,0.630304 -1.87506,3.78671 -0.65874,2.975421 -0.41447,3.113938 0.38484,0.218229 z m 0.42258,-13.265357 c 0.0899,-0.145521 0.21602,-0.264583 0.28019,-0.264583 0.0642,0 0.11668,0.119062 0.11668,0.264583 0,0.145521 -0.12609,0.264584 -0.2802,0.264584 -0.15411,0 -0.20661,-0.119063 -0.11667,-0.264584 z m 45.68027,13.515964 c -0.12104,-1.794599 -0.2747,-1.599916 -0.36554,0.463115 -0.0506,1.149109 0.007,1.533777 0.19313,1.279844 0.14601,-0.199678 0.22359,-0.98401 0.17241,-1.742959 z m 14.51995,1.366848 c -0.29562,-0.400182 -0.66581,-1.441979 -0.82266,-2.315104 -0.15684,-0.873125 -0.43278,-2.055962 -0.61319,-2.628528 -0.33985,-1.078584 -1.03552,-1.753202 -1.40325,-1.360787 -0.11612,0.123917 -0.0795,0.272728 0.0814,0.330693 0.16091,0.05797 0.56258,0.9644 0.89261,2.014298 0.78197,2.487585 1.78017,4.687032 2.12718,4.687032 0.15146,0 0.0335,-0.327421 -0.26211,-0.727604 z m -47.13647,-1.322916 c -0.0324,-1.747663 -0.0376,-1.760421 -0.24497,-0.595313 -0.29762,1.672653 -0.2936,2.38125 0.0135,2.38125 0.15353,0 0.25068,-0.749623 0.23146,-1.785937 z m 42.9984,-0.801836 c -0.50474,-0.861273 -0.73379,-1.629282 -0.74625,-2.50227 -0.01,-0.692773 -0.038,-1.25967 -0.0625,-1.259772 -1.40196,-0.0058 -1.06115,2.867691 0.57006,4.806266 0.36579,0.43472 0.68291,0.989624 0.70472,1.23312 0.0218,0.243496 0.0897,0.11031 0.15093,-0.29597 0.073,-0.484292 -0.13951,-1.16666 -0.61696,-1.981374 z m 2.96699,1.231468 c -0.21587,-0.490959 -0.59421,-1.576443 -0.84074,-2.412187 -0.24653,-0.835743 -0.61703,-1.728712 -0.82334,-1.984375 -0.33283,-0.412461 -0.36123,-0.315769 -0.25207,0.858076 0.0677,0.727604 0.25632,1.668136 0.41923,2.090071 0.27815,0.720379 1.64248,2.527096 1.81193,2.399442 0.0426,-0.03211 -0.0991,-0.460068 -0.31501,-0.951027 z M 158.20249,60.29333 c 0.004,-0.585348 0.1326,-0.859895 0.40276,-0.859895 0.24694,0 0.39687,-0.249885 0.39687,-0.661459 0,-0.363802 -0.0661,-0.661458 -0.14692,-0.661458 -0.2097,0 -1.35027,2.627594 -1.55047,3.571875 l -0.16828,0.79375 0.53008,-0.661459 c 0.29154,-0.363802 0.53273,-1.048411 0.53596,-1.521354 z m 9.01637,1.778094 c 0.27997,-0.149834 0.7009,-0.64344 0.93539,-1.096901 0.40625,-0.785601 0.40326,-0.814573 -0.0634,-0.614459 -0.26937,0.115509 -1.28107,0.415855 -2.24823,0.667436 -2.00277,0.520968 -2.4145,0.721323 -2.19898,1.07005 0.20613,0.333521 2.94056,0.313539 3.57523,-0.02613 z m -5.84242,-3.233302 c 0.004,-0.545703 -0.0429,-0.992187 -0.10372,-0.992187 -0.0609,0 -0.26922,-0.06088 -0.46302,-0.135284 -0.27554,-0.105789 -0.35237,0.331345 -0.35237,2.005021 v 2.140306 l 0.45609,-1.012834 c 0.25084,-0.557059 0.4592,-1.459319 0.46302,-2.005022 z m 2.03408,-1.371525 c -0.22704,-0.632817 -0.92992,2.530295 -0.77397,3.483024 0.15077,0.921087 0.19047,0.836833 0.51922,-1.101774 0.19578,-1.15452 0.31042,-2.226083 0.25475,-2.38125 z m 46.25134,4.117128 c 0.74039,-0.158627 0.70408,-0.189287 -0.62869,-0.530865 -0.77795,-0.199383 -1.72686,-0.525524 -2.10869,-0.724757 -0.88128,-0.459841 -1.35569,-0.463213 -1.35569,-0.0096 0,0.389413 0.69626,1.078094 1.32292,1.308511 0.51471,0.189257 1.77689,0.169549 2.77015,-0.04325 z m -49.60945,-0.761228 c -0.007,-0.624142 -0.0466,-0.661467 -0.2789,-0.262488 -0.14897,0.255814 -0.19786,0.583236 -0.10863,0.727604 0.27356,0.442639 0.39595,0.295757 0.38753,-0.465116 z m 59.73132,-0.644003 c 0.53683,-0.617169 0.12047,-8.325908 -0.46938,-8.690453 -0.88326,-0.545884 -1.33348,1.229472 -1.30708,5.154276 0.0167,2.481257 0.10112,3.029529 0.5879,3.817157 0.37538,0.607369 0.60792,0.7915 0.68472,0.542159 0.064,-0.207665 0.29068,-0.578078 0.50384,-0.823139 z m -0.56458,-0.881223 c 0.0856,-0.584212 -0.017,-1.896557 -0.22806,-2.91632 -0.36035,-1.741028 -0.34228,-3.5621 0.0353,-3.5621 0.0926,0 0.17905,0.625078 0.19205,1.389063 0.013,0.763984 0.11809,2.234623 0.23352,3.268086 0.14285,1.278858 0.11432,2.039437 -0.0893,2.38125 -0.244,0.409561 -0.27048,0.30624 -0.14353,-0.559979 z m -47.80021,0.217446 c 0.0334,-1.04116 -1.32101,-4.284255 -1.86073,-4.455557 -0.71464,-0.226816 -0.65536,-0.907978 0.0627,-0.720208 0.40622,0.106228 0.53046,0.04362 0.44293,-0.223208 -0.0669,-0.203968 -0.53882,-0.476189 -1.04866,-0.604936 -1.88119,-0.475034 -3.33339,1.55585 -1.55567,2.175568 0.49474,0.172468 0.84571,0.517575 0.95034,0.934472 0.0913,0.363557 0.56515,0.934577 1.05311,1.268933 0.98076,0.672032 1.43585,1.464145 1.46404,2.54829 0.0166,0.637573 0.0433,0.65775 0.24599,0.185988 0.12506,-0.291041 0.23576,-0.790245 0.24598,-1.109342 z m 31.83563,-0.597567 c 0.2275,-0.324802 0.66267,-0.764981 0.96705,-0.978177 0.30473,-0.213441 0.55342,-0.678122 0.55342,-1.034083 0,-0.355551 0.10085,-0.646455 0.2241,-0.646455 0.12325,0 0.49866,-0.238125 0.83423,-0.529167 0.33558,-0.291042 0.77051,-0.529167 0.96653,-0.529167 0.64248,0 0.37406,-0.723418 -0.57886,-1.560091 -1.3898,-1.220258 -2.959,-0.952895 -2.97418,0.506743 -0.004,0.36106 -0.26779,1.650586 -0.58675,2.865613 -0.4072,1.551195 -0.52137,2.496801 -0.38332,3.175 l 0.1966,0.96586 0.18377,-0.822764 c 0.10108,-0.45252 0.36991,-1.088511 0.59741,-1.413312 z m 8.31028,1.243889 c -0.0734,-0.181901 -0.13345,-0.03307 -0.13345,0.330729 0,0.363802 0.06,0.51263 0.13345,0.330729 0.0734,-0.181901 0.0734,-0.479557 0,-0.661458 z m 0.53468,0.281119 c -0.0845,-0.211066 -0.14716,-0.148372 -0.15985,0.159853 -0.0115,0.278915 0.051,0.435184 0.13896,0.347266 0.0879,-0.08792 0.0973,-0.316122 0.0209,-0.507119 z m -49.48567,-2.800736 c 0.0894,-0.621804 0.25992,-1.190686 0.37883,-1.264181 0.45754,-0.282772 0.83457,1.049991 0.69088,2.442195 -0.16395,1.588541 -0.0417,1.601262 1.25318,0.130398 0.7098,-0.806265 2.00287,-2.817523 2.00287,-3.115281 0,-0.05791 -0.19347,-0.105285 -0.42994,-0.105285 -0.33598,0 -0.39548,-0.172345 -0.27224,-0.788539 0.12407,-0.620384 0.0427,-0.850082 -0.38155,-1.077138 -0.65458,-0.350321 -1.4445,0.09358 -2.38904,1.342522 -0.34555,0.456913 -0.96693,1.164288 -1.38084,1.571946 -0.53041,0.522385 -0.65836,0.799424 -0.43343,0.938438 0.21634,0.133711 0.26607,0.597294 0.15438,1.439278 -0.0906,0.68312 -0.0742,1.332993 0.0365,1.444162 0.20002,0.200819 0.45895,-0.793586 0.77035,-2.958515 z m 16.34915,1.971803 c 0.37214,-0.548372 0.67479,-1.08105 0.67256,-1.183728 -0.002,-0.102678 -0.11946,-0.0081 -0.26053,0.210188 -0.14107,0.218281 -0.2583,0.261237 -0.26053,0.09546 -0.002,-0.16578 0.20431,-0.528579 0.45897,-0.80622 0.25466,-0.277641 0.35675,-0.347485 0.22688,-0.155209 -0.437,0.646952 0.0388,0.636388 0.7433,-0.0165 0.74326,-0.688837 1.7418,-1.078811 1.7418,-0.680256 0,0.131897 -0.11907,0.239813 -0.26459,0.239813 -0.33312,0 -1.32291,0.975378 -1.32291,1.30365 0,0.320085 1.40366,0.137527 2.30329,-0.299563 0.82097,-0.398872 1.28387,-1.698082 0.80892,-2.270367 -0.21408,-0.257944 -0.61188,-0.323276 -1.29921,-0.213368 -1.00169,0.160177 -2.09232,-0.156426 -2.92326,-0.848611 -0.3926,-0.327031 -0.55226,-0.300189 -1.27482,0.214315 -0.72838,0.518657 -0.80983,0.701787 -0.68917,1.549495 0.0753,0.528728 0.21226,1.655957 0.30445,2.504954 0.0922,0.848996 0.2105,1.500736 0.26293,1.448311 0.0524,-0.05242 0.39979,-0.543987 0.77192,-1.092359 z m 30.36518,-0.282802 c -0.59425,-0.644692 -1.38757,-1.778221 -1.76293,-2.518953 -0.37536,-0.740732 -0.80924,-1.346785 -0.96418,-1.346785 -0.15493,0 -0.0191,0.42483 0.30177,0.944067 0.3209,0.519237 0.80463,1.401827 1.07494,1.96131 0.45678,0.945415 2.0625,2.500894 2.31797,2.245429 0.0621,-0.06209 -0.37331,-0.640375 -0.96757,-1.285068 z m 1.72204,-0.280784 c -0.0819,-0.793171 -0.28481,-1.656374 -0.451,-1.918229 -0.23735,-0.373992 -0.27048,-0.116617 -0.15446,1.200053 0.0812,0.921885 0.21502,1.785088 0.29731,1.91823 0.34473,0.55779 0.44805,0.155428 0.30815,-1.200054 z m -50.81454,0.05307 c -0.0734,-0.181901 -0.13346,-0.03307 -0.13346,0.33073 0,0.363802 0.0601,0.51263 0.13346,0.330729 0.0734,-0.181901 0.0734,-0.479558 0,-0.661459 z m 49.79271,-0.946898 c -0.0158,-0.702696 0.10652,-1.53046 0.2719,-1.839476 0.243,-0.454048 0.1977,-0.745216 -0.2361,-1.517564 -0.29524,-0.525645 -0.48649,-1.037334 -0.42501,-1.137088 0.0615,-0.09975 -0.38272,-0.17015 -0.98712,-0.156439 -1.85073,0.04199 -1.8188,0.02064 -1.35947,0.908882 0.22796,0.440836 0.34086,0.920646 0.25087,1.066244 -0.24708,0.399785 1.93924,3.953069 2.4323,3.953069 0.0448,0 0.0685,-0.574933 0.0526,-1.277628 z m 3.65312,0.417732 c -0.0734,-0.181901 -0.13346,-0.03307 -0.13346,0.330729 0,0.363802 0.0601,0.51263 0.13346,0.330729 0.0734,-0.181901 0.0734,-0.479557 0,-0.661458 z m -2.10477,-1.055249 c -0.0633,-0.329118 -0.11747,-0.122147 -0.12041,0.459936 -0.003,0.582084 0.0488,0.851362 0.11507,0.598397 0.0662,-0.252964 0.0686,-0.729214 0.005,-1.058333 z m 0.11402,-0.846089 c 0.30055,0.180991 0.30008,0.14273 -0.003,-0.230686 -0.19973,-0.246215 -0.52716,-0.447664 -0.72762,-0.447664 -0.41433,0 -0.42957,0.05167 -0.19537,0.662003 0.1228,0.320006 0.22339,0.35288 0.3673,0.120034 0.11823,-0.191309 0.34353,-0.233136 0.55849,-0.103687 z m -49.91052,-0.08709 c 0.14552,-0.106912 0.44318,-0.432511 0.66146,-0.723552 0.36934,-0.492459 0.36431,-0.503609 -0.0725,-0.160734 -0.25818,0.202637 -0.53026,0.30759 -0.60462,0.233227 -0.0744,-0.07436 0.61312,-0.908935 1.52775,-1.854607 1.43976,-1.488634 1.85199,-1.75982 3.07148,-2.020547 1.96528,-0.420179 3.22168,-1.42221 3.22168,-2.569433 0,-0.604197 -0.16235,-0.972214 -0.51125,-1.158941 -0.28119,-0.150487 -0.58602,-0.509208 -0.67742,-0.797158 -0.10335,-0.325635 -0.5602,-0.62965 -1.20854,-0.804229 -0.57331,-0.154375 -1.04238,-0.395156 -1.04238,-0.535068 0,-0.337141 -1.24593,-0.32841 -1.4552,0.0102 -0.0899,0.145521 -0.44605,0.264584 -0.79135,0.264584 -0.39052,0 -0.83396,0.289485 -1.17317,0.765855 -0.50823,0.713752 -0.51846,0.830178 -0.15031,1.711294 0.56405,1.349959 0.49069,2.286325 -0.26642,3.400519 -0.36381,0.535383 -0.66146,1.082746 -0.66146,1.216363 0,0.133616 -0.22261,0.526886 -0.49469,0.873933 -0.27208,0.347047 -0.57919,1.017947 -0.68248,1.490889 -0.17,0.778422 -0.1294,0.859512 0.42854,0.855845 0.33899,-0.0022 0.7354,-0.09152 0.88092,-0.198438 z m 53.05152,-1.21897 c 0.001,-0.309604 0.39129,-1.051759 0.86638,-1.649233 0.89039,-1.119738 1.05734,-2.245304 0.61396,-4.139203 -0.21465,-0.916876 0.4604,-1.016752 0.93084,-0.137723 l 0.31569,0.589882 0.26441,-0.592543 c 0.29546,-0.662153 -0.22024,-3.331726 -0.7218,-3.736443 -0.48162,-0.388628 -3.48276,0.304098 -4.18684,0.96641 -0.34807,0.327422 -0.76031,0.595313 -0.9161,0.595313 -0.52227,0 -1.12822,1.278955 -1.27747,2.696336 -0.11764,1.117211 -0.0489,1.528809 0.33606,2.01108 l 0.48398,0.606375 0.0441,-1.105081 c 0.0283,-0.709978 0.24158,-1.315329 0.59651,-1.69313 0.30384,-0.323426 0.61156,-0.914063 0.68381,-1.312526 0.0723,-0.398463 0.50696,-1.040517 0.96602,-1.426787 0.86754,-0.729986 1.30988,-0.891831 1.19635,-0.437726 -0.0364,0.145521 -0.15093,0.236322 -0.25456,0.20178 -0.40989,-0.136632 -1.53137,1.217202 -1.53137,1.848651 0,0.427317 -0.24877,0.829831 -0.69258,1.120628 -0.62332,0.408416 -0.6804,0.580508 -0.57081,1.721016 0.0922,0.959141 0.35702,1.554327 1.08945,2.448158 0.59664,0.728121 0.96769,1.461896 0.96769,1.913685 0,0.621335 0.0603,0.682668 0.39687,0.403374 0.21828,-0.181158 0.39803,-0.582689 0.39944,-0.892293 z m -1.49146,0.429272 c -0.0821,-0.254662 -0.21696,-0.641615 -0.29957,-0.859896 -0.0826,-0.218281 -0.16049,-0.478061 -0.17306,-0.577288 -0.0126,-0.09923 -0.60191,-0.735254 -1.30966,-1.413394 l -1.28681,-1.232982 0.14673,-1.497022 c 0.0807,-0.823362 0.22685,-1.822787 0.32477,-2.220944 0.14735,-0.599187 0.0174,-0.884557 -0.75424,-1.65619 -0.84718,-0.847183 -1.00086,-0.906117 -1.68379,-0.645736 -0.41333,0.157592 -1.23529,0.214308 -1.82658,0.126035 -0.98171,-0.146562 -1.10806,-0.09656 -1.4552,0.575908 -0.20909,0.405023 -0.61588,0.932302 -0.90399,1.171732 -0.43654,0.362781 -0.4796,0.561196 -0.2584,1.190625 0.14941,0.425152 0.62245,0.928775 1.08219,1.152173 0.44922,0.218281 1.10128,0.710025 1.44903,1.092764 0.34775,0.382739 1.15851,0.895885 1.8017,1.140325 1.22061,0.463884 3.36071,1.84643 3.91538,2.529411 0.62013,0.763582 0.3314,0.85065 -0.56176,0.169403 l -0.9009,-0.687153 0.29085,0.770546 c 0.30956,0.820117 1.00734,1.287562 1.96567,1.316797 0.44305,0.01351 0.55038,-0.09565 0.43764,-0.445114 z M 197.9981,54.402303 c 1.14139,-0.0056 1.52672,-0.280578 1.13199,-0.807771 -0.48383,-0.646202 -1.17713,-0.794973 -1.62368,-0.348419 -0.22262,0.222627 -1.08927,0.471513 -1.92588,0.553081 -1.66792,0.162619 -2.81976,0.585108 -1.63338,0.599115 0.37531,0.0044 0.95848,0.302899 1.29803,0.664326 l 0.61654,0.656281 0.65628,-0.656281 c 0.41449,-0.414485 0.9598,-0.657773 1.4801,-0.660332 z m -19.79594,0.513605 c 0.31697,-0.350242 0.71552,-0.506937 1.10166,-0.433122 0.42895,0.082 0.53258,0.02838 0.35611,-0.184258 -0.1369,-0.164952 -0.70349,-0.272609 -1.25909,-0.239237 -0.55559,0.03337 -1.38592,-0.13405 -1.84516,-0.372049 -0.77748,-0.402925 -0.88283,-0.401374 -1.52978,0.02253 -0.81719,0.535443 -0.67222,0.959581 0.32986,0.96507 0.39159,0.0021 1.00964,0.169065 1.37345,0.370933 0.89464,0.496425 0.90717,0.49532 1.47295,-0.129862 z m 2.76038,0.284196 c 0,-0.145521 -0.20836,-0.26276 -0.46302,-0.260531 -0.3957,0.0035 -0.40532,0.04134 -0.0662,0.260531 0.49933,0.322689 0.52917,0.322689 0.52917,0 z m -15.875,-1.870887 c 0.21828,-0.03556 0.61409,0.02979 0.87957,0.145222 0.27479,0.119481 0.91932,0.06578 1.49643,-0.124684 0.5737,-0.18934 1.41171,-0.2599 1.9306,-0.162555 0.78461,0.147194 0.97905,0.07712 1.34785,-0.485735 0.53528,-0.816937 0.54581,-1.310007 0.037,-1.732276 -0.21668,-0.179828 -0.32872,-0.432531 -0.24897,-0.561564 0.30662,-0.496126 -0.27542,-0.196247 -1.38699,0.714602 -0.63711,0.522063 -1.60188,1.063739 -2.14392,1.203726 -1.44009,0.37191 -3.17919,1.290074 -3.3661,1.777134 -0.11468,0.298856 0.0168,0.256847 0.44764,-0.143052 0.3355,-0.311389 0.7886,-0.595257 1.00688,-0.630818 z m 42.8246,-0.481341 c 0.25025,-0.158563 0.27028,-0.282277 0.0661,-0.408439 -0.16106,-0.09954 -0.3999,-0.114808 -0.53076,-0.03393 -0.13086,0.08088 -0.59668,-0.26154 -1.03514,-0.760925 -0.79229,-0.902363 -2.6062,-2.000727 -3.30413,-2.000727 -0.20072,0 -0.49877,0.293699 -0.66232,0.652663 -0.25467,0.558938 -0.20145,0.766665 0.37063,1.446541 0.50767,0.603325 0.87444,0.786118 1.52805,0.761547 0.47303,-0.01778 1.0908,0.101559 1.37284,0.265204 0.61252,0.355408 1.69615,0.393953 2.19468,0.07807 z m -45.46366,-1.626163 c 0.17967,-1.244106 -0.0939,-2.105233 -1.09187,-3.437062 -0.5968,-0.796448 -1.25165,-1.543301 -1.45521,-1.659673 -0.66003,-0.377329 -0.4231,0.886128 0.3575,1.906348 1.29719,1.695399 1.71894,2.69515 1.55726,3.69146 -0.1363,0.839881 -0.1171,0.876276 0.21331,0.404536 0.1997,-0.285107 0.38825,-0.692631 0.41901,-0.905609 z m 9.97077,-1.445567 c -0.34818,-0.263091 -0.24242,-1.518687 0.18636,-2.212463 0.1068,-0.172804 0.096,-0.29714 -0.0239,-0.276302 -0.5148,0.08943 -0.58641,-0.06548 -0.33542,-0.725626 0.23132,-0.608417 0.21415,-0.657434 -0.13019,-0.371658 -0.30034,0.249259 -0.38269,0.827406 -0.33916,2.381027 0.0529,1.888158 0.0948,2.028612 0.52499,1.76072 0.37735,-0.234979 0.39998,-0.342134 0.11734,-0.555698 z m 29.44537,0.132292 c -0.21828,-0.141064 -0.51593,-0.25648 -0.66146,-0.25648 -0.14552,0 -0.086,0.115416 0.1323,0.25648 0.21828,0.141064 0.51593,0.25648 0.66145,0.25648 0.14553,0 0.086,-0.115416 -0.13229,-0.25648 z m -30.69166,-0.338004 c 0,-0.537757 -0.8333,-1.581088 -1.0686,-1.337939 -0.39481,0.407977 0.0366,1.675943 0.57027,1.675943 0.27408,0 0.49833,-0.152102 0.49833,-0.338004 z m 29.63333,0.236571 c 0,-0.05579 -0.23829,-0.163747 -0.52953,-0.239909 -0.29125,-0.07616 -0.46281,-0.03052 -0.38126,0.101433 0.14241,0.230428 0.91079,0.347252 0.91079,0.138476 z m 2.01375,-2.808984 c 0.0663,-0.369742 -0.0891,-0.175226 -0.35227,0.44106 -0.64871,1.518977 -0.75029,1.549791 -0.64253,0.194921 0.14072,-1.769298 -0.27335,-2.407324 -0.4986,-0.768272 -0.13441,0.978103 -0.0747,1.509856 0.229,2.040133 l 0.4108,0.717216 0.36751,-0.9818 c 0.20213,-0.539989 0.42087,-1.279456 0.48609,-1.643258 z m -1.48458,2.289966 c 0,-0.05021 -0.26789,-0.318097 -0.59532,-0.595313 l -0.59531,-0.504028 0.50403,0.595313 c 0.47366,0.559447 0.6866,0.715761 0.6866,0.504028 z m -46.95375,-0.951212 c -0.0846,-0.136808 0.21021,-0.663253 0.65503,-1.169877 0.71585,-0.815305 0.75452,-0.937727 0.33656,-1.065544 -0.25972,-0.07943 -0.71034,-0.104409 -1.00138,-0.05552 -0.42482,0.07136 -0.51536,0.265311 -0.45911,0.983557 0.08,1.021483 0.24023,1.556127 0.46642,1.556127 0.0859,0 0.087,-0.111934 0.002,-0.248743 z m 17.05583,-0.133378 c 0,-0.210166 -0.29819,-0.716182 -0.66265,-1.124479 -0.50888,-0.570101 -0.62091,-0.61957 -0.4828,-0.213191 0.20069,0.590489 0.88596,1.719791 1.04359,1.719791 0.056,0 0.10186,-0.171954 0.10186,-0.382121 z m 23.45223,-0.01475 c -0.10738,-0.279841 0.0208,-0.39568 0.43472,-0.392823 0.47602,0.0033 0.51197,0.05255 0.19013,0.260532 -0.23997,0.155082 -0.27195,0.258082 -0.0809,0.260531 0.17379,0.0022 0.64408,-0.27817 1.04509,-0.623107 0.71336,-0.613603 0.71927,-0.642198 0.27324,-1.322917 -0.41997,-0.640962 -0.59605,-0.694293 -2.23571,-0.677161 -2.12661,0.02222 -1.5291,0.462566 0.66755,0.491974 0.76399,0.01023 1.38907,0.137659 1.38907,0.28318 0,0.33187 -0.3142,0.330226 -3.79254,-0.01985 -2.21058,-0.222482 -3.04177,-0.210669 -3.81627,0.05423 -0.54458,0.186267 -1.0996,0.307543 -1.23338,0.269502 -0.13377,-0.03804 -0.0894,0.116147 0.0985,0.34264 0.18797,0.226492 0.23789,0.425496 0.11093,0.44223 -0.57028,0.07517 2.09768,0.551375 4.13479,0.738018 1.23693,0.113329 2.41052,0.224916 2.60799,0.247971 0.21737,0.02538 0.29895,-0.114687 0.20674,-0.354957 z m -10.88452,-0.346192 c 1.06717,-0.147602 1.33314,-0.287024 1.37583,-0.721201 0.0787,-0.801109 -2.10097,-1.24077 -5.03378,-1.015336 -1.67161,0.128489 -2.38846,0.08573 -2.68473,-0.160155 -0.22231,-0.184498 -0.4042,-0.220921 -0.4042,-0.08094 0,0.13998 -0.32742,0.403811 -0.7276,0.58629 l -0.7276,0.331779 0.79375,0.635418 c 0.81675,0.653831 1.34732,0.841058 1.05833,0.373462 -0.19059,-0.308385 0.014,-0.325502 0.92604,-0.07747 l 0.66146,0.179884 -0.66146,0.209216 c -0.72028,0.227823 3.28243,0.03525 5.42396,-0.260943 z m 35.57694,-1.554207 c 0.0118,-0.714288 -0.95006,-1.092697 -1.45946,-0.57419 -0.28062,0.285637 -0.29026,0.585314 -0.0477,1.483855 l 0.30389,1.125931 0.5969,-0.729056 c 0.32829,-0.400982 0.60118,-0.988925 0.60641,-1.30654 z m -57.22347,0.323598 c -0.0967,-0.295369 -1.50451,-0.554081 -1.50451,-0.276481 0,0.09143 0.20836,0.450429 0.46302,0.797769 0.42217,0.575814 0.49251,0.59282 0.79731,0.192761 0.18387,-0.241322 0.29375,-0.562644 0.24418,-0.714049 z m 38.33477,0.446022 c -0.45714,-0.436621 -0.46423,-0.429524 -0.16125,0.161252 0.1743,0.339886 0.38949,0.54541 0.47818,0.456722 0.0887,-0.08869 -0.0539,-0.366777 -0.31693,-0.617974 z m 11.58649,-0.343633 c 0.83503,-0.656835 0.87627,-0.946619 0.16673,-1.171816 -0.76471,-0.242709 -1.87969,0.67607 -1.54539,1.273441 0.32381,0.578613 0.53353,0.563153 1.37866,-0.101625 z M 186.84952,147.79602 c -0.32742,-0.13161 -0.59531,-0.3154 -0.59531,-0.40842 0,-0.093 0.18134,-0.0995 0.40299,-0.0145 0.32128,0.12329 0.35,0.0556 0.1416,-0.33378 -0.3161,-0.59066 -0.12592,-0.82259 0.67451,-0.82259 0.75155,0 0.99422,0.37264 0.78514,1.20566 -0.17211,0.68574 -0.44942,0.75927 -1.40893,0.3736 z m 1.25677,-0.53654 c 0,-0.13693 -0.11906,-0.24897 -0.26458,-0.24897 -0.14552,0 -0.26459,0.18562 -0.26459,0.41249 0,0.22687 0.11907,0.33891 0.26459,0.24897 0.14552,-0.0899 0.26458,-0.27556 0.26458,-0.41249 z m -3.14026,-0.24897 c -0.0198,-0.68841 0.0392,-0.8242 0.22984,-0.52917 0.21746,0.3365 0.2571,0.32406 0.26054,-0.0818 0.002,-0.26325 0.12311,-0.40505 0.26863,-0.31511 0.14552,0.0899 0.25077,0.54345 0.23389,1.0078 -0.0169,0.46436 -0.0851,0.63592 -0.15169,0.38126 -0.0665,-0.25466 -0.2226,-0.46302 -0.34678,-0.46302 -0.12418,0 -0.28024,0.20836 -0.34678,0.46302 -0.0666,0.25466 -0.133,0.0463 -0.14765,-0.46302 z m 4.45956,0.46302 c -0.002,-0.1819 -0.0754,-0.59862 -0.16315,-0.92604 -0.0957,-0.35719 -0.0414,-0.59531 0.13591,-0.59531 0.16249,0 0.29544,0.20135 0.29544,0.44744 0,0.39017 0.0497,0.3817 0.38846,-0.0661 0.50995,-0.67422 0.51084,-0.29456 0.002,0.69017 -0.43117,0.8338 -0.65243,0.98501 -0.65828,0.44988 z M 186.3865,97.798017 c -0.0899,-0.145521 -0.0374,-0.264584 0.11667,-0.264584 0.15411,0 0.2802,0.119063 0.2802,0.264584 0,0.14552 -0.0525,0.264583 -0.11667,0.264583 -0.0642,0 -0.19026,-0.119063 -0.2802,-0.264583 z"
       id="path964"
       inkscape:connector-curvature="0" />
  </g>
</svg>
