<?xml version="1.0" encoding="UTF-8" standalone="no"?>
<!-- Created with Inkscape (http://www.inkscape.org/) -->

<svg
   xmlns:dc="http://purl.org/dc/elements/1.1/"
   xmlns:cc="http://creativecommons.org/ns#"
   xmlns:rdf="http://www.w3.org/1999/02/22-rdf-syntax-ns#"
   xmlns:svg="http://www.w3.org/2000/svg"
   xmlns="http://www.w3.org/2000/svg"
   xmlns:sodipodi="http://sodipodi.sourceforge.net/DTD/sodipodi-0.dtd"
   xmlns:inkscape="http://www.inkscape.org/namespaces/inkscape"
   width="96.587227mm"
   height="189.06084mm"
   viewBox="0 0 96.587227 189.06084"
   version="1.1"
   id="svg8"
   inkscape:version="0.92.4 5da689c313, 2019-01-14"
   sodipodi:docname="herbarium.svg"
   inkscape:export-filename="/home/olf/Code/schreibdochmalwieder/schreibdochmalwieder/static/herbarium.png"
   inkscape:export-xdpi="78.862442"
   inkscape:export-ydpi="78.862442">
  <defs
     id="defs2" />
  <sodipodi:namedview
     id="base"
     pagecolor="#ffffff"
     bordercolor="#666666"
     borderopacity="1.0"
     inkscape:pageopacity="0.0"
     inkscape:pageshadow="2"
     inkscape:zoom="0.55350379"
     inkscape:cx="279.69406"
     inkscape:cy="361.07412"
     inkscape:document-units="mm"
     inkscape:current-layer="layer1"
     showgrid="false"
     fit-margin-top="0"
     fit-margin-left="0"
     fit-margin-right="0"
     fit-margin-bottom="0"
     inkscape:window-width="1916"
     inkscape:window-height="1041"
     inkscape:window-x="1920"
     inkscape:window-y="18"
     inkscape:window-maximized="0" />
  <metadata
     id="metadata5">
    <rdf:RDF>
      <cc:Work
         rdf:about="">
        <dc:format>image/svg+xml</dc:format>
        <dc:type
           rdf:resource="http://purl.org/dc/dcmitype/StillImage" />
        <dc:title></dc:title>
      </cc:Work>
    </rdf:RDF>
  </metadata>
  <g
     inkscape:label="Layer 1"
     inkscape:groupmode="layer"
     id="layer1"
     transform="translate(134.13686,165.39339)">
    <path
       style="fill:none;stroke:#000000;stroke-width:0.26458338"
       d="m -73.996303,-165.26089 c -1.244261,-0.005 -2.347505,0.0828 -3.113505,0.19533 -5.74366,0.20692 -8.311671,3.61971 -10.042282,8.338 -0.875268,2.75281 1.69885,5.70558 -0.01913,7.11532 -3.61016,5.90571 2.262947,1.08259 4.239017,4.97644 8.148791,4.22218 6.618389,9.50048 5.0998,18.66068 -0.939603,9.87677 -1.378976,25.45759 -5.485821,41.488627 -2.972361,9.38528 -2.362843,23.21577 -4.206462,30.41054 1.151112,-18.05553 -32.435824,-79.127477 -20.501594,-80.940267 2.49964,-1.88924 6.18158,-6.83086 0.40825,-9.67228 -4.21415,-1.38624 -5.02822,2.40038 -4.94802,-3.80907 1.60519,-5.28625 -3.62347,-7.55739 -6.30194,-10.08879 -3.1795,-0.50562 -5.44405,0.19376 -8.41448,1.36994 -1.24821,3.5323 -4.28909,8.65072 -1.61695,13.35629 -0.60403,2.1747 -8.72541,5.31529 -3.22151,10.06967 3.75503,7.03223 9.21338,-4.83754 13.94488,2.7342 -9.33604,-5.49053 -1.67431,1.69218 3.22255,2.39934 6.84185,19.34376 12.31636,32.951545 15.281378,41.76638 2.25492,10.89518 7.143114,17.716497 8.927993,28.672727 0.17408,3.65417 -5.934389,-13.26429 -8.098729,-16.73438 -4.748042,-7.39462 -8.199692,-15.98183 -12.814202,-22.98671 2.30275,10.49044 7.64714,20.08644 10.91768,30.17438 5.831297,5.92435 10.891699,14.18961 12.930991,21.79764 1.675075,8.264001 1.830141,13.26484 2.855638,31.155203 0.07174,4.62349 -8.743384,-2.94312 -9.174634,-5.51336 -2.954268,-17.60739 -12.631515,-31.13403 -20.415805,-45.81581 -4.75565,-8.96952 -2.6828,0.88197 -1.4826,5.27772 4.2843,15.69131 0.90688,33.04009 14.31231,44.99259 15.693855,7.4897403 9.444902,5.9975203 16.166451,7.0615903 2.323269,1.78237 2.268413,12.29215 2.447912,14.59344 0.372379,4.7743297 -0.908061,11.7375507 -2.460832,17.3255507 l 5.273064,0.41288 c -1.106019,-8.95768 1.796894,-11.658671 0.695566,-20.8013007 -1.676551,-5.6383 -3.206541,-13.3175403 -1.812812,-12.70518 2.549412,1.12016 7.438348,-0.4575003 12.301059,-5.0720403 1.136229,-1.07823 1.783032,-2.59329 2.604492,-3.92843 10.781001,-9.77551 8.268071,-25.25204 11.909351,-37.98477 0.957019,-3.34649 8.155744,-21.49704 2.227255,-13.89062 -4.506032,6.26315 -9.725827,14.13938 -13.984677,21.55992 -5.28865,9.21485 -6.609003,19.64848 -8.134903,29.76924 -1.4767,0.62582 -0.547452,2.5868 -0.801502,3.52227 -3.829891,6.5721403 -6.977224,3.26686 -6.862114,0.26095 1.000631,-20.531494 -7.586319,-25.750366 9.428882,-46.932003 6.091161,-7.53104 16.598424,-14.92792 18.364253,-23.03942 -2.44506,-0.92923 -12.299717,12.68413 -16.644977,17.61443 -2.338801,1.53462 -10.816339,17.10224 -8.314738,8.98343 15.307456,-30.640478 16.467879,-37.004602 36.850463,-60.158597 4.33818,-1.30435 6.143813,-7.08819 3.635954,-11.11663 -2.019652,-2.94969 -6.504672,-4.87369 -10.642761,-3.25769 -5.481331,0.34366 -5.209035,5.55917 -7.505486,7.19698 0.483032,3.09533 5.75051,5.06515 5.693709,9.51467 4.730001,-4.50464 -1.561782,4.41658 -1.265843,6.62851 -11.294806,14.504763 -19.928621,24.870307 -30.589059,56.200207 -3.310331,1.99629 -0.009,-16.67943 0.542602,-21.91494 3.5175,-14.568854 7.930516,-36.855587 7.149845,-50.305537 2.014329,-9.899 -1.42392,-9.75716 4.167811,-12.74281 6.01458,-1.60891 6.639218,-8.37206 8.854239,-9.09041 2.5962,-2.46117 0.372104,-6.13891 0.286805,-9.21236 -1.35414,-2.59875 -3.009074,-4.43326 -3.690215,-5.77897 -2.014932,-1.63274 -5.435251,-2.09188 -8.172627,-2.10271 z m -9.553421,16.4486 c 0.07344,0.003 0.189915,0.0421 0.359151,0.12609 1.353888,0.67181 2.576621,0.0355 2.66392,1.06092 0.08734,1.02538 0.218591,2.15646 0.218591,2.15646 l -2.183847,-1.66191 c 2e-6,0 -1.571916,-1.70524 -1.057815,-1.68156 z m 14.416691,3.19464 c -0.01008,0.082 -2.133203,2.36161 -2.133203,2.36161 l -2.104782,-0.51986 c 0,0 0.264811,-0.82007 1.259872,-0.55759 0.995039,0.26253 1.652005,-0.0257 2.739884,-1.07487 0.169982,-0.16394 0.240094,-0.22448 0.238229,-0.20929 z m -44.479977,2.11461 c 0.20283,0.009 -0.002,0.98044 -1.11672,3.81062 -2.57815,2.42471 0.5984,-3.83438 1.11672,-3.81062 z m -6.53138,4.01836 c 0.087,-5.3e-4 0.17442,0.001 0.26252,0.006 2.48754,0.12271 5.32435,2.20379 3.32382,7.18251 -1.01048,1.52732 -1.9819,-3.18974 -2.88457,-1.42007 -5.4534,-3.41493 -3.3986,-5.75184 -0.70177,-5.76813 z m 6.46575,2.0221 c 0.22036,0.0258 0.36149,0.44311 0.21653,1.60196 -1.85963,0.81952 -0.77966,-1.66806 -0.21653,-1.60196 z m 68.526572,19.48304 c 0.306136,0.0118 0.265674,0.55263 -0.584978,2.08928 -3.737163,1.92119 -0.435546,-1.93029 0.519348,-2.08463 0.02336,-0.004 0.04522,-0.005 0.06563,-0.005 z m -30.337683,96.32899 c -0.05966,0.014 -0.147399,0.0905 -0.269751,0.26717 0.25999,0.78598 0.528291,-0.32752 0.269751,-0.26717 z"
       id="path4582-6"
       inkscape:connector-curvature="0"
       sodipodi:nodetypes="ccccccccccccccccccccccccssscccccccscscscccccccccccccccccccccccccccccccccccccccccccccccccccccc" />
  </g>
</svg>
