<?xml version="1.0" encoding="UTF-8" standalone="no"?>
<!-- Created with Inkscape (http://www.inkscape.org/) -->

<svg
   xmlns:dc="http://purl.org/dc/elements/1.1/"
   xmlns:cc="http://creativecommons.org/ns#"
   xmlns:rdf="http://www.w3.org/1999/02/22-rdf-syntax-ns#"
   xmlns:svg="http://www.w3.org/2000/svg"
   xmlns="http://www.w3.org/2000/svg"
   xmlns:sodipodi="http://sodipodi.sourceforge.net/DTD/sodipodi-0.dtd"
   xmlns:inkscape="http://www.inkscape.org/namespaces/inkscape"
   width="107.52159mm"
   height="162.29327mm"
   viewBox="0 0 380.98202 575.05491"
   id="svg2"
   version="1.1"
   inkscape:version="0.91 r13725"
   sodipodi:docname="Diederichs_Graphik_1144.svg">
  <defs
     id="defs4" />
  <sodipodi:namedview
     id="base"
     pagecolor="#ffffff"
     bordercolor="#666666"
     borderopacity="1.0"
     inkscape:pageopacity="0.0"
     inkscape:pageshadow="2"
     inkscape:zoom="2.8"
     inkscape:cx="-185.09459"
     inkscape:cy="333.68234"
     inkscape:document-units="px"
     inkscape:current-layer="layer1"
     showgrid="false"
     fit-margin-top="0"
     fit-margin-left="0"
     fit-margin-right="0"
     fit-margin-bottom="0"
     inkscape:window-width="1877"
     inkscape:window-height="1176"
     inkscape:window-x="43"
     inkscape:window-y="24"
     inkscape:window-maximized="1" />
  <metadata
     id="metadata7">
    <rdf:RDF>
      <cc:Work
         rdf:about="">
        <dc:format>image/svg+xml</dc:format>
        <dc:type
           rdf:resource="http://purl.org/dc/dcmitype/StillImage" />
        <dc:title></dc:title>
      </cc:Work>
    </rdf:RDF>
  </metadata>
  <g
     inkscape:label="Layer 1"
     inkscape:groupmode="layer"
     id="layer1"
     transform="translate(-204.20486,-163.13658)">
    <path
       style="fill:#b3b3b3"
       d="m 237.49997,737.33083 c 0,-1.46597 4.73761,-20.42662 7.63091,-30.54007 1.41612,-4.95 3.01483,-11.025 3.5527,-13.5 0.53787,-2.475 2.09153,-9.675 3.45258,-16 1.36106,-6.325 3.32911,-14.2 4.37345,-17.5 2.42127,-7.65089 12.01645,-45.36203 15.48716,-60.86783 1.46102,-6.52731 2.85797,-12.39311 3.10433,-13.03512 0.52474,-1.36745 -0.72183,-2.72699 -11.09181,-12.09705 -10.27738,-9.28638 -31.05666,-30.36916 -30.82886,-31.27913 0.0993,-0.39648 2.03348,-5.89587 4.29827,-12.22087 6.29564,-17.58217 17.02127,-52.60589 17.02127,-55.58167 0,-1.45969 -22.64945,-26.19134 -33.1881,-36.23913 l -4.53188,-4.3208 -1.70536,9.3208 c -2.52988,13.82729 -3.70029,40.2505 -2.5504,57.57803 2.43902,36.75357 4.79481,51.40273 10.60865,65.96856 1.36673,3.42419 2.70679,7.92419 2.9779,10 l 0.49292,3.77421 -1.61155,-3.5 c -2.21157,-4.80313 -9.03404,-27.27321 -10.32324,-34 -0.57974,-3.025 -1.33297,-9.325 -1.67384,-14 -0.34087,-4.675 -1.00606,-12.325 -1.47819,-17 -1.51588,-15.0101 -0.40545,-55.9819 1.85535,-68.45741 l 1.98569,-10.95741 -3.60682,-4.04259 c -1.98375,-2.22343 -4.64851,-5.03056 -5.92168,-6.23808 -1.27318,-1.20752 -1.93868,-2.42798 -1.47891,-2.71214 0.45977,-0.28416 3.26702,2.00749 6.23832,5.09254 l 5.40237,5.60919 1.27801,-4.89705 c 0.70291,-2.69338 1.98433,-7.59705 2.84759,-10.89705 4.80573,-18.37086 11.38841,-33.33442 24.92225,-56.65262 10.49486,-18.08217 17.08759,-27.93102 24.6653,-36.84738 l 6.37399,-7.5 3.6921,-15 c 4.91821,-19.98137 10.81186,-37.86662 15.62063,-47.40335 4.62993,-9.18207 11.98726,-21.19263 15.27921,-24.94273 1.28133,-1.45965 3.11434,-3.87123 4.07335,-5.35905 0.95901,-1.48783 2.59802,-3.51283 3.64224,-4.5 1.04423,-0.98718 3.53553,-3.76604 5.53623,-6.17525 l 3.63764,-4.38039 -0.60739,-7.61961 c -0.33406,-4.19079 -1.47251,-11.98115 -2.52988,-17.31192 -1.05738,-5.33076 -1.9225,-10.84786 -1.9225,-12.26021 l 0,-2.56792 -5.75,3.67491 c -19.78662,12.64592 -37.77016,25.10663 -42.59701,29.51528 -3.03042,2.76786 -3.03239,2.77693 -2.76561,12.7112 0.39883,14.85099 -2.98919,25.92178 -12.12472,39.61904 -4.91767,7.37326 -9.09127,11.87253 -18.66526,20.12173 -6.78824,5.84892 -11.0449,8.42979 -8.14967,4.94125 0.65594,-0.79036 1.87562,-6.07786 2.7104,-11.75 1.858,-12.62463 4.09857,-19.62354 10.02427,-31.31298 6.63699,-13.09259 19.95099,-32.68471 21.8176,-32.10554 0.55,0.17066 3.475,-1.80376 6.5,-4.38759 9.94643,-8.49582 48.46701,-33.45431 50.08733,-32.45289 0.50197,0.31023 0.91267,2.39069 0.91267,4.62325 0,2.23255 0.67529,7.7185 1.50063,12.19098 0.82535,4.47249 1.83785,11.45435 2.25,15.51526 l 0.74937,7.38346 6.10033,-5.88346 c 14.27057,-13.76328 29.23239,-24.00001 45.11529,-30.86745 7.34034,-3.17381 15.60515,-5.65334 14.28438,-4.28547 -0.275,0.28481 -4.775,2.20457 -10,4.26614 -19.0477,7.51541 -31.73976,16.01902 -49.74842,33.33114 l -5.54219,5.32783 1.22116,10.17217 c 0.67163,5.59469 2.50546,16.92217 4.07517,25.17217 1.5697,8.25 4.87908,26.025 7.35416,39.5 2.47508,13.475 4.75867,25.85 5.07464,27.5 2.41345,12.60296 4.54828,25.33149 4.52844,27 -0.0477,4.01154 -1.68067,-0.86048 -2.34622,-7 -0.35773,-3.3 -1.30068,-8.925 -2.09545,-12.5 -1.92114,-8.64167 -7.9322,-40.50757 -10.46931,-55.5 -1.11688,-6.6 -2.48247,-13.5615 -3.03463,-15.46999 -0.55216,-1.9085 -1.95349,-10.6835 -3.11408,-19.5 -1.16059,-8.81651 -2.44671,-16.39062 -2.85806,-16.83136 -0.41135,-0.44074 -1.57373,0.45926 -2.58308,2 -1.00935,1.54074 -3.32624,4.12165 -5.14866,5.73535 -1.82241,1.6137 -3.31347,3.30756 -3.31347,3.76413 0,0.45657 -2.03882,3.41127 -4.53072,6.566 -2.4919,3.15473 -4.87677,6.18587 -5.29972,6.73587 -2.19149,2.84982 -11.11332,19.84029 -13.39025,25.5 -4.55283,11.31688 -14.76584,46.46561 -14.77614,50.85298 -0.002,0.74415 3.18152,-1.50585 7.07391,-5 11.72614,-10.52637 17.06023,-14.85442 18.27216,-14.82592 0.63292,0.0149 -0.64924,1.62746 -2.84924,3.58352 -2.2,1.95606 -8.34507,7.5812 -13.65571,12.50033 l -9.65571,8.94386 -1.58809,7.22261 c -1.98088,9.00904 -3.59229,34.01156 -3.59695,55.81002 -0.004,17.55547 2.81568,47.67221 5.57948,59.59921 0.86837,3.74737 1.9659,9.96339 2.43897,13.81339 0.47307,3.85 1.60274,9.7 2.51038,13 1.31559,4.78326 5.39785,22.97663 5.45449,24.30902 0.007,0.16996 -0.38485,0.063 -0.87129,-0.23759 -0.48643,-0.30064 -1.44024,-3.58969 -2.11957,-7.30902 -0.67932,-3.71933 -2.30633,-10.52525 -3.61557,-15.12428 -1.30924,-4.59902 -2.38043,-9.66891 -2.38043,-11.26641 0,-1.59751 -1.09264,-8.40967 -2.4281,-15.13814 -4.84421,-24.40676 -5.9009,-39.20051 -5.26664,-73.73358 0.40053,-21.8075 1.05341,-34.09436 2.12182,-39.93149 0.8488,-4.63732 1.42043,-8.55433 1.27029,-8.70447 -0.5922,-0.5922 -8.67555,9.61006 -14.3693,18.13596 -7.53196,11.27849 -16.32807,25.37412 -16.32807,26.1655 0,0.32961 -2.9048,5.82721 -6.4551,12.2169 -7.78719,14.01502 -12.50791,26.13828 -17.11087,43.94231 l -3.45386,13.35937 4.27887,4.65796 c 2.35338,2.56188 7.64534,8.19898 11.75991,12.52689 4.11458,4.32791 10.95995,11.52791 15.21193,16 4.25198,4.47209 7.73948,8.83975 7.75,9.70592 0.0105,0.86616 -1.12344,4.91616 -2.5199,9 -1.39646,4.08383 -2.96574,9.45015 -3.48727,11.92515 -0.52154,2.475 -4.21155,14.28302 -8.20003,26.24005 l -7.25178,21.74006 8.98905,9.06479 c 4.94398,4.98564 14.45812,14.03203 21.14253,20.1031 11.95273,10.85597 12.13837,11.09045 11.23857,14.19515 -0.5032,1.73627 -2.02992,8.33185 -3.3927,14.65685 -1.36279,6.325 -3.16562,13.975 -4.00631,17 -0.84068,3.025 -2.68844,10.675 -4.10613,17 -1.41768,6.325 -3.88793,15.60662 -5.48943,20.62582 -1.60151,5.0192 -4.24976,15.3692 -5.88502,23 -1.63526,7.6308 -4.37021,18.82418 -6.07768,24.87418 -2.87762,10.19613 -6.93478,27.6282 -6.93478,29.79608 0,1.04534 0.73065,0.8554 10,-2.59966 6.82599,-2.54432 49.29607,-19.65689 49.63219,-19.99841 0.45167,-0.45895 3.48115,-28.55219 4.87399,-45.19801 1.54874,-18.509 5.21048,-50.59141 8.95963,-78.5 1.16267,-8.65489 1.95383,-14.95704 4.58212,-36.5 1.67753,-13.75 3.70301,-27.84042 4.50106,-31.31205 0.79806,-3.47163 1.45101,-7.40913 1.45101,-8.75 0,-1.34087 0.45857,-2.43795 1.01905,-2.43795 0.56048,0 0.79375,1.0125 0.51838,2.25 -2.62387,11.79149 -4.92382,28.33069 -8.51747,61.25 -0.48032,4.4 -1.38536,11.15 -2.01118,15 -2.25705,13.88506 -7.7391,64.39683 -9.49639,87.5 -0.31376,4.125 -1.30569,13.68922 -2.20429,21.25381 -0.89859,7.5646 -1.35169,14.03593 -1.00689,14.38073 0.3448,0.34481 3.00559,-0.28221 5.91285,-1.39336 16.04997,-6.13426 30.2988,-11.06165 30.73277,-10.62769 0.83941,0.83942 -1.44523,1.82562 -15.68811,6.77205 -20.36321,7.07196 -22.2573,8.03759 -22.26583,11.35146 -0.004,1.51965 -0.29152,5.77413 -0.63913,9.4544 l -0.63203,6.6914 5.88914,-1.51906 c 3.23902,-0.83548 8.57016,-2.39042 11.84697,-3.45541 3.27681,-1.065 8.77586,-2.38654 12.22011,-2.93676 3.44424,-0.55022 11.78821,-2.62111 18.54216,-4.60198 6.75394,-1.98087 13.85489,-3.95928 15.77989,-4.39648 9.1155,-2.07026 23.12604,-5.76581 23.57987,-6.21964 0.27868,-0.27868 -0.82299,-2.69972 -2.44815,-5.38008 -4.33551,-7.15051 -10.97346,-20.92308 -13.70119,-28.42754 -3.57973,-9.84844 -10.24265,-39.11056 -11.48642,-50.44585 -0.60349,-5.5 -1.40187,-12.475 -1.77418,-15.5 l -0.67692,-5.5 -7.83812,13.20359 c -6.73953,11.35297 -10.65489,16.88413 -10.65489,15.05195 0,-0.26914 4.1625,-7.18674 9.25,-15.37244 l 9.25,-14.8831 0.57987,-31 c 0.56283,-30.08919 1.23458,-39.75241 4.65753,-67 0.89821,-7.15 1.59784,-13.675 1.55472,-14.5 -0.0676,-1.2937 -2.91263,-9.34237 -12.37168,-35 -1.11521,-3.025 -2.94672,-7.75 -4.07002,-10.5 -1.12329,-2.75 -3.72447,-9.725 -5.78038,-15.5 -2.05591,-5.775 -4.4167,-12.075 -5.24619,-14 -0.8295,-1.925 -2.08356,-5.3 -2.78682,-7.5 -0.70325,-2.2 -1.56865,-4.32187 -1.92311,-4.71527 -0.35446,-0.39341 -4.6876,3.08658 -9.62919,7.73329 -7.9688,7.49326 -10.48473,9.43342 -10.48473,8.08532 0,-0.49665 13.69451,-13.76329 16.78309,-16.25871 l 2.2831,-1.84463 -2.41761,-7 c -1.32968,-3.85 -5.17381,-13.96231 -8.54249,-22.47181 -3.36869,-8.50949 -5.94805,-15.93449 -5.73191,-16.5 0.21613,-0.5655 0.72729,-0.12819 1.1359,0.97181 0.40862,1.1 2.28843,5.825 4.17736,10.5 3.16296,7.82813 10.97796,28.70822 11.91739,31.8408 0.36996,1.23366 22.38463,-18.63092 23.24113,-20.97125 0.19028,-0.51993 -0.33375,-2.39078 -1.16452,-4.15744 -0.83076,-1.76666 -3.09357,-7.03711 -5.02847,-11.71211 -1.93489,-4.675 -4.67336,-10.66131 -6.08548,-13.30291 -2.85082,-5.33293 -2.95747,-5.69709 -1.66846,-5.69709 1.12713,0 4.73429,6.85008 6.7798,12.87498 0.85293,2.51226 2.64256,7.05564 3.97694,10.09638 1.33438,3.04075 2.99904,6.83714 3.69925,8.43641 l 1.27311,2.90777 9.43594,-8.27489 c 5.18976,-4.55119 14.12221,-12.60969 19.84989,-17.90777 5.72767,-5.29809 12.22632,-11.20788 14.44143,-13.13288 2.21512,-1.925 6.69126,-5.975 9.94699,-9 3.25573,-3.025 6.57834,-5.87875 7.38357,-6.34166 3.37861,-1.94231 1.61855,0.23397 -5.06626,6.26434 -12.14725,10.95804 -24.82233,22.46353 -27.62654,25.07732 -1.47518,1.375 -5.77967,5.2 -9.56553,8.5 -18.15597,15.82591 -18.36463,16.11468 -15.89631,22 0.46134,1.1 3.70941,9.2 7.21793,18 3.50853,8.8 6.6234,16.5625 6.92194,17.25 0.29854,0.6875 0.12061,1.25 -0.39541,1.25 -0.51601,0 -2.62066,-4.3875 -4.67699,-9.75 -5.23331,-13.64737 -11.79572,-29.61999 -12.50382,-30.43372 -0.32723,-0.37604 -5.70379,4.12396 -11.94791,10 l -11.35295,10.68372 5.10295,12.95368 c 2.80662,7.12452 5.10295,13.45727 5.10295,14.07278 0,0.61551 1.4079,4.01136 3.12868,7.54633 1.72077,3.53496 3.91772,9.12721 4.88212,12.42721 0.96439,3.3 2.45137,7.8 3.3044,10 0.85302,2.2 3.4418,9.4 5.75282,16 2.31103,6.6 4.49744,12.33379 4.85868,12.74176 0.36125,0.40796 2.12835,-4.31704 3.92689,-10.5 3.07278,-10.56346 9.77014,-28.60891 14.37856,-38.74176 1.12563,-2.475 2.70653,-6.06208 3.51311,-7.97128 3.66431,-8.67362 16.91157,-30.42483 26.88518,-44.14386 11.8648,-16.32043 37.76171,-43.88486 41.23004,-43.88486 0.77,0 -0.56975,1.6875 -2.97724,3.75 -13.25884,11.35888 -40.03892,42.35367 -42.98493,49.75 -0.21907,0.55 -3.05952,5.02686 -6.31211,9.94858 -7.05925,10.68182 -17.11878,30.14306 -20.96108,40.55142 -1.52277,4.125 -3.60877,9.3 -4.63557,11.5 -3.10654,6.65603 -8.96921,25.66019 -9.63548,31.23392 -0.36019,3.01319 -0.19912,5.77111 0.37962,6.5 0.5529,0.69634 2.60536,5.54108 4.56102,10.76608 1.95566,5.225 4.94872,12.84701 6.65125,16.93781 1.70252,4.09079 2.91356,7.91579 2.6912,8.5 -0.22237,0.5842 -0.7468,0.16219 -1.1654,-0.93781 -0.4186,-1.1 -2.88827,-6.95 -5.48817,-13 -2.59989,-6.05 -5.54384,-13.59345 -6.54212,-16.76321 -0.99827,-3.16977 -2.11177,-5.41977 -2.47444,-5 -1.17537,1.36043 -2.97194,14.3461 -4.60196,33.26321 -1.48838,17.27335 -2.90442,71 -1.8713,71 0.42534,0 35.35392,-51.8605 40.00623,-59.39959 2.25271,-3.65052 13.56092,-19.57973 23.49811,-33.10041 3.63807,-4.95 9.1512,-12.825 12.25141,-17.5 15.35104,-23.14879 20.75048,-30.31525 20.75048,-27.54129 0,0.63316 -1.11342,2.21691 -12.38639,17.61873 -3.45292,4.71759 -7.92816,11.24259 -9.94497,14.5 -2.01681,3.25741 -8.5826,12.67256 -14.59064,20.92256 -10.56907,14.513 -23.2518,33.06228 -39.65643,58 -4.34164,6.6 -10.72592,16.01453 -14.18728,20.92118 -5.72801,8.11972 -6.25295,9.28761 -5.84321,13 0.2476,2.24335 0.76409,7.67882 1.14777,12.07882 0.89048,10.21217 5.53543,34.13423 8.83474,45.5 4.66022,16.05395 13.24817,35.23044 19.0182,42.46676 l 2.24285,2.81279 7.43268,-2.27159 c 4.08797,-1.24937 7.77018,-2.46382 8.18268,-2.69879 0.4125,-0.23496 0.75,-0.007 0.75,0.50668 0,0.51364 -3.60869,1.97664 -8.0193,3.25111 -4.41062,1.27447 -7.89812,2.57281 -7.75,2.8852 2.88476,6.08424 5.97137,10.94445 10.79086,16.99138 3.23958,4.06466 5.63536,7.80256 5.32393,8.30646 -0.31142,0.50389 -1.43046,-0.50496 -2.48676,-2.2419 -1.05629,-1.73693 -2.83042,-4.13471 -3.9425,-5.32839 -1.11209,-1.19369 -4.35782,-5.66602 -7.21274,-9.93852 -2.85492,-4.2725 -5.64363,-7.61061 -6.19713,-7.41803 -0.5535,0.19258 -4.60636,1.31711 -9.00636,2.49895 -4.4,1.18185 -15.2,4.13607 -24,6.56495 -16.36978,4.51821 -19.0359,5.15469 -26,6.20692 -2.2,0.3324 -5.8,1.18938 -8,1.90438 -21.89698,7.11655 -23.79263,7.43223 -22.89616,3.81281 0.56009,-2.26132 2.08812,-18.31117 1.74332,-18.31117 -0.13918,0 -1.28673,0.43003 -2.55011,0.95561 -1.26338,0.52559 -5.22205,2.06474 -8.79705,3.42035 -17.18715,6.51718 -42.90422,16.85913 -46.3445,18.63713 -4.40527,2.27673 -4.6555,2.33193 -4.6555,1.02698 z m 7.44062,-471.17814 c 16.88342,-15.82366 26.69806,-37.2181 25.06557,-54.63918 -0.67576,-7.21136 -0.73104,-7.32924 -2.63051,-5.61024 -3.4944,3.16238 -5.81649,7.94926 -7.75316,15.98274 -1.29376,5.36664 -2.13423,7.34574 -2.61761,6.16376 -0.39264,-0.96013 0.20886,-4.7578 1.34108,-8.46715 1.12918,-3.69938 1.91828,-6.86093 1.75355,-7.02566 -1.16037,-1.16036 -16.66306,26.69878 -19.58835,35.20129 -2.98504,8.67616 -5.63446,25.53251 -4.01311,25.53251 0.45452,0 4.25367,-3.21213 8.44254,-7.13807 z m 285.55938,465.07796 c -16.76967,-2.48868 -28,-13.09902 -28,-26.45421 0,-4.30856 -2.89429,-9.05297 -16.92581,-27.74539 -2.7908,-3.71783 -5.06719,-7.09283 -5.05864,-7.5 0.009,-0.40716 3.68952,-2.54029 8.17993,-4.74029 12.6195,-6.18272 27.79206,-14.44928 33.22362,-18.10144 2.7055,-1.81916 5.33854,-3.04835 5.85118,-2.73152 0.51265,0.31684 -0.66983,1.53387 -2.62774,2.70451 -10.84514,6.48439 -16.33838,9.54992 -27.64254,15.42603 -6.875,3.57376 -12.9185,6.87229 -13.43,7.33007 -1.00357,0.89819 2.69334,6.77696 13.3183,21.17857 l 6.4969,8.80622 1.33933,-2.55622 c 0.73664,-1.40592 1.78653,-2.55622 2.33309,-2.55622 0.54656,0 0.26337,1.41238 -0.6293,3.13861 -1.95442,3.77944 -1.22031,5.87211 4.14214,11.8077 2.01425,2.22953 3.20673,4.05369 2.64997,4.05369 -0.55677,0 -2.84342,-2.1375 -5.08145,-4.75 l -4.06915,-4.75 -0.0349,3.22976 c -0.0602,5.56894 2.6979,10.65551 7.94926,14.66026 6.2476,4.76448 13.11065,7.26351 22.26913,8.10881 6.7034,0.61871 7.6487,0.4564 12.60901,-2.16499 3.26449,-1.7252 6.58983,-4.53532 8.5,-7.18305 2.71191,-3.75905 3.10541,-5.08208 2.89987,-9.75 -0.23755,-5.39463 -0.23438,-5.40079 2.78211,-5.40079 7.34779,0 14.95212,-6.89599 18.31556,-16.60948 3.85661,-11.13772 -5.58521,-25.39052 -16.82003,-25.39052 -4.13853,0 -4.22012,-0.23589 -1.43459,-4.14781 1.55387,-2.18222 2.12003,-4.5247 2.16165,-8.94394 0.0477,-5.06707 -0.39716,-6.63272 -2.89442,-10.18589 -1.62295,-2.30917 -4.95819,-5.55387 -7.41165,-7.21043 -3.90635,-2.63755 -5.33093,-3.01193 -11.46083,-3.01193 l -7,0 0.01,3.25 c 0.005,1.7875 -0.33219,3.25 -0.75,3.25 -0.41815,0 -0.76,-0.9 -0.76,-2 0,-2.37958 -0.28743,-2.42415 -3.79966,-0.58928 -2.99491,1.56462 -6.9263,5.62305 -9.56213,9.87115 -0.94934,1.53002 -2.15976,2.51383 -2.68981,2.18624 -0.58446,-0.36122 -0.46878,-1.15965 0.29393,-2.0288 0.69172,-0.78825 2.83267,-3.40006 4.75767,-5.80403 1.925,-2.40396 4.96919,-5.17981 6.76487,-6.16854 3.7181,-2.04725 3.6822,-2.56076 -0.80442,-11.50824 -4.42684,-8.82823 -15.58176,-18.55552 -24.07078,-20.99014 -3.28246,-0.9414 -3.38969,-0.86053 -16.13635,12.16933 -7.05756,7.21437 -13.08101,12.86795 -13.38545,12.56351 -0.30444,-0.30444 5.07555,-6.17445 11.95554,-13.04446 6.87999,-6.87001 12.24676,-12.75324 11.92616,-13.07383 -0.91256,-0.91256 -9.90461,-0.68091 -19.5666,0.50408 -12.70714,1.55846 -24.65605,7.86739 -36.51668,19.28054 l -5.33371,5.13247 0.59536,5.5 c 0.32745,3.025 1.02351,7.75 1.54681,10.5 0.5233,2.75 1.67181,13.775 2.55226,24.5 1.44103,17.55374 4.83123,54.62492 5.87573,64.25 0.22382,2.0625 0.0686,3.75 -0.34489,3.75 -0.71807,0 -1.39288,-6.08511 -4.54673,-41 -2.0038,-22.18313 -3.48162,-37.81015 -4.06643,-43 -1.5589,-13.83418 -2.80037,-22 -3.34471,-22 -0.33879,0 -3.39454,4.1625 -6.79057,9.25 -6.12055,9.16905 -10.90195,18.71867 -11.77053,23.50865 -0.67171,3.70426 -1.53888,3.99943 -1.53888,0.52381 0,-4.1305 6.55658,-16.85801 14.26208,-27.6853 l 6.33592,-8.90285 -1.77191,-11.09715 c -0.97455,-6.10344 -2.51324,-15.2652 -3.4193,-20.35948 l -1.64739,-9.26232 -3.1297,3.36593 c -1.72134,1.85127 -4.7809,5.34312 -6.79903,7.75966 -2.01813,2.41655 -3.99126,4.07179 -4.38473,3.67832 -0.39348,-0.39347 2.57668,-4.36724 6.60034,-8.8306 l 7.31574,-8.1152 -1.33297,-7.66674 c -2.45969,-14.14713 -2.71511,-16.16673 -2.0446,-16.16673 0.65279,0 4.55836,19.76946 4.19807,21.25 -0.10039,0.4125 0.26748,0.75 0.81748,0.75 0.55,0 1.0088,-0.3375 1.01955,-0.75 0.0108,-0.4125 2.14825,-3.06506 4.75,-5.89458 2.60175,-2.82952 7.20545,-8.20131 10.23045,-11.93731 3.025,-3.736 7.55324,-9.07094 10.06276,-11.85542 2.50952,-2.78448 6.33452,-7.31269 8.5,-10.06269 2.16548,-2.75 4.19194,-5.225 4.50324,-5.5 0.3113,-0.275 2.09264,-2.75 3.95854,-5.5 1.8659,-2.75 4.22737,-5.9 5.24771,-7 6.53463,-7.04477 14.28671,-22.37908 21.28118,-42.09606 5.37486,-15.15139 6.25595,-18.84522 7.41344,-31.07966 0.65105,-6.88149 0.49745,-12.30583 -0.58287,-20.58403 -2.16124,-16.56084 -2.42378,-17.30689 -5.95168,-16.91215 -4.90855,0.54922 -20.60581,6.1002 -26.28847,9.29633 -3.0362,1.70767 -5.16822,2.44141 -4.92226,1.69403 0.95669,-2.90705 18.89179,-10.27033 30.09538,-12.3557 l 3.81698,-0.71047 -0.65136,-4.12615 c -1.47555,-9.3471 -8.24559,-27.49539 -13.73259,-36.81262 -2.96344,-5.03209 -3.3696,-6.31449 -1.66658,-5.26196 2.94715,1.82143 15.90439,32.20621 15.92216,37.33749 0.003,0.88602 0.45072,3.21336 0.99479,5.17185 l 0.98921,3.56091 6.25521,0.16379 c 5.96856,0.15629 17.97912,3.17617 25.99416,6.53585 5.38624,2.25776 11.26016,6.50815 19.35151,14.00282 6.09865,5.64891 7.87934,8.14879 12.73013,17.87165 8.42653,16.88999 14.68106,41.89657 14.67804,58.68507 -0.002,13.67385 -4.49855,35.08765 -9.50937,45.29076 -3.46559,7.05671 -10.65709,17.6554 -15.49046,22.82954 -2.30455,2.46702 -2.49836,2.97465 -0.94785,2.48254 3.38768,-1.07521 2.11332,0.39172 -2.29325,2.63978 -2.33327,1.19035 -7.74652,4.79949 -12.02944,8.02033 -8.2597,6.21144 -9.28307,6.74426 -8.36663,4.35606 0.37216,-0.96984 -0.0318,-1.511 -1.14301,-1.53113 -0.94524,-0.0171 1.8577,-1.91561 6.22876,-4.21887 13.18757,-6.94896 24.88531,-19.40904 32.5188,-34.63806 5.18924,-10.35266 9.03382,-29.53559 9.03382,-45.07515 0,-26.15334 -10.42493,-59.10573 -22.89552,-72.37094 -8.72652,-9.28257 -24.9076,-19.66285 -30.65448,-19.66506 -1.1275,-4.3e-4 -2.4775,-0.40274 -3,-0.89401 -1.37257,-1.29053 -10.78923,-3.10678 -16.10763,-3.10678 -4.22637,0 -4.51854,0.16425 -4.00233,2.25 3.05478,12.3429 3.9588,35.93017 1.77261,46.25 -2.63991,12.46159 -11.48251,36.8241 -17.785,49 -3.92621,7.58511 -20.67455,29.56748 -35.80924,47 -3.34252,3.85 -8.08867,9.475 -10.54701,12.5 -2.45833,3.025 -6.04508,7.22705 -7.97055,9.33788 -1.92547,2.11083 -3.79227,4.36083 -4.14845,5 -0.35617,0.63917 0.38462,7.2479 1.6462,14.68608 1.26159,7.43818 2.61793,16.55068 3.0141,20.25 0.39616,3.69932 0.8724,6.72604 1.0583,6.72604 0.18591,0 2.93979,-2.49992 6.11974,-5.55539 13.45456,-12.92786 27.93633,-18.44461 48.4181,-18.44461 l 10.60958,0 4.39079,-3.76695 c 2.41493,-2.07183 6.64079,-5.52109 9.39079,-7.66503 2.75,-2.14393 5.45,-4.39275 6,-4.99736 0.55,-0.60461 5.5,-4.66482 11,-9.02269 5.5,-4.35786 11.6888,-9.41392 13.75288,-11.23568 3.63971,-3.2124 5.74712,-4.13936 5.74712,-2.5279 0,0.43142 -1.2375,1.53085 -2.75,2.44319 -1.5125,0.91234 -3.875,2.71379 -5.25,4.00321 -3.58052,3.35769 -21.88282,18.2473 -30.86021,25.10595 -11.47974,8.77042 -11.20205,7.86576 -3.56797,11.624 9.09743,4.47865 17.20173,12.72526 20.94116,21.30888 l 2.89991,6.65656 5.72642,-0.59853 c 4.16389,-0.43521 6.86627,-0.14246 9.90374,1.0729 5.45255,2.18168 13.58366,9.93833 15.03821,14.34568 1.10416,3.34563 0.80747,11.45491 -0.58079,15.87457 -0.54221,1.72619 -0.15701,2.24859 2.0702,2.80758 5.21709,1.30941 10.90061,6.17299 13.71578,11.73709 4.6922,9.27397 3.14963,17.15694 -5.28004,26.98254 -3.16773,3.69229 -5.00563,4.89222 -8.9384,5.83567 l -4.95073,1.18767 0.1106,4.85546 c 0.13731,6.02836 -2.80079,10.78647 -9.22788,14.94407 -3.97037,2.56839 -11.66421,5.15921 -14.5,4.88273 -0.55,-0.0536 -3.475,-0.46479 -6.5,-0.91372 z m 39.79174,-4.61608 c 1.01085,-0.4056 1.03094,-0.83254 0.0924,-1.96344 -0.90844,-1.0946 -0.91856,-1.72593 -0.0417,-2.60275 1.65419,-1.65419 1.43575,-3.23334 -0.25335,-1.83151 -1.08301,0.89882 -1.58904,0.88289 -2.17705,-0.0685 -0.4285,-0.69332 -0.2474,-1.41244 0.41097,-1.6319 0.64738,-0.21579 1.17705,-1.6567 1.17705,-3.20202 0,-1.63957 0.65875,-3.06247 1.58179,-3.41667 2.41635,-0.92724 2.77213,-0.73837 1.49892,0.79576 -0.89398,1.07718 -0.86437,1.52306 0.12755,1.92106 0.81257,0.32603 0.63402,0.54758 -0.48131,0.59724 -1.68052,0.0748 -1.68392,0.21499 -0.065,2.68569 1.60282,2.44622 1.60383,2.66504 0.0164,3.55339 -1.29737,0.72605 -1.45699,1.38495 -0.68495,2.82752 1.38639,2.5905 1.2764,3.02452 -0.74339,2.9334 -1.11289,-0.0502 -1.27973,-0.26764 -0.45826,-0.59724 z m 3.20826,-8.20578 c 0,-0.55 0.45,-1.27811 1,-1.61803 0.55,-0.33992 1,-0.16803 1,0.38197 0,0.55 -0.45,1.27811 -1,1.61803 -0.55,0.33992 -1,0.16803 -1,-0.38197 z m -40.57963,-26.61803 c 0.24176,-1.65 0.72863,-3.74685 1.08192,-4.65966 0.45192,-1.16763 -0.0461,-1.88698 -1.67997,-2.42643 l -2.32232,-0.76677 2.5,-0.61586 c 1.40109,-0.34515 3.14087,-1.91596 3.95798,-3.57357 1.16412,-2.36158 1.53348,-2.59531 1.83257,-1.15967 0.20603,0.98892 -0.16766,2.45142 -0.83042,3.25 -1.01617,1.22441 -0.59812,1.47078 2.66743,1.57205 l 3.87244,0.12009 -4.25,1.02199 c -2.77595,0.66753 -4.26564,1.57967 -4.2951,2.62991 -0.0248,0.88436 -0.70413,2.95792 -1.50961,4.60792 l -1.46449,3 z M 514.49997,360.29123 c 0,-1.0712 46.50946,-47.58859 57.93683,-57.94671 l 6.43683,-5.83454 -1.69419,-2.58565 -1.69418,-2.58566 -11.24265,9.13888 c -21.10403,17.15497 -28.38634,20.94317 -51.74264,26.91612 -15.386,3.93468 -15.56619,3.9554 -24.5,2.81677 -33.12763,-4.22219 -56.21566,-21.33363 -72.40995,-53.66584 -2.48741,-4.96617 -6.87829,-22.76028 -7.21867,-29.25384 -0.40092,-7.64824 -0.92212,-7.75704 -8.37138,-1.74742 -8.74916,7.05831 -23.03439,17.54637 -23.40041,17.18034 -0.26341,-0.26341 0.48431,-1.1536 1.66159,-1.9782 1.17728,-0.8246 2.72513,-2.06605 3.43967,-2.75878 0.71453,-0.69273 6.01812,-4.8452 11.78576,-9.22772 14.76293,-11.21757 14.01339,-10.42868 14.01339,-14.74891 0,-11.71552 4.81569,-28.7268 10.38118,-36.67126 1.71535,-2.44858 3.43185,-4.91054 3.81445,-5.47104 0.38259,-0.5605 0.96359,-0.75113 1.2911,-0.42362 0.3275,0.32751 -0.48765,1.88948 -1.81145,3.47104 -6.20688,7.41541 -10.4176,19.57751 -11.36365,32.82238 l -0.63906,8.94681 10.41372,-8.90537 c 5.72754,-4.89795 12.9144,-11.17402 15.97079,-13.94681 7.52619,-6.82783 24.18014,-21.2632 26.42453,-22.90433 1.6633,-1.21624 1.28458,-1.65888 -4.44518,-5.19548 -3.44486,-2.12629 -5.78769,-4.02455 -5.20629,-4.21834 0.5814,-0.1938 3.43896,1.25167 6.35013,3.21217 2.91117,1.9605 5.61901,3.56454 6.01743,3.56454 0.39841,0 1.63717,-0.97975 2.75278,-2.17723 1.11562,-1.19747 2.36393,-1.8417 2.77402,-1.4316 0.41009,0.41009 -0.36593,1.58406 -1.7245,2.60883 -1.35857,1.02477 -2.25184,2.07708 -1.98506,2.33848 0.26678,0.2614 3.15478,2.26667 6.41777,4.45617 l 5.93271,3.98091 3.56729,-4.31007 c 3.88645,-4.69568 13.96016,-13.80261 17.16536,-15.51798 1.10301,-0.59031 5.46967,-1.99281 9.7037,-3.11667 20.79719,-5.52031 51.30337,3.54402 63.65067,18.91259 10.84324,13.49648 14.32993,26.95954 11.05079,42.67017 -1.30781,6.26583 -2.61025,9.28503 -6.25507,14.5 -4.15162,5.94009 -10.37597,12.36867 -15.38569,15.89051 -1.7558,1.23433 -1.63652,1.614 2.2291,7.09545 2.24629,3.18524 5.39357,7.32339 6.99395,9.19589 1.60038,1.8725 2.91084,3.74205 2.91213,4.15455 0.004,1.43109 1.86491,0.73653 4.92562,-1.83889 3.95291,-3.32615 3.98557,-1.94401 0.05,2.11644 l -3.0267,3.12277 2.42962,2.6216 2.42962,2.62161 -5.65292,5.24497 c -3.10908,2.88473 -18.14039,17.54229 -33.40289,32.57235 -15.2625,15.03006 -27.75,26.86039 -27.75,26.28962 z m -11.5,-31.92492 c 17.70612,-3.70653 31.08779,-8.40445 40.8905,-14.35548 5.4617,-3.31568 19.49369,-14.2049 27.34448,-21.22007 l 3.35735,-3 -7.6125,-10.34495 c -6.79256,-9.2307 -7.79385,-10.20009 -9.29617,-9 -2.7527,2.19892 -6.34264,4.01931 -6.87552,3.48642 -0.2734,-0.2734 1.34542,-1.66023 3.59738,-3.08183 2.25196,-1.4216 4.09448,-2.71666 4.09448,-2.8779 0,-0.16125 -1.125,-1.81803 -2.5,-3.68174 -1.375,-1.86371 -2.5,-3.83978 -2.5,-4.39128 0,-0.5515 1.39034,0.88784 3.08964,3.19854 l 3.08965,4.20126 2.67559,-1.90518 c 8.87846,-6.32202 17.1163,-17.05887 19.74357,-25.73292 0.83072,-2.74267 1.47897,-8.84202 1.48383,-13.96142 0.01,-10.04205 -1.80624,-16.42849 -6.99883,-24.61637 -7.45135,-11.74955 -15.58299,-17.62868 -31.58345,-22.83464 -8.67394,-2.82218 -11.39237,-3.25568 -20.5,-3.26907 -10.6247,-0.0156 -18.87409,1.55997 -24.63684,4.70551 -3.30692,1.80504 -11.66395,9.39945 -16.3595,14.86661 -3.69344,4.30037 -3.28393,5.52007 2.92944,8.72497 1.9618,1.0119 4.47845,2.70249 5.59257,3.75687 1.11412,1.05437 3.24776,2.71778 4.74142,3.69646 1.49365,0.97869 2.47087,2.17563 2.17159,2.65987 -0.29928,0.48425 -1.53291,-0.0416 -2.74141,-1.16857 -1.2085,-1.12697 -5.42935,-4.24265 -9.37967,-6.92375 -7.96855,-5.40829 -7.54259,-5.49937 -11.66071,2.49311 -3.34864,6.49908 -5.73629,15.853 -4.99398,19.56455 0.37113,1.85565 0.17326,2.93545 -0.53791,2.93545 -3.25381,0 -0.0372,-14.68044 5.41256,-24.70297 l 3.37289,-6.20297 -7.01601,-4.66424 -7.01602,-4.66423 -2.56537,2.3672 c -1.41096,1.30197 -4.19611,3.95836 -6.18921,5.90309 -1.99311,1.94474 -6.54884,5.98701 -10.12384,8.98283 -3.575,2.99582 -10.13461,8.60468 -14.57691,12.46412 -12.104,10.51588 -18.56011,15.92581 -20.06896,16.81686 -3.68924,2.1787 0.55145,27.50319 6.73171,40.20031 5.79704,11.90982 9.65669,17.5861 17.41416,25.61053 8.04802,8.32497 16.69953,14.98374 23.36637,17.9843 15.63919,7.03877 33.70359,10.26878 44.63363,7.98072 z M 470.6166,280.58024 c 0.21085,-0.55592 2.63337,-2.93257 5.38337,-5.28145 2.75,-2.34889 7.475,-6.40317 10.5,-9.00952 12.37865,-10.6655 21.8046,-18.65226 25.05535,-21.22979 l 3.44465,-2.73129 -2.39166,-2.04372 c -1.31542,-1.12404 -2.10114,-2.33424 -1.74606,-2.68932 0.35508,-0.35509 1.71878,0.36258 3.03044,1.59482 l 2.38483,2.24043 6.86122,-6.27196 c 11.84508,-10.82779 12.3292,-11.23304 12.82593,-10.73632 0.26705,0.26706 -3.77825,4.19754 -8.98957,8.73441 -5.21132,4.53687 -9.47513,8.84296 -9.47513,9.5691 0,0.72613 0.675,1.88044 1.5,2.56513 0.825,0.68469 1.48503,1.75229 1.46673,2.37244 -0.0183,0.62016 -0.87793,0.11506 -1.91029,-1.12244 -1.03236,-1.2375 -2.40961,-2.25 -3.06055,-2.25 -1.02553,0 -15.71119,12.19256 -35.33142,29.33341 -6.92003,6.04556 -10.07405,8.34342 -9.54784,6.95607 z"
       id="path3628"
       inkscape:connector-curvature="0"
       sodipodi:nodetypes="sssssssscssscsssscssssscsssscsssscsssssscssscsssssssscssssscssssscssssssssssssssssscscsscscsssccssssssssssscssscssscssssssssssscssssssssssscscscscsssssssssscssscsscssssssssscsssssssssssssscssssssssssssssscsssssscsssssssssssssscssssssssssssssssssscscsscsssssssssssssssssssscsssssssscssssssscsssssscssssssssssssssccssssssssssssscsscsssssssssssscsscsssscsscscsssssssssssssscssscscsssscsssssscssssssssssssscssssscssssssssssscsssssssscsscscccssssssscccssccsssssssscssssscssscssscccssssssssssssccsscsssscssssssscssssssssscsscccsssssscsssssssscsscssssssssssssssscccssssssssssssscssscscssssssss" />
  </g>
</svg>
