<?xml version="1.0" encoding="UTF-8" standalone="no"?>
<!-- Created with Inkscape (http://www.inkscape.org/) -->

<svg
   xmlns:dc="http://purl.org/dc/elements/1.1/"
   xmlns:cc="http://creativecommons.org/ns#"
   xmlns:rdf="http://www.w3.org/1999/02/22-rdf-syntax-ns#"
   xmlns:svg="http://www.w3.org/2000/svg"
   xmlns="http://www.w3.org/2000/svg"
   xmlns:sodipodi="http://sodipodi.sourceforge.net/DTD/sodipodi-0.dtd"
   xmlns:inkscape="http://www.inkscape.org/namespaces/inkscape"
   width="197.28273mm"
   height="35.75671mm"
   viewBox="0 0 699.0333 126.697"
   id="svg2"
   version="1.1"
   inkscape:version="0.91 r13725"
   sodipodi:docname="schreibdochmalwieder.svg">
  <defs
     id="defs4" />
  <sodipodi:namedview
     id="base"
     pagecolor="#ffffff"
     bordercolor="#666666"
     borderopacity="1.0"
     inkscape:pageopacity="0.0"
     inkscape:pageshadow="2"
     inkscape:zoom="0.98994949"
     inkscape:cx="241.02708"
     inkscape:cy="23.188103"
     inkscape:document-units="px"
     inkscape:current-layer="layer1"
     showgrid="false"
     fit-margin-top="5"
     fit-margin-left="5"
     fit-margin-right="5"
     fit-margin-bottom="5"
     inkscape:window-width="1657"
     inkscape:window-height="507"
     inkscape:window-x="115"
     inkscape:window-y="261"
     inkscape:window-maximized="0" />
  <metadata
     id="metadata7">
    <rdf:RDF>
      <cc:Work
         rdf:about="">
        <dc:format>image/svg+xml</dc:format>
        <dc:type
           rdf:resource="http://purl.org/dc/dcmitype/StillImage" />
        <dc:title></dc:title>
      </cc:Work>
    </rdf:RDF>
  </metadata>
  <g
     inkscape:label="Layer 1"
     inkscape:groupmode="layer"
     id="layer1"
     transform="translate(-42.120414,-450.37438)">
    <rect
       style="fill:#acacac;fill-opacity:1;fill-rule:nonzero;stroke:none;stroke-width:50;stroke-linecap:round;stroke-linejoin:round;stroke-miterlimit:4;stroke-dasharray:none;stroke-dashoffset:0;stroke-opacity:1"
       id="rect4262"
       width="612.85712"
       height="2.1428571"
       x="105.40613"
       y="555.35712" />
    <path
       style="fill:#000000"
       d="m 169.0957,21.716797 c -0.63487,0 -4.24397,3.135268 -7.89648,6.861328 -4.39916,4.48774 -8.34468,9.08276 -12.40039,14.4375 -0.68734,0.9075 -1.58045,1.987891 -1.98438,2.400391 -0.40393,0.4125 -1.14992,1.357109 -1.65625,2.099609 -0.50632,0.7425 -1.41958,1.958672 -2.02929,2.701172 -0.60971,0.7425 -1.2921,1.694734 -1.51758,2.115234 -0.22548,0.4205 -0.85277,1.36511 -1.39453,2.09961 -2.35085,3.18721 -5.06728,7.221543 -6.05664,8.996093 -1.03578,1.85778 -2.37045,4.003903 -3.51758,5.658204 -0.52682,0.759729 -1.38678,2.189687 -1.91211,3.179687 -0.52533,0.99 -1.19107,2.138281 -1.47852,2.550781 -0.28746,0.4125 -0.62674,1.0875 -0.7539,1.5 -0.12715,0.4125 -0.53686,1.425 -0.91211,2.25 -0.37525,0.825 -0.90729,2.207956 -1.18164,3.072266 -0.27436,0.86431 -0.62301,1.647987 -0.77539,1.742187 -0.15239,0.09418 -0.27735,0.446633 -0.27735,0.783203 0,1.054701 -0.95182,2.674523 -1.96875,3.351563 -0.53724,0.35768 -2.03631,1.401689 -3.33008,2.318359 -1.29377,0.91668 -3.49984,2.320031 -4.90234,3.119141 -1.4025,0.79912 -3.09114,1.821528 -3.75391,2.273437 -1.84201,1.256 -7.81667,4.189454 -8.5332,4.189454 -0.34946,0 -1.165649,0.269609 -1.812499,0.599614 -0.64686,0.32999 -1.563039,0.60156 -2.037109,0.60156 -0.47408,0 -0.953926,0.0906 -1.066406,0.20312 -0.37333,0.37334 -2.481208,0.1785 -3.548828,-0.32812 -0.578601,-0.27457 -1.335374,-0.884461 -1.683594,-1.355471 -0.56931,-0.77003 -0.609023,-1.06231 -0.382813,-2.91211 0.13837,-1.13147 0.581998,-2.832033 0.986328,-3.777343 1.0963,-2.5631 3.460485,-6.659573 4.296875,-7.445313 0.40446,-0.37997 0.736328,-0.847432 0.736328,-1.039062 0,-0.35641 4.969888,-4.285428 6.947268,-5.492188 0.98372,-0.60035 1.24571,-0.635553 2.53906,-0.345703 1.88953,0.42345 3.14259,1.211217 5.51367,3.466797 1.53037,1.45582 2.19131,1.880415 3.07422,1.978515 0.61875,0.06872 1.125,0.04737 1.125,-0.04883 0,-0.24925 -1.92421,-3.292589 -2.73047,-4.318359 -0.37308,-0.47465 -1.64552,-1.578555 -2.82812,-2.453125 -2.9399,-2.17416 -5.08539,-2.552904 -7.94141,-1.402344 -0.92226,0.37153 -4.196701,2.932178 -5.945311,4.648438 -1.40523,1.37921 -4.253907,4.83244 -4.253907,5.15625 0,0.11003 -0.394513,0.69756 -0.876953,1.30664 -2.061,3.01793 -3.941923,6.296739 -4.283203,8.699219 -0.29589,0.05637 -0.968925,-0.414147 -1.609375,-1.123047 -0.60565,-0.67037 -1.238943,-1.21875 -1.408203,-1.21875 -0.16926,0 -0.997054,-0.577793 -1.839844,-1.283203 -0.84279,-0.70542 -2.072422,-1.649339 -2.732422,-2.099609 -4.749939,-3.2405 -6.778353,-6.254244 -6.814453,-10.121094 -0.02508,-2.68375 0.938671,-4.5748 3.056641,-6 5.32226,-3.58142 6.773014,-4.167133 10.771484,-4.345703 1.58674,-0.07087 3.333197,-0.261918 3.878907,-0.423828 0.5457,-0.16196 1.210885,-0.210122 1.478515,-0.107422 0.40331,0.15477 0.38599,0.05151 -0.09375,-0.597656 -1.27481,-1.72507 -5.39779,-2.48156 -9.1875,-1.6875 -4.62387,0.96885 -11.541388,5.997473 -12.673828,9.214843 -0.582,1.6534 -0.618735,4.865032 -0.07813,6.800782 0.98744,3.53574 2.290608,5.048722 8.460938,9.820312 0.165,0.1276 1.666117,1.232588 3.335937,2.455078 3.33332,2.44034 4.314453,3.55692 4.314453,4.91211 0,1.078526 -1.624117,3.588546 -2.748047,4.246096 -0.43917,0.25693 -1.85706,1.10011 -3.15039,1.875 -3.57693,2.14312 -5.417492,2.86546 -7.107422,2.78906 -1.19889,-0.0542 -1.580943,-0.21855 -2.164063,-0.93164 -0.43231,-0.52865 -0.715609,-1.27506 -0.724609,-1.91601 -0.03827,-2.6127 -1.34552,-2.37066 -1.65625,0.30664 -0.27247,2.34756 0.280195,3.66417 2.109375,5.01953 2.17044,1.60821 3.395376,1.43606 8.597656,-1.20117 3.81856,-1.93577 4.563578,-2.44522 6.767578,-4.62891 1.362,-1.34947 2.476563,-2.66455 2.476563,-2.92383 0,-0.66431 0.229389,-0.59499 1.380859,0.41602 0.55587,0.48806 1.585653,1.06223 2.289063,1.27539 1.57564,0.47747 5.762289,0.4398 6.980468,-0.0625 0.495001,-0.2041 1.303829,-0.47924 1.798833,-0.61133 1.65993,-0.44295 5.28435,-2.07403 7,-3.150393 0.93488,-0.58652 3.185,-1.9504 5,-3.03125 3.16397,-1.88417 6.49055,-4.209684 6.70117,-4.683594 0.055,-0.12375 0.24627,-0.224609 0.42578,-0.224609 0.17951,0 0.56768,-0.218818 0.86328,-0.486328 0.82287,-0.74467 1.45786,-0.312677 1.47266,1.001953 0.007,0.62393 0.33028,2.060246 0.71875,3.191406 0.89984,2.6202 3.39693,5.440335 5.09961,5.759765 1.85042,0.34714 4.70449,-0.0248 6.46875,-0.84179 0.9075,-0.42023 2.27751,-1.031845 3.04297,-1.361334 1.24683,-0.536691 2.85157,-1.56746 7.1582,-4.59375 0.7425,-0.52176 1.41749,-1.048586 1.5,-1.171876 0.0825,-0.123289 0.79383,-0.714643 1.58203,-1.314453 1.43026,-1.08838 1.43352,-1.089969 1.68946,-0.412109 0.14886,0.39423 0.13723,0.906793 -0.0274,1.220703 -0.44219,0.8433 -0.30817,3.584913 0.21485,4.414063 0.1543,0.2446 0.48397,0.845307 0.73437,1.335937 0.59402,1.16395 2.54448,2.460489 4.05664,2.697269 8.34263,0.23692 10.88277,-3.222966 7.91211,-2.87891 -0.60033,0.187175 -2.393,0.339844 -4.00586,0.339844 -2.7008,0 -3.03439,-0.06488 -3.95312,-0.765625 -1.96297,-1.49722 -2.28077,-3.113168 -1.45703,-7.417969 0.24555,-1.283229 0.63972,-2.705186 0.875,-3.160156 1.05715,-2.0443 0.81802,-4.138234 -0.46875,-4.115234 -0.2732,0.0049 -1.82492,1.373925 -3.44922,3.041016 -2.80745,2.88142 -5.23145,4.917139 -7.48047,6.287109 -0.55956,0.34085 -1.32231,0.888184 -1.69531,1.214844 -0.37299,0.32667 -1.0305,0.768281 -1.46094,0.982421 -0.43045,0.214151 -1.44295,0.882989 -2.25,1.486329 -2.2501,1.68213 -4.47146,2.481153 -6.50587,2.339843 -1.98995,-0.13822 -2.92283,-0.669347 -3.98437,-2.273437 -0.91449,-1.3819 -1.1672,-3.738561 -0.6914,-6.457031 0.42278,-2.41553 0.90099,-3.230639 2.51367,-4.298828 0.75299,-0.49876 2.02757,-1.492115 2.83398,-2.208985 0.80642,-0.71687 2.03577,-1.776016 2.73243,-2.353515 4.07812,-3.38061 11.00065,-10.037252 13.57226,-13.050782 0.42241,-0.495 1.41894,-1.646714 2.21485,-2.558594 0.79589,-0.911889 1.85265,-2.177523 2.34765,-2.814453 0.495,-0.63693 1.54047,-1.968561 2.32421,-2.957031 0.78375,-0.98847 1.42579,-2.04297 1.42579,-2.34375 0,-0.30077 0.16972,-0.653206 0.37694,-0.785156 0.4221,-0.26876 2.7047,-3.292975 3.01172,-3.990234 0.10898,-0.247501 0.57374,-1.058282 1.03321,-1.800782 0.45949,-0.7425 1.1036,-1.804285 1.43164,-2.359375 0.32803,-0.55508 0.87241,-1.433402 1.21093,-1.951172 0.33853,-0.51777 0.93974,-1.750594 1.33594,-2.740234 0.3962,-0.98965 0.8839,-2.0025 1.08203,-2.25 0.63459,-0.79272 2.18479,-4.216111 2.33203,-5.150391 0.0783,-0.49693 0.34091,-1.1266 0.58399,-1.40039 0.24308,-0.27379 0.74075,-1.510547 1.10547,-2.748047 0.36473,-1.2375 0.86038,-2.636955 1.10351,-3.109375 0.53407,-1.03776 1.29297,-3.856421 1.29297,-4.806641 0,-0.59489 -1.73667,-2.583984 -2.25586,-2.583984 z m -1.13086,4.798828 c 0.46817,0 0.34678,0.682846 -0.39453,2.222656 -0.23065,0.4791 -0.41992,1.09786 -0.41992,1.375 0,0.27715 -0.0942,0.596158 -0.20898,0.710938 -0.11477,0.11477 -0.23583,0.397163 -0.26953,0.626953 -0.19155,1.30502 -4.03292,9.851283 -4.58008,10.189453 -0.18724,0.11572 -0.33985,0.458026 -0.33985,0.759766 0,0.30175 -0.47328,1.234678 -1.05078,2.074218 -0.5775,0.83954 -1.05078,1.596088 -1.05078,1.679688 0,0.50937 -5.29364,8.596144 -7.64453,11.677734 -0.99258,1.30109 -2.07008,2.718981 -2.39453,3.150391 -2.62956,3.49642 -8.94375,10.262634 -13.08399,14.021484 -3.72116,3.37838 -4.24533,3.827337 -6.12695,5.248047 -2.17956,1.64569 -2.42124,1.791644 -2.62305,1.589844 -0.21828,-0.21829 0.58208,-2.789514 1.12696,-3.621094 0.24597,-0.3754 0.44726,-0.871059 0.44726,-1.099609 0,-0.22855 0.39836,-0.966465 0.88672,-1.640625 0.48836,-0.67416 1.10322,-1.738135 1.36524,-2.365235 0.26201,-0.6271 0.7221,-1.41189 1.02343,-1.74414 0.30132,-0.33225 0.88272,-1.212578 1.29102,-1.955078 0.7213,-1.31172 1.61408,-2.733569 5.83984,-9.298828 1.97918,-3.07493 4.74566,-7.067685 7.34961,-10.609376 0.71149,-0.967719 1.69836,-2.342857 2.19336,-3.054687 1.1306,-1.62586 3.57473,-4.649313 4.95117,-6.126953 0.5775,-0.61996 1.517,-1.719589 2.08789,-2.44336 0.57089,-0.72377 2.69675,-2.989646 4.72461,-5.035156 2.02786,-2.04552 3.6875,-3.827767 3.6875,-3.960937 0,-0.36288 2.72081,-2.371094 3.21289,-2.371094 z m -6.57617,4.800781 c 0.35422,0 0.36538,0.08427 0.0625,0.449219 -0.2054,0.2475 -0.4027,0.451172 -0.4375,0.451172 -0.0348,0 -0.0625,-0.203672 -0.0625,-0.451172 0,-0.2475 0.1973,-0.449219 0.4375,-0.449219 z m 341.625,0.578125 c -0.92657,-0.08737 -2.01007,0.311757 -3.15039,1.207031 -5.8268,4.601911 -10.85856,9.146994 -15.79492,14.689454 -7.59305,7.75455 -13.596,16.93267 -18.99609,26.77539 -0.55101,1.155 -1.23875,2.369219 -1.52735,2.699219 -0.2886,0.33 -0.62652,0.939062 -0.75,1.351563 -0.12345,0.4125 -0.54998,1.424999 -0.94922,2.25 -1.67109,3.45296 -2.56765,7.277551 -2.46289,10.513671 0.0345,1.06714 0.009,1.979291 -0.0586,2.025391 -4.51453,3.2937 -7.5494,5.614209 -13.81836,7.32422 -1.6068,0.16202 -2.85361,-0.46175 -3.02539,-1.51172 -0.2205,-1.3476 0.75226,-3.661416 2.57812,-6.134766 1.41297,-1.91661 2.45278,-4.426015 4.66211,-7.416015 0.0711,-0.16417 0.57865,-0.939777 1.12891,-1.722657 0.55029,-0.782879 1.00391,-1.592831 1.00391,-1.800781 1.57834,-2.55673 3.47731,-3.153904 1.75976,-5.402343 -1.01676,-0.75835 -1.52392,-0.505278 -4.2793,2.132812 -2.04681,1.95968 -1.35694,1.303428 -2.34375,1.236328 -1.0598,-2.68345 -3.44108,-3.063772 -5.60156,-1.539062 -1.8375,0.83341 -4.54713,2.796617 -6.76953,4.904296 -1.16538,1.105221 -2.65836,2.39851 -3.31836,2.875 -1.72857,1.247971 -3.82091,3.755194 -5.39453,6.464844 -1.8309,3.15267 -1.81879,6.927792 0.0293,9.363284 l 0.69336,0.91406 -0.92969,0.34961 c -1.07127,0.40435 -1.51428,0.2281 -2.79102,-1.11328 -1.10253,-1.15834 -1.46672,-3.474923 -0.80273,-5.113283 1.14639,-2.82875 3.01387,-6.383316 4.4668,-8.503906 0.88671,-1.29413 1.48099,-2.271175 1.32031,-2.171875 -1.09969,-1.44839 -2.06686,-2.638267 -3.76172,-0.373047 -1.728,2.78755 -3.6917,5.11594 -8.87891,10.52539 -4.26123,4.443801 -8.02941,7.153061 -11.75976,8.455081 -1.07985,0.37691 -1.87806,-1.4202 -2.15235,-2.20703 -0.39396,-1.13013 0.4957,-2.64432 3.10352,-6.257816 1.583,-2.19346 3.83481,-4.862083 5.64453,-6.970703 1.98306,-2.35116 -0.96001,-4.974483 -3.23633,-1.539063 -1.24876,2.13796 -2.97397,3.813026 -4.37695,5.916016 -1.6059,2.44317 -4.47817,4.142103 -6.51172,6.126956 -3.62498,2.04139 -7.04152,4.91048 -11.54687,4.63476 -1.59585,-0.671 -2.0168,-3.29726 -0.96875,-6.054685 2.31748,-5.97137 7.18074,-13.267141 12.83398,-17.644531 1.05108,-0.43917 1.84107,-1.203335 1.85937,-1.796875 0.015,-0.48661 -1.64228,-1.340032 -2.58593,-1.332031 -0.63915,0.0057 -1.34285,0.487255 -2.80274,1.916015 -4.80972,4.79368 -9.94702,11.338065 -12.30468,18.177735 -0.66428,2.983422 -1.51975,5.710282 0.38281,8.173832 3.60897,3.29853 8.98458,1.03905 13.13867,-1.36719 3.8517,-2.37124 3.93352,-2.41051 4.20703,-1.97852 0.54016,1.60496 0.87818,3.33375 2.15039,4.71094 0.41082,0.37975 1.13601,0.79633 1.61133,0.92578 1.10214,0.30019 2.49807,-0.0599 4.76367,-1.23242 1.88577,-0.97596 3.05701,-1.76739 4.14844,-2.80078 0.35859,-0.33953 1.19156,-0.93858 1.85156,-1.33203 0.66,-0.39345 1.98486,-1.46579 2.94336,-2.38282 0.9585,-0.917016 1.90124,-1.667964 2.0957,-1.667964 0.19446,0 0.44032,0.607109 0.54688,1.349604 0.10656,0.7425 0.49644,1.86205 0.86523,2.48633 2.31194,3.68905 6.16734,3.53662 9.89844,2.38282 2.09517,-0.56748 6.48828,-2.91572 8.07813,-4.31836 1.25016,-1.102714 1.7199,-1.360956 2.02539,-1.107426 0.2187,0.181506 0.39648,0.512766 0.39648,0.734376 0,0.58858 1.48642,2.00819 2.70703,2.58594 1.10298,0.52207 3.39946,0.69555 4.94336,0.37304 2.95936,-0.63737 6.28601,-2.21581 8.70508,-4.392574 0.9047,-0.78456 2.12207,-1.195368 3.25781,-1.767578 l 0.87696,-0.533204 0.77929,1.158204 c 1.39944,2.077682 3.7714,4.794872 4.1875,4.796872 2.06299,1.02929 4.19982,2.18481 6.48047,2.67969 4.45267,0.59422 8.56945,-1.34047 12.81445,-2.4082 0.85857,0.0759 2.31572,-0.55765 2.89844,-1.25977 0.27903,-0.33621 0.26389,-0.50744 -0.0684,-0.7832 -0.33051,-0.27429 -0.82028,-0.21912 -2.20703,0.24804 -4.65876,1.56944 -13.2208,2.07049 -15.36523,0.89844 -2.66968,-1.29351 -5.17361,-3.842672 -6.3086,-7.171872 0.16239,-1.42857 -0.0862,-0.841556 3.07617,-4.009766 6.1364,-6.17206 10.56824,-12.846236 16.42383,-20.597656 3.44312,-5.67093 7.28709,-10.404983 11.09571,-16.039063 0.49695,-0.47611 0.90429,-1.01098 0.90429,-1.1875 3.93012,-5.63693 10.12901,-13.156081 10.47266,-19.675781 -0.51456,-1.051325 -1.28437,-1.625518 -2.21094,-1.712891 z m -244.43555,0.447266 c -0.11137,0.02285 -0.22528,0.06672 -0.35156,0.132812 -1.41799,0.74213 -5.70343,5.14038 -7.375,7.56836 -0.4125,0.59916 -1.83578,2.53749 -3.16211,4.30664 -2.3049,3.07443 -4.5128,6.637307 -5.71093,9.216797 -0.30656,0.66 -1.11269,2.145782 -1.79102,3.300782 -1.40312,2.389129 -3.87265,7.261024 -4.19336,8.271484 -0.11791,0.37151 -0.8072,1.942587 -1.53125,3.492187 -0.72406,1.54959 -1.43695,3.360368 -1.58594,4.023438 -0.14898,0.66307 -0.46199,1.432044 -0.69531,1.708984 -0.56295,0.66819 -3.3674,9.468227 -3.98437,12.503907 -0.26828,1.319999 -0.56591,3.999788 -0.66211,5.955078 -0.20071,4.07737 0.076,3.614525 -4.19141,6.978515 -1.64092,1.293539 -2.98489,2.092789 -4.04883,2.404299 -0.87617,0.25653 -1.72215,0.58825 -1.8789,0.73828 -0.38924,0.37257 -2.46005,0.34041 -3.9043,-0.0605 -1.99247,-0.55317 -3.75977,-3.063268 -3.75977,-5.337888 0,-0.73308 1.03764,-2.910688 1.70703,-3.580078 0.24145,-0.24145 0.76604,-1.12736 1.16407,-1.96875 0.39804,-0.84139 0.96823,-1.934688 1.26757,-2.429688 0.29935,-0.495 0.71794,-1.371719 0.93165,-1.949218 0.2137,-0.5775 0.49664,-1.320391 0.6289,-1.650391 0.66705,-1.66433 1.47051,-3.991492 1.63281,-4.732422 0.1456,-0.66475 0.0163,-0.976209 -0.64257,-1.542969 -1.58301,-1.36165 -2.63192,-0.635598 -6.11133,4.238282 -2.27736,3.190069 -4.17969,7.877365 -4.17969,10.296874 0,1.378591 -0.14775,1.885394 -0.79883,2.720704 -1.93923,2.48797 -6.46876,5.133134 -9.84961,5.751954 -3.71377,0.67976 -6.45611,-0.0886 -8.66015,-2.42578 -1.60947,-1.706723 -1.89258,-5.630634 -0.60938,-8.457034 1.26177,-2.77918 1.8742,-3.501965 2.8457,-3.359375 1.70218,0.24983 8.15097,-2.188514 11.04883,-4.177734 1.51465,-1.03971 2.12924,-1.704908 2.88086,-3.117188 1.36503,-2.56489 1.19528,-4.077104 -0.69336,-6.177734 -1.62642,-1.80897 -3.3513,-2.96875 -4.41992,-2.96875 -2.00783,0 -8.58764,6.689372 -10.91992,11.101563 -1.08988,2.06181 -1.43007,2.360181 -2.51758,2.201171 -7.79601,-2.834664 -12.72318,-3.781572 -20.17563,-3.421915 -2.48318,0.201595 -2.52504,1.551804 -2.52504,1.551804 -0.61255,2.158833 2.64805,16.966252 3.96239,20.338862 2.21439,5.91734 6.62823,6.99518 5.74193,4.47925 -3.12069,-6.53364 -6.27762,-19.629106 -6.03026,-22.399461 4.09965,-0.964258 11.96366,0.395192 15.03626,1.767448 1.74677,0.614641 -0.16144,0.335679 3.52355,0.748465 -0.51943,3.020413 -1.80128,4.931359 -1.51171,7.761719 0.3468,3.38975 0.94169,4.898749 2.71484,6.886719 1.95132,2.18774 3.26299,2.65695 7.70117,2.75195 2.71428,0.0581 3.9071,-0.0325 4.5,-0.34179 0.4437,-0.23149 0.97131,-0.42293 1.17188,-0.42383 0.59829,-0.003 4.32505,-2.1234 5.89843,-3.35547 0.8053,-0.63061 1.68398,-1.14077 1.95118,-1.13477 0.27485,0.007 0.78546,0.62618 1.17773,1.42578 0.78393,1.59801 3.30046,3.60019 5.33008,4.24024 1.80309,0.5686 6.78501,0.009 7.77734,-0.87305 0.33,-0.29337 1.06306,-0.76834 1.62891,-1.05469 0.56586,-0.28633 1.97554,-1.24133 3.13281,-2.12304 2.30869,-1.75898 2.69194,-1.75329 2.98438,0.0488 0.19615,1.20875 2.11332,4.27139 2.85156,4.55468 0.26836,0.10298 0.86809,0.53135 1.33398,0.95313 0.46589,0.42178 1.41437,0.91705 2.10742,1.09961 1.31624,0.34673 1.79743,0.25054 3.72461,-0.7461 1.13592,-0.58744 3.44548,-2.82497 4.37305,-4.23632 0.2711,-0.4125 0.87451,-1.28922 1.33984,-1.94922 0.88151,-1.25032 2.17383,-3.829193 2.17383,-4.337893 0,-0.16163 0.41997,-1.798742 0.9336,-3.638672 0.72359,-2.592 0.88977,-3.66862 0.74218,-4.78125 -0.26463,-1.99484 0.0926,-2.273697 3.01563,-2.341797 2.32128,-0.05412 2.9807,-0.207537 5.35742,-1.248047 2.29761,-1.00588 2.55078,-1.027087 2.55078,-0.210937 0,0.40341 -0.18769,0.888635 -0.41601,1.078125 -0.76362,0.63374 -2.21261,4.949159 -2.58594,7.699219 -0.39295,2.894659 -0.2359,6.150892 0.36328,7.537112 0.20031,0.46341 0.8644,1.45569 1.47656,2.20507 0.85958,1.05229 1.48273,1.47923 2.73828,1.875 3.39324,1.06963 5.34082,0.54655 10.25782,-2.76171 2.54841,-1.71462 3.68381,-2.63484 7.90625,-6.402348 1.43484,-1.28024 2.80594,-2.291746 3.04687,-2.248046 0.24096,0.04373 0.52806,0.513541 0.63672,1.044922 0.35643,1.74273 1.88226,4.324201 3.24414,5.488282 1.548,1.3232 4.05961,2.21463 5.66602,2.01172 1.93563,-0.2445 4.67599,-1.1201 5.76562,-1.84375 1.7436,-1.157963 4.64782,-2.875002 4.86328,-2.875002 2.36689,1.909862 2.71421,3.203062 5.81641,3.763672 2.31495,0.24791 4.49746,-0.15375 6.26953,-1.1543 1.53438,-0.866348 2.25,-0.742662 2.25,0.39063 0,1.8538 2.52631,4.82928 5.21875,6.14648 1.48953,0.72876 1.8582,0.79089 3.54687,0.59571 3.18417,-0.36803 8.10881,-2.61167 14.48438,-6.59961 l 2.10156,-1.314458 1.19922,1.150388 c 1.45428,1.39379 2.2434,1.82236 3.35547,1.81836 1.1274,-0.004 3.9264,-1.32706 5.04492,-2.38476 0.495,-0.46808 1.73397,-1.505994 2.75391,-2.306644 1.01994,-0.80065 2.81314,-2.251336 3.98437,-3.222656 1.17123,-0.97132 2.19063,-1.703906 2.26563,-1.628906 0.075,0.07496 -0.0659,1.102566 -0.3125,2.285156 -0.42879,2.056 -0.41827,4.60736 0.0293,6.96094 0.50934,2.67827 3.13424,4.15981 7.47851,4.22461 3.55458,0.053 6.11713,-0.54971 7.03711,-1.65821 0.84003,-1.0122 -0.95864,-1.87493 -2.43164,-1.16601 -0.43707,0.21035 -1.2459,0.39375 -1.79883,0.40625 -0.55296,0.0124 -1.34336,0.0301 -1.75586,0.0391 -1.60233,0.0361 -4.08828,-0.60128 -4.55859,-1.16797 -0.59394,-0.71563 -1.13172,-2.52646 -1.13672,-3.828123 -0.007,-1.79038 0.75941,-5.434882 1.62695,-7.732422 0.49903,-1.34075 0.68156,-2.930372 1.0586,-4.414063 -0.51512,-4.72655 -4.7371,2.17382 -8.08985,4.625 -2.48646,2.35812 -6.68324,5.606615 -8.30468,6.427735 -0.69003,0.34946 -1.33992,0.772103 -1.44336,0.939453 -0.35886,0.58068 -2.07697,0.321895 -2.59375,-0.390625 -0.45381,-0.62607 -0.45242,-0.722209 0.01,-1.292969 0.27441,-0.33887 1.14062,-1.105758 1.92578,-1.705078 1.65678,-1.26465 4.8988,-4.084493 7.65625,-6.658203 9.9392,-9.47383 16.8779,-21.896131 23.74805,-33.769531 3.39393,-6.48435 8.19169,-16.599684 8.37109,-17.371094 1.5828,-3.16252 -2.67023,-2.495421 -5.36914,-0.650391 -0.9075,0.93063 -2.34791,2.324127 -3.20117,3.097657 -0.85326,0.77353 -2.66615,2.79853 -4.02734,4.5 -9.6527,12.05329 -19.88885,24.896593 -27.1211,37.439453 -0.825,1.35992 -1.78607,2.828352 -2.13476,3.263672 -0.34866,0.43533 -0.73322,1.128515 -0.85547,1.541015 -0.12225,0.4125 -0.39652,1.025538 -0.60742,1.361328 -0.76926,1.22486 -2.04312,4.787694 -2.18946,6.121094 -0.0826,0.75262 -0.43388,1.731715 -0.78125,2.177734 -3.65674,4.104738 -10.39505,6.331018 -15.59179,7.894528 -2.9787,0.21984 -5.26121,-2.22367 -5.52539,-5.916012 -0.12321,-1.72212 0.005,-2.537541 0.80859,-5.11914 0.52563,-1.6886 1.18338,-3.541641 1.46094,-4.119141 0.82578,-1.71821 2.92888,-4.906521 3.66211,-5.550781 0.37557,-0.33 -0.81091,0.72539 -0.19336,-0.09961 1.50222,-2.00688 1.24936,-1.82238 2.875,-3 3.08379,-1.742447 3.9938,-0.08336 5.44922,2.322265 0.0973,0.25219 0.26718,-0.433098 0.3789,-1.523438 0.16425,-1.60322 0.10244,-2.166443 -0.32617,-2.939453 -0.56574,-1.02031 -2.88942,-2.410156 -4.0293,-2.410156 -1.55031,0 -1.60217,-0.485738 -5.16992,3.951172 -1.4235,1.77031 -2.38934,2.949219 -2.61719,2.949219 -0.14478,0 -0.26562,-0.236641 -0.26562,-0.525391 -0.006,-1.99179 -1.61971,-4.458364 -3.79492,-5.802734 -1.58316,-0.97844 -3.67136,-0.704572 -6.08594,0.798828 -2.74788,1.71093 -4.0129,2.900181 -6.79492,6.394531 -2.82192,3.54452 -3.43638,4.991368 -3.65235,8.585938 -0.0793,1.32 -0.26029,2.623384 -0.40234,2.896484 -0.31173,0.59936 -5.81813,3.556819 -7.92383,4.255859 -1.41621,0.47019 -1.60558,0.46748 -3.13867,-0.02734 -1.28169,-0.41367 -1.80533,-0.783523 -2.44922,-1.726563 -2.50203,-3.66455 -1.00634,-9.755641 3.56836,-14.525391 2.33532,-2.6993 4.07863,-5.614853 6.07617,-8.689453 0.66,-0.9409 1.19922,-1.802635 1.19922,-1.916015 0,-0.11338 0.50336,-0.98554 1.11914,-1.9375 1.21755,-1.88215 3.68164,-6.104997 3.68164,-6.310547 0,-0.07012 0.24809,-0.485858 0.55274,-0.923828 0.95733,-1.37622 6.82099,-12.738715 8.53906,-16.546875 0.26052,-0.5775 1.02617,-2.259052 1.70117,-3.738282 l 1.22656,-2.689453 -0.57617,-0.761719 c -0.66462,-0.877999 -1.37033,-0.850203 -2.41211,0.0918 -1.01985,0.9222 -4.60667,5.663167 -7.13867,9.435547 -1.18617,1.76728 -2.44332,3.618272 -2.79297,4.113282 -1.4145,2.002529 -2.91273,4.437867 -5.625,9.148437 -1.56756,2.7225 -3.09699,5.300112 -3.39844,5.726563 -0.91064,1.288349 -5.80624,11.270497 -7.49023,15.273437 l -1.57617,3.75 -3.17969,3.115234 c -3.91429,3.81634 -8.27551,7.400252 -13.04687,10.638666 -0.92464,0.63417 -2.41582,1.34541 -3.31446,1.58008 -2.23614,0.58394 -3.8146,-0.007 -4.71093,-1.76367 -1.47672,-2.894597 -0.46053,-10.179156 1.92578,-13.798826 3.02885,-4.48048 12.33138,-10.637873 17.76757,-5.845703 2.1103,1.97434 2.88756,1.914205 2.54493,-0.197265 -0.22923,-1.41251 -1.43762,-2.637354 -3.75782,-3.808594 -1.69125,-0.85374 -1.92123,-0.89132 -4.3164,-0.71875 -7.86632,0.56697 -6.82182,3.106324 -17.42188,5.183594 -4.93832,1.89594 -8.10156,1.90816 -8.10156,0.03125 0,-0.7289 -1.67973,-2.887683 -2.43359,-3.126953 -0.29869,-0.0948 -0.81807,-0.0237 -1.1543,0.15625 -0.96994,0.519099 -0.8569,3.103756 0.20312,4.660156 0.71194,1.04528 0.80682,1.457452 0.76172,3.294922 -0.0283,1.155 -0.20626,2.978281 -0.39453,4.050781 -0.47508,2.70623 -2.25633,7.778882 -3.33789,9.507808 -1.77614,2.83926 -4.59841,5.19141 -6.23047,5.19141 -1.87716,0 -4.63502,-4.60519 -4.54492,-7.589843 0.037,-1.22565 0.32557,-1.871899 1.94531,-4.34961 1.81062,-2.769709 2.68848,-4.230116 2.73828,-4.560546 0.0125,-0.0825 0.64349,-1.10881 1.4043,-2.28125 0.76081,-1.17243 2.82734,-5.086649 4.5918,-8.699219 1.76446,-3.61257 3.33524,-6.809999 3.49023,-7.105469 0.155,-0.29546 0.21266,-0.652385 0.12696,-0.791016 -0.0857,-0.13863 0.23913,-0.749001 0.72265,-1.357421 0.48351,-0.60842 1.03841,-1.603448 1.23242,-2.210938 0.19401,-0.60748 0.47017,-1.231922 0.61524,-1.388672 0.14507,-0.15675 0.26367,-0.46378 0.26367,-0.68164 0,-0.35783 0.55174,-1.595183 3.33008,-7.476563 0.47881,-1.01358 0.87109,-1.938747 0.87109,-2.054687 0,-0.11594 0.24371,-0.56789 0.54297,-1.00586 0.29925,-0.43797 0.73272,-1.403984 0.96289,-2.146484 0.23017,-0.7425 0.66012,-1.755 0.95508,-2.25 0.29496,-0.495 0.53651,-1.074843 0.53711,-1.289063 6.2e-4,-0.21422 0.27156,-0.949792 0.60156,-1.632812 0.33,-0.68302 0.59961,-1.368598 0.59961,-1.523438 0,-0.15485 0.38861,-1.044425 0.86328,-1.978515 0.47467,-0.93409 1.20589,-2.63829 1.625,-3.78711 0.41912,-1.14882 0.97512,-2.591628 1.23633,-3.205078 0.77059,-1.80968 0.62203,-2.97509 -0.47851,-3.74414 -0.57094,-0.39897 -0.88463,-0.533404 -1.21876,-0.464844 z m 243.37305,3.949219 c -1.93489,5.05955 -5.58835,9.302171 -8.23437,14.044922 -0.816,1.28212 -2.04515,3.072958 -2.73242,3.980468 -6.17593,8.35822 -13.4119,21.161044 -21.42969,29.371094 -0.57954,0.76314 -1.82582,2.108898 -2.76953,2.992188 -0.94371,0.883299 -1.79112,1.826123 -1.88282,2.095703 -0.0917,0.26957 -0.4952,0.728421 -0.89648,1.019531 -0.70083,0.50849 -0.74121,0.508451 -1.0332,-0.03711 -0.58668,-1.096259 0.86388,-5.496177 3.62304,-10.992187 3.29574,-6.55725 8.41893,-15.995613 15.03711,-23.439453 1.01928,-1.08364 2.05018,-2.260634 2.28907,-2.615234 0.23889,-0.354601 0.95874,-1.251641 1.5996,-1.994141 0.64086,-0.7425 1.25698,-1.461166 1.3711,-1.597656 4.32686,-4.98406 9.51194,-10.715585 15.05859,-12.828125 z m -246.46484,3.638672 c 0.3662,0.0437 0.16555,1.199746 -0.73828,2.990234 -0.4961,0.98276 -1.11612,2.430527 -1.37891,3.216797 -0.62302,1.86406 -1.16753,3.129518 -2.29492,5.330078 -0.5072,0.99 -1.51051,3.284609 -2.22852,5.099609 -0.71802,1.815 -1.54604,3.638281 -1.84179,4.050782 -0.29576,0.4125 -0.84497,1.558828 -1.22071,2.548828 -0.37575,0.99 -1.82076,4.107924 -3.20898,6.927734 -1.38822,2.81982 -2.52344,5.232931 -2.52344,5.363281 0,0.22675 -5.1652,9.892911 -6.84375,12.806641 -0.44277,0.76859 -1.04133,1.657699 -1.33008,1.974609 -0.28875,0.3169 -0.52539,0.734475 -0.52539,0.927735 0,0.19326 -0.14325,0.349609 -0.31836,0.349609 -0.37409,0 -0.18141,-1.645837 0.63282,-5.398437 0.99575,-4.58919 1.24234,-5.372692 3.76367,-11.925782 0.42851,-1.11375 0.95684,-2.496719 1.17383,-3.074218 0.21698,-0.5775 0.74487,-1.74479 1.17187,-2.59375 0.427,-0.848961 0.77539,-1.752763 0.77539,-2.007813 0,-0.25505 0.10703,-0.530228 0.23828,-0.611328 0.13125,-0.08111 0.69565,-1.06849 1.25391,-2.193359 0.55826,-1.124881 1.262,-2.366266 1.5625,-2.759766 0.30049,-0.3935 0.54492,-1.005835 0.54492,-1.359375 0,-0.35353 0.23606,-0.974853 0.52344,-1.382813 0.28738,-0.40797 1.133,-1.958359 1.8789,-3.443359 1.26622,-2.52092 5.31012,-8.316966 7.76954,-11.134766 0.59295,-0.67935 1.45937,-1.792709 1.92382,-2.474609 0.59824,-0.878329 1.02052,-1.252781 1.24024,-1.226562 z m 126.85547,1.248046 c 0.13496,-0.03244 0.20898,0.0033 0.20898,0.119141 -2.86274,10.59304 -17.18139,31.490021 -24.88476,40.619141 -0.12984,0 -0.57597,0.515571 -0.99219,1.144531 -0.77532,1.17158 -3.64641,4.04786 -7.14258,7.15625 -3.96849,3.52833 -4.1988,3.699789 -4.36914,3.255859 -0.21273,-0.55436 1.02012,-4.21513 1.89453,-5.625 0.38172,-0.61547 0.69531,-1.174687 0.69531,-1.242187 7.57837,-14.42443 18.01403,-26.260865 27.75,-39.078125 1.99238,-2.571844 5.89513,-6.122533 6.83985,-6.34961 z m 264.71875,0.751954 c -0.10783,-0.01527 -0.20703,-0.01316 -0.29493,0.0078 -0.66899,0.1596 -0.96343,0.419875 -5.61523,4.984375 -6.9308,6.89717 -14.2938,16.154109 -20.58008,25.318359 -2.61972,4.07017 -6.58441,7.900533 -9.71875,11.726563 0,0.24627 -1.19271,1.312545 -5.73633,5.134765 -1.70989,1.273731 -4.03433,2.298934 -5.97656,3.533204 -0.73545,0.33026 -2.04134,1.078019 -2.90039,1.662109 -1.79424,1.21993 -6.60557,2.919922 -8.26367,2.919922 -2.36552,-0.0091 -2.15532,-5.289201 2.66797,-9.900391 2.04675,-1.91369 7.02158,-4.628367 9.07226,-5.716797 0.81693,-0.4336 2.33421,-1.322769 3.3711,-1.974609 2.02545,-1.2675 3.16135,-0.918522 2.16601,2.242188 -0.20487,0.619629 -1.26608,4.825714 0.96485,3.615234 2.21925,-2.64481 3.9079,-6.258937 1.11914,-9.091797 -0.77382,-0.7557 -1.25605,-0.974609 -2.14453,-0.974609 -0.99456,0 -2.97585,0.672779 -4.43946,1.505859 -3.53319,2.01108 -9.95329,5.880177 -13.13476,9.054687 -4.14641,4.137331 -4.08434,5.474497 -4.96485,9.560547 -0.01,1.0725 -0.12244,2.115637 -0.25,2.316407 -0.12759,0.20078 -2.05874,0.966385 -3.20117,1.484375 -4.81397,2.162101 -9.31548,-0.113088 -12.15039,-5.267579 -0.72198,-1.342719 -0.72841,-1.411687 -0.19531,-1.804687 3.26078,-0.89874 6.62552,-0.492303 9.50781,-3.158203 1.06572,-0.82975 2.4116,-1.875219 2.99024,-2.324219 3.00246,-2.32972 5.45703,-6.082004 5.45703,-8.339844 0,-2.20678 -4.51935,-5.508721 -6.95508,-5.082031 -4.28496,0.79235 -8.24002,3.576001 -11.10352,7.207031 0,0.15607 -0.87515,1.163595 -1.94336,2.240235 -1.30737,1.65659 -4.22147,5.996554 -2.18164,10.115234 0.4133,1.43727 0.40714,1.627376 -0.0879,2.441406 -0.95361,1.56807 -3.55516,3.231845 -6.87109,4.396485 -3.08526,1.083623 -4.72007,1.177343 -7.11524,0.410163 -6.35402,-2.052837 -5.02437,-9.752278 -2.3164,-14.869148 1.92993,-2.89103 2.36652,-3.309559 4.01562,-3.849609 1.77822,-0.58233 4.19922,-2.586762 4.19922,-3.476563 0,-0.80687 -1.42497,-2.295105 -2.40234,-2.509765 -0.74139,-0.16284 -1.29221,0.07224 -3.36719,1.445312 -2.73153,1.81915 -4.53071,3.73189 -8.55469,4.34375 -3.21153,0.0524 -4.50471,0.363466 -5.31054,-0.615234 -0.62331,-0.75705 -1.67059,-1.423828 -2.23438,-1.423828 -0.16941,0 -0.58239,0.294077 -0.91797,0.654297 -0.55098,0.59138 -0.56751,0.720388 -0.17187,1.324218 0.35835,0.54691 0.3795,0.987682 0.11523,2.419922 -1.45894,7.47659 -5.82618,14.394868 -12.16797,19.054688 -2.65899,1.42774 -5.13954,1.79405 -6.04101,0.89258 -0.74127,-0.74127 -1.35903,-2.8634 -1.14258,-3.925783 0.15798,-0.77534 1.10728,-2.958223 1.77148,-4.070313 1.27461,-2.13414 2.07602,-3.253202 3.74219,-5.226562 1.82436,-2.17249 2.75877,-5.375052 -1.66601,-3.388672 -1.56687,1.6306 -2.68582,2.980659 -3.06055,3.693359 -0.81111,1.54274 -4.32993,5.382291 -5.94531,6.488281 -2.41311,1.652191 -6.28744,3.5507 -7.70899,3.77735 -1.56159,0.24898 -3.33882,-0.24794 -3.76953,-1.05274 -0.50316,-0.94017 -0.40884,-3.182254 0.22266,-5.333984 0.52821,-1.799781 0.77654,-2.124216 4.43945,-5.765626 2.30715,-2.293629 4.65039,-4.375 4.65039,-4.375 2.64456,-2.10442 1.54392,-5.681246 -2.27734,-2.378906 -0.48744,0.52984 -1.48113,1.434219 -2.20899,2.011719 -1.72857,1.37148 -5.34315,4.976678 -6.28515,6.267578 -1.17519,1.61042 -1.75133,3.153563 -2.0918,5.601563 -0.4791,3.44445 -0.23239,4.356756 1.69922,6.257816 2.058,2.02508 3.38635,2.45967 6.17578,2.02539 1.38174,-0.21511 2.46,-0.62367 3.64062,-1.37891 2.01575,-0.75472 4.38614,-3.351832 5.14454,-0.47656 0.69212,5.02225 7.5582,5.52491 11.95312,3.5625 2.05122,-0.99041 6.81851,-4.8766 7.49219,-6.107424 0.18024,-0.32929 0.55459,-0.944387 0.83203,-1.367187 0.99117,-1.51048 2.3687,-4.357092 2.79102,-5.769532 0.95836,-2.49029 2.15391,-4.950177 2.82617,-7.523437 2.23148,-1.14075 4.24557,-1.005005 7.24609,-1.390625 0.70305,0 0.7739,0.890044 0.16406,2.052734 -1.72187,3.33045 -2.20431,6.370056 -1.24609,10.097657 0.45853,2.11887 1.81899,4.599334 4.22656,6.234374 3.4284,2.35412 9.85645,2.05467 14.51953,-0.67773 2.0268,-1.18764 2.58734,-1.661735 3.64649,-3.082035 0.96411,-1.29286 1.78408,-1.07907 3.45703,0.900391 0.80187,0.948754 1.6607,1.893024 1.91016,2.099614 4.42418,3.4499 9.07549,2.95378 13.64843,0.41992 1.83054,-1.06197 2.08117,-1.12888 3.13477,-0.84766 2.09274,0.55858 6.44127,-0.6895 12.32031,-3.535156 0.9075,-0.43926 2.00388,-1.025777 2.43555,-1.304687 0.43167,-0.2789 1.93723,-1.166767 3.3457,-1.972657 1.40844,-0.805889 2.93243,-1.785421 3.38672,-2.175781 1.12422,-0.96604 1.43713,-0.896965 1.20898,0.265625 -0.10524,0.53625 -0.25975,1.915783 -0.34375,3.064453 -0.14439,2.04742 0.92917,4.946943 2.84571,7.039063 2.58024,2.45188 6.42901,2.41789 9.77148,1.64063 2.09619,-0.65483 3.23364,-1.0579 8.81055,-3.12696 0.81051,-0.30073 1.41206,-0.29906 3.04883,0.01 7.5575,1.31667 15.89838,-3.768096 21.24023,-8.589846 1.40298,-1.39039 2.69626,-2.479422 2.875,-2.419922 0.94971,3.51118 1.11174,8.099684 2.88867,11.771488 0.6702,0.80755 1.68154,0.50821 2.62696,-0.77735 l 0.89257,-1.212888 c -1.16655,-2.41452 -1.6722,-5.057648 -2.03711,-7.923828 -0.2885,-1.99432 -0.57443,-11.205007 1.07032,-12.185547 7.34691,-2.13525 15.0933,-0.772923 22.5664,-2.070313 0.94539,-0.19019 2.02133,-0.403109 2.39258,-0.474609 0.9459,-0.18227 0.84095,-0.617765 -0.29101,-1.203125 -1.09662,-0.56709 -1.82654,-0.632415 -9.53321,-0.859375 -3.0525,-0.0899 -5.7525,-0.192009 -6,-0.224609 -0.2475,-0.03262 -1.19211,0.03961 -2.09961,0.160156 -0.9075,0.12056 -2.595,0.282122 -3.75,0.357422 -6.34635,0.41366 -8.36807,2.005221 -8.42187,6.638672 l -0.0234,2.140624 -1.92773,2.179688 c -2.0628,2.33435 -2.18241,2.45223 -4.92774,4.8125 -3.95423,3.31278 -9.2793,5.436713 -13.77539,6.095703 -0.72195,-0.27703 -0.59598,-0.576247 0.97461,-2.310547 0.79701,-0.88009 1.89757,-2.265215 2.44531,-3.078125 2.42405,-3.58414 4.87121,-7.007666 6.15821,-11.378906 1.31958,-3.79583 1.53114,-6.45449 0.65625,-8.25 -0.72126,-1.48029 -2.03056,-3.202744 -2.89063,-3.802734 -1.15014,-0.80234 -3.26256,-0.620215 -5.62305,0.484375 -4.23719,2.01583 -8.52723,5.507016 -11.79492,9.091796 0,0.132591 -0.33298,0.744165 -0.73828,1.359376 -2.70899,4.337409 -3.33332,9.954738 -1.87109,14.767578 0.18162,0.4125 0.99974,1.539216 1.8164,2.503906 2.6094,3.09599 -5.05558,4.32168 -8.40429,4.91992 -1.52436,0.0861 -2.39892,-0.009 -3.01953,-0.33007 -2.59055,-1.600976 -2.80713,-6.723289 -1.27149,-9.81446 0.49353,-0.83703 1.09555,-1.952342 1.33789,-2.476562 0.24234,-0.52422 0.91511,-1.560234 1.49414,-2.302734 3.29699,-4.24093 5.39201,-8.044739 8.83008,-12.449219 0.44556,-0.495 1.20073,-1.43961 1.67578,-2.099609 6.87368,-8.56645 13.76188,-16.407338 20.83985,-25.585938 1.32579,-1.29934 2.41015,-2.527616 2.41015,-2.728516 0,-0.601842 -1.13582,-1.516174 -1.89062,-1.623046 z m -80.20508,10.201171 c -0.69825,0.23276 -0.88712,0.514885 -1.07813,1.609375 -1.09739,6.60507 4.68705,4.129322 4.58594,0.738282 -0.95576,-1.31933 -1.26594,-2.415957 -3.50781,-2.347657 z m -342.21875,4.958985 c -0.96822,0.0052 -2.18685,0.29115 -3.57031,0.847656 -2.28895,0.92073 -2.41481,1.004256 -3.00391,2.009766 l -0.53711,0.917968 0.94336,1.076172 c 0.77507,0.88275 1.1505,1.074219 2.0957,1.074219 1.24268,0 1.66519,-0.381482 1.53516,-1.388672 -0.0768,-0.59499 1.14711,-1.910156 1.77734,-1.910156 0.13447,0 0.8749,-0.426526 1.64649,-0.947266 l 1.40234,-0.947265 -0.83398,-0.4375 c -0.38293,-0.200633 -0.87415,-0.298071 -1.45508,-0.294922 z M 302.56445,59.25 c 0.077,-0.01582 0.14374,-0.01039 0.19532,0.02148 0.186,0.11496 0.0796,0.498331 -0.27344,0.994141 -0.3162,0.44407 -1.27574,2.156588 -2.13281,3.804687 -0.85707,1.6481 -1.76372,3.227486 -2.01563,3.509766 -0.25191,0.28227 -1.38815,2.034271 -2.52344,3.894531 -2.12244,3.47778 -2.77341,3.740008 -1.14648,0.460938 0.50415,-1.0161 1.04939,-2.006512 1.21094,-2.201172 0.16158,-0.19467 0.67824,-1.145098 1.14843,-2.111328 0.47019,-0.96622 1.35188,-2.493231 1.96094,-3.394531 0.60906,-0.90131 1.29354,-2.082187 1.51953,-2.623047 0.44027,-1.05371 1.51762,-2.244741 2.05664,-2.355465 z m 339.22266,12.167969 c 0.29598,0.0196 0.53602,0.0959 0.7207,0.228515 0.70278,0.50468 1.24854,1.737833 1.02735,2.320313 -0.1253,0.33 -0.16259,0.883499 -0.084,1.230469 0.35091,1.5487 -4.31581,11.555992 -7.20508,15.451172 -1.6674,2.247859 -3.1881,3.908344 -4.3125,4.708984 -1.13508,0.80828 -1.7573,0.824728 -2.97851,0.08008 -1.11207,-0.6781 -2.80469,-3.020269 -2.80469,-3.880859 -0.68225,-4.05183 -0.18875,-6.23334 1.80469,-10.03711 1.85883,-3.69447 5.43802,-6.678725 9.7207,-8.765625 1.84066,-0.94713 3.22339,-1.394733 4.11133,-1.335937 z m -443.25,4.105469 c 1.62482,0.06357 2.88692,2.460006 1.82617,4.484374 -1.08044,2.061941 -4.47991,4.068612 -8.61133,5.082032 -2.08052,0.51052 -2.08764,0.510389 -2.28125,0.0059 -0.0887,-0.23116 0.33306,-1.07491 0.9375,-1.875 1.3245,-1.75322 5.99103,-6.662454 6.97071,-7.333984 0.38962,-0.267073 0.78324,-0.377953 1.1582,-0.363281 z m 380.39062,0.818359 c 0.69345,0.01891 1.84612,0.591962 2.25977,1.173828 0.37497,0.5275 -0.28439,2.254104 -1.47461,3.865234 -2.78534,3.60391 -11.50536,9.05387 -13.04883,7.25 -1.02394,-1.8154 3.50469,-6.926225 6.16602,-9.353515 1.2609,-1.09056 3.72828,-2.320563 5.83203,-2.908203 0.0768,-0.02146 0.16656,-0.03005 0.26562,-0.02734 z m -264.08789,3.960937 c 1.47494,-0.04285 3.07365,1.158947 3.00391,3.746094 -0.0429,4.80154 -0.46822,7.232944 -1.78906,10.240234 -0.49527,1.127651 -2.56838,2.920232 -4.60547,3.982422 -1.35984,0.70907 -3.36255,0.786945 -4.57617,0.177735 -1.51896,-0.76245 -2.27527,-2.43653 -2.28907,-5.06836 -0.0124,-2.37693 0.5953,-3.999475 2.63086,-7.015625 1.49715,-2.21836 5.33843,-5.49053 7.00586,-5.96875 0.20045,-0.05657 0.40844,-0.08763 0.61914,-0.09375 z m 129.51758,0.296875 c 0.24163,0.0055 0.29297,0.113282 0.29297,0.113282 2.09718,1.34112 2.6828,1.853208 0.29492,5.667968 -2.92917,4.30678 -5.29201,8.780592 -9.43359,11.982422 -0.66561,0.4235 -1.48055,1.000913 -1.81055,1.283203 -0.33,0.2823 -1.33428,0.729216 -2.23047,0.992186 -0.89619,0.26298 -1.63703,0.46949 -1.64843,0.45899 -0.0113,-0.0105 -0.32753,-0.14286 -0.70118,-0.29297 -1.43583,-0.57684 -1.62369,-3.581741 -0.39648,-6.324221 1.07403,-2.40023 6.25143,-7.876273 9.75195,-10.314453 0.47376,-0.33 1.28054,-0.947447 1.79297,-1.373047 0.51246,-0.4256 1.7075,-1.189996 2.65625,-1.697266 0.75851,-0.405555 1.19002,-0.501557 1.43164,-0.496094 z M 34.478516,102.4082 c -0.318085,-0.0178 -0.687469,0.10638 -1.183594,0.3418 -1.383585,0.65656 -1.90695,1.54385 -1.726563,2.92578 0.133743,1.02459 0.227243,1.11504 1.238282,1.21094 3.389877,0.3216 4.600896,-0.83982 3.195312,-3.06641 -0.605029,-0.95842 -0.993296,-1.38235 -1.523437,-1.41211 z m -13.447266,0.20899 c -1.242143,0 -2.15017,0.66601 -2.896484,2.1289 -0.612332,1.20027 -0.581823,1.46837 0.279296,2.46875 0.339923,0.3949 0.716313,0.50009 1.341797,0.375 0.478167,-0.0957 1.0355,-0.17382 1.238282,-0.17382 0.202779,0 0.737215,-0.34051 1.1875,-0.75782 0.730599,-0.67709 0.795717,-0.89539 0.609375,-2.02539 -0.269601,-1.63488 -0.60149,-2.01562 -1.759766,-2.01562 z M 49.474609,103 c -0.182413,0.007 -0.381918,0.023 -0.601562,0.0488 -1.560972,0.18358 -2.521485,0.84465 -2.521485,1.73437 0,0.66584 0.542358,1.78494 1.019532,2.10352 0.181551,0.12122 0.794463,0.22261 1.361328,0.22461 1.43646,0.006 2.417969,-0.97227 2.417969,-2.41016 0,-1.29582 -0.39889,-1.74704 -1.675782,-1.70117 z"
       transform="translate(42.120414,450.37438)"
       id="path4259"
       inkscape:connector-curvature="0"
       sodipodi:nodetypes="sssssssssssccsccsssssssssscssssssscssssssccssssssscssscscsssssccssssssscssscsscsssssscccccccsssscssccsssssssssssscssscsscssssssssscsssssssscsssccssssssssssssssssccscccccccccccsccssscccsccccssssccccccccccccccccsssssscccsssccccccccscscccccccssscssssscsscsscssssccscsssssssssssssccccccccccsccsccsscssssssssssscssssscsssccsssccsscsccccsssccsccsccccccccccssccccscccsccccsscssssccssscssssccssccscsccccccssscccccsscccsccsssccssssscssccsssssscsscssssssscccsscccccssccssscscsssscsssscsscscssssssscccscsccssccccccsccsccccssscccccccscccccsccssccccscsccscscccsssssccssccsccccsccccccsscccsscscsccccccccccccccssccccccccscccsccccccccsccccsscccccsccsssscccscccscsscssscscccscscccsssccscssccccccscssccscssccccscssccssccscscssscsssscssccsccsccscc" />
  </g>
</svg>
